<svg width="51" height="36" viewBox="0 0 51 36" fill="none" xmlns="http://www.w3.org/2000/svg">
<rect width="51" height="36" fill=""/>
<rect x="-28" y="-380" width="396" height="896" rx="20" fill=""/>
<rect x="-11.5" y="-13.5" width="363" height="63" rx="9.5" fill="#" fill-opacity="0.95" stroke="#CAC9C9"/>
<path d="M6.79994 24.0566H5.77734V30.9358H6.79994V24.0566Z" fill="#056B6B"/>
<path d="M10.1567 30.2139H2.41602V31.0237H10.1567V30.2139Z" fill="#056B6B"/>
<path d="M3.01974 30.2139H2.43359V31.9185H3.01974V30.2139Z" fill="#056B6B"/>
<path d="M10.1584 30.2139H9.57227V31.9185H10.1584V30.2139Z" fill="#056B6B"/>
<path d="M3.72292 32.6991C3.72292 32.8937 3.66286 33.0839 3.55033 33.2457C3.43781 33.4074 3.27789 33.5334 3.09082 33.6078C2.90376 33.6821 2.69796 33.7013 2.4995 33.6631C2.30104 33.6249 2.11884 33.5309 1.97597 33.3931C1.8331 33.2552 1.73599 33.0797 1.69695 32.8887C1.6579 32.6978 1.67866 32.5 1.75661 32.3204C1.83457 32.1408 1.9662 31.9875 2.13483 31.8798C2.30347 31.7722 2.50153 31.7151 2.70394 31.7158C2.83799 31.7161 2.97068 31.7417 3.09444 31.7912C3.2182 31.8407 3.33059 31.9132 3.42522 32.0045C3.51984 32.0958 3.59483 32.2042 3.64591 32.3233C3.69699 32.4425 3.72316 32.5702 3.72292 32.6991Z" fill="#111111"/>
<path d="M3.18378 32.7003C3.18378 32.792 3.15544 32.8817 3.10237 32.9579C3.0493 33.0341 2.97388 33.0935 2.88568 33.1284C2.79748 33.1633 2.70047 33.1723 2.60696 33.1542C2.51346 33.136 2.42766 33.0916 2.36047 33.0265C2.29327 32.9614 2.24769 32.8785 2.22952 32.7885C2.21135 32.6985 2.2214 32.6053 2.2584 32.5207C2.2954 32.4362 2.35768 32.3641 2.43735 32.3137C2.51701 32.2632 2.61046 32.2366 2.70585 32.2373C2.83294 32.2382 2.95449 32.2874 3.04402 32.3741C3.13355 32.4609 3.18379 32.5781 3.18378 32.7003Z" fill="#F5F5F5"/>
<path d="M10.8948 32.699C10.8948 32.8936 10.8348 33.0838 10.7223 33.2455C10.6099 33.4072 10.4501 33.5332 10.2631 33.6076C10.0762 33.682 9.87045 33.7013 9.67204 33.6633C9.47363 33.6252 9.29142 33.5314 9.14848 33.3937C9.00554 33.256 8.90829 33.0806 8.86904 32.8898C8.82979 32.699 8.85029 32.5012 8.92797 32.3216C9.00564 32.142 9.13699 31.9885 9.30539 31.8807C9.4738 31.7729 9.67168 31.7155 9.87401 31.7158C10.0082 31.7158 10.1411 31.7413 10.2651 31.7907C10.389 31.8401 10.5016 31.9126 10.5965 32.0039C10.6913 32.0952 10.7664 32.2036 10.8176 32.3229C10.8688 32.4422 10.895 32.57 10.8948 32.699Z" fill="#111111"/>
<path d="M10.3518 32.7003C10.3518 32.792 10.3235 32.8815 10.2705 32.9577C10.2175 33.0339 10.1422 33.0932 10.0541 33.1282C9.96597 33.1632 9.86906 33.1723 9.7756 33.1543C9.68214 33.1363 9.59635 33.092 9.52907 33.0271C9.4618 32.9622 9.41608 32.8795 9.39771 32.7896C9.37933 32.6996 9.38912 32.6065 9.42585 32.5219C9.46257 32.4374 9.52457 32.3652 9.604 32.3145C9.68342 32.2638 9.7767 32.237 9.87202 32.2373C9.99941 32.2378 10.1214 32.2867 10.2113 32.3735C10.3013 32.4603 10.3518 32.5778 10.3518 32.7003Z" fill="#F5F5F5"/>
<path d="M7.76155 24.9531H4.81641V26.3976H7.76155V24.9531Z" fill="#056B6B"/>
<path d="M1.10376 25.2429C1.15967 25.2828 1.22099 25.3209 1.28411 25.3591H13.007C14.1793 23.9285 11.4433 21.5007 10.1953 20.7152C9.29353 20.1378 8.07976 19.3279 6.83534 19.0262C6.74445 18.9407 6.63093 18.8807 6.5071 18.8528C4.96689 18.4592 1.432 17.4048 0.578934 19.1528C-0.182151 20.7135 -0.171329 22.8897 0.485151 24.4782C0.610088 24.7852 0.82497 25.0509 1.10376 25.2429Z" fill="white"/>
<path d="M9.9793 5.30116C9.9793 5.99479 9.57351 6.55837 9.07754 6.55837C8.58157 6.55837 8.17578 5.99479 8.17578 5.30116C8.17578 4.60752 8.58157 4.04395 9.07754 4.04395C9.57351 4.04395 9.9793 4.60579 9.9793 5.30116Z" fill="white"/>
<path d="M10.7804 11.442C10.9427 12.3316 11.1754 13.1588 11.7741 13.7397C12.2647 14.2165 12.9681 14.5374 13.6696 14.7489C14.4692 14.9942 15.303 15.1205 16.1423 15.1235C16.5589 15.1391 16.9755 15.1235 17.3921 15.1061C17.5905 15.0957 17.7871 15.0784 17.9854 15.0593C18.0816 15.0501 18.1772 15.0397 18.2722 15.0281C17.9728 15.0628 18.4165 15.0038 18.4399 15.0004C19.2118 14.879 19.9837 15.1738 20.2074 15.9645C20.3986 16.6321 19.9765 17.5425 19.2028 17.6639C17.0206 18.0107 14.7193 18.0107 12.6038 17.3171C11.4897 16.9756 10.4739 16.389 9.63697 15.6038C8.69192 14.6865 8.23924 13.4362 8.0138 12.1894C7.87313 11.442 8.20498 10.6964 9.01836 10.4831C9.71993 10.2975 10.6415 10.705 10.7858 11.4472L10.7804 11.442Z" fill="#40404A"/>
<path d="M16.7527 31.4097C16.1251 29.4467 16.1882 27.2947 15.245 25.4254C14.7274 24.3988 13.1908 24.0381 12.1357 23.6913C10.5757 23.1711 9.03367 22.637 7.44657 22.2086C5.73864 21.7508 6.56826 19.2815 8.27979 19.7376C10.0545 20.211 11.775 20.8058 13.51 21.3867C15.1079 21.9191 16.7058 22.6005 17.6148 23.9965C18.3615 25.1444 18.5761 26.6861 18.7781 27.997C18.8809 28.6698 18.8863 29.3496 18.9729 30.0242C19.052 30.4824 19.0774 30.9477 19.0486 31.4114L16.7527 31.4097Z" fill="#343438"/>
<path d="M12.7536 31.4097C12.2486 29.5023 12.2125 27.4734 11.3306 25.6873C9.94007 22.878 6.22482 24.9624 4.02634 24.1838C0.780006 23.0341 2.08215 19.3284 5.37717 19.8295C6.95164 20.0602 8.11311 20.9792 9.55592 21.4856C11.1611 22.0492 12.768 22.7653 13.6896 24.2185C14.4489 25.4115 14.6761 27.0086 14.8889 28.3664C14.9989 29.0601 15.008 29.7676 15.1017 30.4647C15.145 30.7855 15.1883 31.1011 15.2009 31.4097H12.7536Z" fill="#40404A"/>
<path d="M2.91451 11.288C3.13093 10.8458 3.36178 10.5233 3.71347 10.3395C4.53768 9.90596 5.43042 9.75683 6.28889 9.54874C6.3233 9.54104 6.35909 9.54104 6.39349 9.54874C6.42791 9.54111 6.46368 9.54111 6.4981 9.54874C7.35657 9.75683 8.24751 9.90596 9.07352 10.3395C9.43423 10.5233 9.65425 10.8458 9.87068 11.288C10.0447 11.6203 10.1662 11.9756 10.2314 12.3424L9.91757 20.5047L2.49609 20.4284L2.552 12.3424C2.61771 11.9756 2.73989 11.6202 2.91451 11.288Z" fill="#343438"/>
<mask id="mask0_0_1" style="mask-type:luminance" maskUnits="userSpaceOnUse" x="2" y="9" width="9" height="12">
<path d="M2.92037 11.2861C3.13679 10.8439 3.36764 10.5213 3.71933 10.3375C4.54353 9.90401 5.43628 9.75488 6.29475 9.54679C6.32916 9.53909 6.36495 9.53909 6.39935 9.54679C6.43377 9.53915 6.46954 9.53915 6.50396 9.54679C7.36243 9.75488 8.25337 9.90401 9.07938 10.3375C9.44008 10.5213 9.66011 10.8439 9.87654 11.2861C10.0505 11.6184 10.1721 11.9737 10.2372 12.3404L9.92343 20.5027L2.50195 20.4264L2.55786 12.3404C2.62357 11.9736 2.74575 11.6183 2.92037 11.2861Z" fill="white"/>
</mask>
<g mask="url(#mask0_0_1)">
<path d="M3.71484 4.86523L6.85837 18.4067L10.0001 4.86523H3.71484Z" fill="white"/>
</g>
<path d="M18.7341 31.1228C18.7341 31.1228 19.9965 31.9899 20.7811 32.028C21.5656 32.0662 23.4863 33.0321 21.3708 33.313C21.3708 33.313 18.7575 33.28 18.1443 32.4459L18.1083 33.1569L16.9342 33.117C16.9342 33.117 16.2308 31.4523 17.0388 31.0361L18.7341 31.1228Z" fill="#111111"/>
<path d="M14.8231 31.2764C14.8231 31.2764 16.0856 32.1434 16.8701 32.1816C17.6546 32.2197 19.5646 33.1873 17.4599 33.4665C17.4599 33.4665 14.8466 33.4336 14.2334 32.5995L14.1973 33.3122L13.0232 33.2567C13.0232 33.2567 12.3216 31.6007 13.1278 31.1914L14.8231 31.2764Z" fill="#111111"/>
<path d="M7.54683 7.97168H5.96875V10.5901H7.54683V7.97168Z" fill="#FEAF9A"/>
<g style="mix-blend-mode:multiply">
<path d="M7.54863 8.82409C7.33015 9.00846 7.04938 9.11013 6.75869 9.11013C6.468 9.11013 6.18723 9.00846 5.96875 8.82409V7.97266H7.54863V8.82409Z" fill="#FFB39D"/>
</g>
<path d="M4.00513 5.3528C4.02136 5.97187 3.95463 6.70539 4.19811 7.28977C4.93034 9.06028 8.7069 9.1071 9.35256 7.23255C9.56357 6.61695 9.51308 5.88517 9.5239 5.24529C9.53024 4.53547 9.49773 3.82583 9.42651 3.1193C9.31469 1.94185 7.91516 1.49619 6.90158 1.48926C5.98359 1.48926 4.20713 1.97827 4.09892 3.11756C4.02261 3.86027 3.9913 4.6066 4.00513 5.3528Z" fill="#FFB39D"/>
<path d="M8.63489 4.60787C8.44307 4.64858 8.2648 4.73457 8.11619 4.85809C7.96757 4.98161 7.85328 5.13877 7.78363 5.31538C7.65739 5.70381 7.90086 6.04023 8.22549 6.25005L8.18041 6.07664C8.12991 6.18415 8.05236 6.30381 7.91168 6.2778C7.84315 6.26392 7.75297 6.2119 7.68264 6.22924C7.66489 6.23483 7.64899 6.24482 7.63653 6.25819C7.62406 6.27157 7.61548 6.28786 7.61165 6.30543C7.60781 6.32301 7.60885 6.34124 7.61466 6.35831C7.62047 6.37537 7.63086 6.39066 7.64476 6.40265C7.69863 6.45856 7.76796 6.49855 7.84463 6.5179C7.9213 6.53725 8.00212 6.53517 8.07761 6.5119C8.15707 6.48305 8.22836 6.43663 8.28569 6.37638C8.34303 6.31612 8.38481 6.24374 8.40765 6.16508C8.41479 6.13975 8.4132 6.11288 8.40312 6.0885C8.39304 6.06411 8.37501 6.04353 8.35174 6.02982C8.08662 5.88242 7.88643 5.63445 7.99104 5.33619C8.09564 5.03792 8.40044 4.82463 8.67457 4.6807C8.71966 4.65816 8.689 4.59226 8.6403 4.60267L8.63489 4.60787Z" fill="#F48364"/>
<path d="M9.19744 5.39784C9.19744 5.62501 9.08742 5.81056 8.95036 5.81056C8.81329 5.81056 8.70508 5.62501 8.70508 5.39784C8.70508 5.17068 8.81509 4.9834 8.95036 4.9834C9.08562 4.9834 9.19744 5.16895 9.19744 5.39784Z" fill="#3F1C25"/>
<path d="M6.41619 5.39784C6.41619 5.62501 6.30617 5.81056 6.16911 5.81056C6.03204 5.81056 5.92383 5.62501 5.92383 5.39784C5.92383 5.17068 6.03384 4.9834 6.16911 4.9834C6.30437 4.9834 6.41619 5.16895 6.41619 5.39784Z" fill="#3F1C25"/>
<path d="M8.06625 7.01231C7.87619 7.16101 7.63662 7.23861 7.39173 7.23081C7.13383 7.21 6.9138 7.06607 6.68115 6.97416C6.62343 6.94989 6.58376 7.03139 6.62343 7.06954C6.8294 7.26596 7.10226 7.38421 7.39173 7.40248C7.67021 7.40904 7.94199 7.31988 8.15823 7.15104C8.24299 7.09035 8.15823 6.95162 8.07346 7.01231H8.06625Z" fill="#F48364"/>
<path d="M5.95339 10.166C5.99844 10.0143 6.10363 9.8857 6.24631 9.80786C6.38899 9.73003 6.55776 9.70917 6.71627 9.74978C6.80432 9.77379 6.88567 9.81646 6.95434 9.87463C7.06586 9.85379 7.18145 9.8737 7.27851 9.93047C7.37557 9.98723 7.44712 10.0768 7.47916 10.1816C7.50844 10.2801 7.52776 10.3812 7.53687 10.4833C7.51884 10.3394 7.53687 10.5405 7.5513 10.5891C7.55374 10.6653 7.54709 10.7415 7.53146 10.8162C7.50721 10.955 7.44398 11.0846 7.34862 11.1913C7.25326 11.298 7.12939 11.3776 6.99041 11.4214C6.61347 11.522 6.25638 11.2116 6.07061 10.9307C5.93085 10.6997 5.88887 10.4259 5.95339 10.166Z" fill="#FDFDFD"/>
<path d="M5.47656 9.80334L6.03926 9.20508L6.81116 9.54322L6.81658 9.55363L6.82379 9.54322L7.59389 9.20508L8.15659 9.80334L7.64259 11.0918L6.81658 9.98021L5.99056 11.0918L5.47656 9.80334Z" fill="#F5F5F5"/>
<path d="M7.13077 11.1416L7.76922 18.9675L7.01174 20.1953L6.09375 18.9675L6.532 11.1416H7.13077Z" fill="#797886"/>
<path d="M10.2813 1.61337C10.2813 0.85731 9.58516 0.148069 8.80965 0.052694C7.99626 -0.0461489 7.44438 0.779276 6.65444 0.690838C6.33883 0.663092 6.01059 0.160207 5.67153 0.0578963C5.46892 -0.000220223 5.2555 -0.0148118 5.04638 0.015154C4.83726 0.0451198 4.63754 0.118911 4.46137 0.231305C4.29122 0.325409 4.1431 0.452261 4.02627 0.603925C3.90945 0.75559 3.82643 0.928803 3.78242 1.11273C3.73841 1.29665 3.73434 1.48733 3.77048 1.67284C3.80662 1.85834 3.88219 2.03468 3.99245 2.19082C4.26024 2.54005 4.6338 2.8011 5.06194 2.93821C5.56692 3.37867 6.01239 3.833 6.84742 3.65786C7.02437 3.62682 7.19097 3.55531 7.33316 3.44938C7.47535 3.34345 7.58896 3.2062 7.66441 3.04919C8.01984 3.18541 8.40797 3.22267 8.7844 3.15671C9.50941 3.00931 10.2813 2.3781 10.2813 1.61337Z" fill="#111111"/>
<path d="M4.64689 11.442C4.81101 12.3316 5.04367 13.1588 5.64063 13.7397C6.13479 14.2166 6.83636 14.5374 7.53613 14.7489C8.33626 14.9943 9.17071 15.1206 10.0106 15.1235C10.4254 15.1391 10.8438 15.1235 11.2586 15.1062C11.457 15.0957 11.6554 15.0784 11.8537 15.0593C11.9499 15.0501 12.0455 15.0397 12.1405 15.0281C11.8393 15.0628 12.283 15.0038 12.3064 15.0004C13.0783 14.879 13.8502 15.1738 14.0739 15.9645C14.265 16.6321 13.8448 17.5425 13.0711 17.6639C10.8889 18.0107 8.58758 18.0107 6.47205 17.3171C5.35765 16.9753 4.34131 16.3887 3.50346 15.6038C2.55842 14.6865 2.10574 13.4362 1.8803 12.1894C1.74143 11.442 2.07327 10.6964 2.88846 10.4831C3.58101 10.2975 4.51163 10.705 4.64689 11.442Z" fill="#40404A"/>
<path d="M13.2316 14.9757C14.0107 15.1335 14.6383 15.8826 14.4526 16.6508C14.3443 17.0913 13.8826 17.1554 13.5652 16.9785C13.5209 16.983 13.4761 16.983 13.4318 16.9785C13.0278 16.9664 12.6328 16.8554 12.227 16.8866C12.066 16.8862 11.9117 16.8245 11.7978 16.715C11.6839 16.6055 11.6197 16.4571 11.6192 16.3023C11.6102 15.4005 12.2865 14.7832 13.2316 14.9757Z" fill="#FFB39D"/>
<path d="M5.79425 4.3323C6.1315 4.18664 6.46696 4.32016 6.81323 4.26987C6.8278 4.26808 6.84166 4.26275 6.8535 4.25439C6.86534 4.24602 6.87477 4.2349 6.8809 4.22206C6.88704 4.20923 6.88967 4.1951 6.88856 4.18102C6.88745 4.16693 6.88263 4.15335 6.87455 4.14155C6.6437 3.75138 5.98181 3.92999 5.68423 4.14155C5.57963 4.21438 5.67161 4.38953 5.79425 4.3375V4.3323Z" fill="#111111"/>
<path d="M9.6805 4.3323C9.34324 4.18664 9.00779 4.32016 8.66151 4.26987C8.64694 4.26808 8.63308 4.26275 8.62125 4.25439C8.60941 4.24602 8.59998 4.2349 8.59384 4.22206C8.58771 4.20923 8.58507 4.1951 8.58619 4.18102C8.5873 4.16693 8.59212 4.15335 8.60019 4.14155C8.83104 3.75138 9.50195 3.92999 9.79051 4.14155C9.89512 4.21438 9.80314 4.38953 9.6805 4.3375V4.3323Z" fill="#111111"/>
<path d="M5.04146 2.17366C4.98014 2.26037 4.55992 5.52565 4.55992 5.52565C4.55992 5.52565 2.51473 3.40833 3.83851 1.84766L5.04146 2.17366Z" fill="#111111"/>
<path d="M3.94619 4.56459C3.87706 4.56466 3.81055 4.53911 3.7605 4.49325C3.71046 4.44739 3.68072 4.38475 3.67747 4.31835C3.67747 4.24725 3.58549 2.54264 4.75958 1.30971C5.48099 0.548444 6.51801 0.140934 7.83818 0.0958478C7.90993 0.0935482 7.97969 0.118748 8.03212 0.165902C8.08454 0.213057 8.11534 0.278304 8.11773 0.34729C8.12012 0.416276 8.09391 0.483351 8.04487 0.533757C7.99583 0.584164 7.92797 0.613774 7.85622 0.616074C6.68934 0.652489 5.78398 1.00104 5.16176 1.65653C4.14278 2.72472 4.21672 4.27499 4.21672 4.28887C4.22117 4.35714 4.19728 4.42433 4.15028 4.47569C4.10329 4.52705 4.03703 4.5584 3.96603 4.56285L3.94619 4.56459Z" fill="white"/>
<mask id="mask1_0_1" style="mask-type:luminance" maskUnits="userSpaceOnUse" x="3" y="0" width="6" height="5">
<path d="M3.94619 4.56263C3.87706 4.56271 3.81055 4.53716 3.7605 4.4913C3.71046 4.44544 3.68072 4.38279 3.67747 4.31639C3.67747 4.2453 3.58549 2.54069 4.75958 1.30775C5.48099 0.546491 6.51801 0.138981 7.83818 0.0938946C7.90993 0.0915951 7.97969 0.116794 8.03212 0.163949C8.08454 0.211104 8.11534 0.276351 8.11773 0.345337C8.12012 0.414323 8.09391 0.481398 8.04487 0.531804C7.99583 0.582211 7.92797 0.611821 7.85622 0.61412C6.68934 0.650536 5.78398 0.999087 5.16176 1.65457C4.14278 2.72277 4.21672 4.27304 4.21672 4.28691C4.22117 4.35519 4.19728 4.42237 4.15028 4.47373C4.10329 4.5251 4.03703 4.55644 3.96603 4.5609L3.94619 4.56263Z" fill="white"/>
</mask>
<g mask="url(#mask1_0_1)">
<path opacity="0.4" d="M5.40894 3.56738H2.02734V4.78124H5.40894V3.56738Z" fill="#9577EE"/>
<path opacity="0.4" d="M8.40836 0.487416L5.82031 0.409382L6.61747 -0.532227L9.5554 0.870649L8.40836 0.487416Z" fill="#9577EE"/>
</g>
<path d="M4.75274 5.30116C4.75274 5.99479 4.34694 6.55837 3.85098 6.55837C3.35501 6.55837 2.94922 5.99479 2.94922 5.30116C2.94922 4.60752 3.35501 4.04395 3.85098 4.04395C4.34694 4.04395 4.75274 4.60579 4.75274 5.30116Z" fill="white"/>
<path opacity="0.4" d="M4.02476 6.36349C3.52158 6.36349 3.123 5.80165 3.123 5.10628C3.11697 4.79361 3.20802 4.48631 3.38451 4.22363C3.23684 4.36395 3.12127 4.53236 3.04518 4.71809C2.96909 4.90382 2.93417 5.10278 2.94265 5.30223C2.94265 5.99587 3.34844 6.55945 3.84441 6.55945C3.97575 6.55279 4.10336 6.51514 4.21596 6.44981C4.32857 6.38449 4.42271 6.2935 4.49007 6.18488C4.36214 6.29596 4.19708 6.35932 4.02476 6.36349Z" fill="#9577EE"/>
<path d="M4.10492 5.29517C4.10492 5.84488 3.7839 6.29054 3.38352 6.29054C2.98314 6.29054 2.66211 5.84488 2.66211 5.29517C2.66211 4.74546 2.98314 4.2998 3.38352 4.2998C3.7839 4.2998 4.10492 4.74546 4.10492 5.29517Z" fill="white"/>
<path d="M4.30859 6.08301C4.30859 6.08301 4.57912 7.57779 6.18065 7.64369" stroke="white" stroke-miterlimit="10"/>
<path d="M6.51827 7.64157C6.51827 7.69905 6.49452 7.75419 6.45224 7.79484C6.40997 7.83549 6.35262 7.85833 6.29283 7.85833H6.04575C5.98596 7.85833 5.92862 7.83549 5.88634 7.79484C5.84406 7.75419 5.82031 7.69905 5.82031 7.64157C5.82031 7.58408 5.84406 7.52894 5.88634 7.48829C5.92862 7.44764 5.98596 7.4248 6.04575 7.4248H6.29283C6.35262 7.4248 6.40997 7.44764 6.45224 7.48829C6.49452 7.52894 6.51827 7.58408 6.51827 7.64157Z" fill="#282C47"/>
<path d="M24.908 16.0781C24.8547 16.3114 24.7223 16.521 24.5317 16.6742C24.3411 16.8273 24.103 16.9153 23.8548 16.9243H13.5513C13.4416 16.9282 13.3325 16.9074 13.2327 16.8636C13.1329 16.8198 13.0451 16.7542 12.9763 16.672C12.9074 16.5899 12.8595 16.4934 12.8363 16.3903C12.8131 16.2872 12.8152 16.1803 12.8425 16.0781L14.0562 10.1094C14.1096 9.87611 14.2419 9.66646 14.4326 9.51331C14.6232 9.36015 14.8613 9.27217 15.1095 9.26315H25.413C25.5226 9.25929 25.6317 9.28009 25.7315 9.32389C25.8314 9.36769 25.9192 9.43328 25.988 9.51545C26.0568 9.59762 26.1047 9.69409 26.128 9.7972C26.1512 9.9003 26.1491 10.0072 26.1218 10.1094L24.908 16.0781Z" fill="#B7B6B1"/>
<path opacity="0.4" d="M18.7571 12.9821C18.6867 13.5023 19.0348 13.9202 19.538 13.9202C19.7982 13.9055 20.0447 13.8036 20.2349 13.6322C20.425 13.4608 20.5466 13.2308 20.5786 12.9821C20.6508 12.4619 20.3009 12.0439 19.7977 12.0439C19.5377 12.059 19.2913 12.161 19.1012 12.3324C18.9112 12.5037 18.7894 12.7335 18.7571 12.9821Z" fill="#F5F5F5"/>
<path d="M5.26139 34.1452H4.48047L7.7268 17.3818H8.50772L5.26139 34.1452Z" fill="#111111"/>
<path d="M24.2301 34.1452H23.4492L26.6955 17.3818H27.4765L24.2301 34.1452Z" fill="#111111"/>
<path d="M17.9495 34.1452H18.7304L15.484 17.3818H14.7031L17.9495 34.1452Z" fill="#111111"/>
<path d="M35.7246 16.6865H3.23242V17.8761H35.7246V16.6865Z" fill="#111111"/>
<g style="mix-blend-mode:multiply">
<path d="M14.5044 16.6865H3.23242V17.8761H14.5044V16.6865Z" fill="black"/>
</g>
<path d="M35.5041 34.1452H36.2851L33.0405 17.3818H32.2578L35.5041 34.1452Z" fill="#111111"/>
<path d="M39.9196 19.4438C39.7257 18.8678 39.7358 18.1402 40.009 17.7429C40.82 16.559 42.825 18.7753 41.4659 19.9768C40.7121 20.639 40.1557 20.1603 39.9196 19.4438Z" fill="#FABA93"/>
<path d="M48.504 33.8952C48.4612 34.0124 48.3827 34.1149 48.2784 34.1899C48.174 34.2649 48.0486 34.3089 47.9178 34.3165C47.787 34.324 47.6568 34.2947 47.5437 34.2322C47.4305 34.1698 47.3394 34.077 47.282 33.9656C47.2245 33.8542 47.2032 33.7291 47.2209 33.6063C47.2385 33.4834 47.2942 33.3683 47.3809 33.2754C47.4676 33.1825 47.5815 33.116 47.7082 33.0843C47.8348 33.0526 47.9686 33.0572 48.0925 33.0974C48.1749 33.1241 48.251 33.166 48.3163 33.2206C48.3816 33.2752 48.4349 33.3414 48.4731 33.4155C48.5113 33.4896 48.5337 33.5702 48.539 33.6525C48.5443 33.7348 48.5324 33.8172 48.504 33.8952Z" fill="#111111"/>
<path d="M42.89 24.7461L42.4549 24.9057L40.5039 20.1029L40.939 19.9434L42.89 24.7461Z" fill="#111111"/>
<path d="M44.1927 24.2676L43.7576 24.4272L41.8066 19.6244L42.2417 19.4648L44.1927 24.2676Z" fill="#111111"/>
<path d="M42.3232 19.1496C42.3588 19.2136 42.367 19.2882 42.3459 19.3577C42.3249 19.4273 42.2762 19.4865 42.2102 19.523L40.5661 20.1261C40.4915 20.1411 40.4137 20.1282 40.349 20.0902C40.2842 20.0521 40.2375 19.9918 40.2187 19.9219C40.1825 19.8581 40.1739 19.7836 40.1947 19.7139C40.2154 19.6443 40.264 19.585 40.33 19.5485L41.9741 18.947C42.0487 18.9314 42.1268 18.9439 42.1919 18.9817C42.2569 19.0194 42.304 19.0796 42.3232 19.1496Z" fill="#111111"/>
<path d="M44.5301 32.9992C44.5885 33.1583 44.6797 33.3049 44.7983 33.4305C44.9168 33.5561 45.0605 33.6583 45.2211 33.7311C45.3816 33.804 45.5557 33.846 45.7335 33.8548C45.9113 33.8637 46.0891 33.8392 46.2568 33.7827L48.8115 32.9242C48.9795 32.8688 49.1342 32.7824 49.2668 32.6701C49.3994 32.5578 49.5072 32.4218 49.584 32.27C49.6608 32.1181 49.705 31.9534 49.7143 31.7852C49.7235 31.6171 49.6975 31.4489 49.6378 31.2903L46.9263 24.0064C46.8676 23.8474 46.7764 23.701 46.6577 23.5755C46.539 23.4501 46.3953 23.3481 46.2348 23.2754C46.0743 23.2028 45.9002 23.1608 45.7226 23.1521C45.5449 23.1434 45.3671 23.168 45.1995 23.2245L42.6448 24.075C42.4769 24.1304 42.3221 24.2168 42.1895 24.3291C42.057 24.4414 41.9492 24.5774 41.8724 24.7292C41.7956 24.8811 41.7513 25.0458 41.7421 25.214C41.7328 25.3821 41.7588 25.5503 41.8186 25.7089L44.5301 32.9992Z" fill="white"/>
<path d="M43.1048 33.5069C43.1634 33.6659 43.2547 33.8123 43.3734 33.9378C43.492 34.0632 43.6358 34.1652 43.7963 34.2379C43.9567 34.3106 44.1308 34.3525 44.3085 34.3612C44.4862 34.3699 44.664 34.3453 44.8316 34.2888L47.3862 33.4383C47.5542 33.3829 47.709 33.2965 47.8415 33.1842C47.9741 33.0719 48.0819 32.936 48.1587 32.7841C48.2355 32.6322 48.2798 32.4675 48.289 32.2993C48.2983 32.1312 48.2723 31.963 48.2125 31.8044L45.501 24.5205C45.4426 24.3614 45.3514 24.2148 45.2328 24.0892C45.1142 23.9636 44.9705 23.8614 44.81 23.7886C44.6495 23.7157 44.4754 23.6737 44.2976 23.6648C44.1198 23.656 43.942 23.6805 43.7743 23.737L41.2196 24.5891C41.0514 24.6445 40.8965 24.731 40.7638 24.8434C40.6311 24.9558 40.5232 25.0919 40.4464 25.244C40.3696 25.396 40.3253 25.5609 40.3162 25.7293C40.3071 25.8976 40.3333 26.0659 40.3933 26.2246L43.1048 33.5069Z" fill="#FDFDFD"/>
<path d="M48.3385 30.9234C48.371 31.0373 48.4494 31.1346 48.557 31.1943C48.6645 31.254 48.7926 31.2713 48.9135 31.2425L49.7246 30.9713C49.8378 30.9222 49.926 30.8329 49.9702 30.7227C50.0144 30.6125 50.011 30.4903 49.9606 30.3825L48.9388 27.6412C48.9066 27.5275 48.8285 27.4302 48.7212 27.3705C48.6139 27.3108 48.4861 27.2934 48.3654 27.3221L47.5544 27.5934C47.4408 27.6421 47.3523 27.7314 47.308 27.8417C47.2638 27.952 47.2675 28.0744 47.3183 28.1822L48.3385 30.9234Z" fill="#FDA623"/>
<path d="M46.7454 26.6661C46.7779 26.78 46.8564 26.8773 46.964 26.937C47.0715 26.9967 47.1995 27.014 47.3204 26.9853L48.1315 26.714C48.2448 26.6649 48.333 26.5756 48.3772 26.4654C48.4214 26.3552 48.4179 26.233 48.3676 26.1252L47.9477 25.0641C47.9152 24.9502 47.8368 24.853 47.7292 24.7933C47.6217 24.7336 47.4936 24.7163 47.3727 24.745L46.5616 25.0163C46.4484 25.0654 46.3602 25.1547 46.316 25.2648C46.2718 25.375 46.2752 25.4973 46.3256 25.6051L46.7454 26.6661Z" fill="#FDA623"/>
<path d="M46.9636 34.2021C46.9636 34.3599 46.9142 34.5141 46.8215 34.6453C46.7289 34.7765 46.5972 34.8788 46.4431 34.9392C46.2891 34.9996 46.1195 35.0154 45.956 34.9846C45.7924 34.9538 45.6422 34.8778 45.5243 34.7662C45.4064 34.6547 45.3261 34.5125 45.2935 34.3577C45.261 34.203 45.2777 34.0426 45.3415 33.8968C45.4053 33.751 45.5134 33.6264 45.6521 33.5388C45.7907 33.4511 45.9537 33.4043 46.1205 33.4043C46.3441 33.4043 46.5585 33.4884 46.7167 33.638C46.8748 33.7876 46.9636 33.9905 46.9636 34.2021Z" fill="#111111"/>
<path d="M46.5113 34.2009C46.5119 34.2751 46.4893 34.3478 46.4463 34.4099C46.4032 34.4719 46.3416 34.5205 46.2694 34.5494C46.1971 34.5783 46.1174 34.5863 46.0404 34.5723C45.9634 34.5583 45.8924 34.5231 45.8366 34.4709C45.7808 34.4187 45.7426 34.3521 45.7268 34.2794C45.7111 34.2067 45.7185 34.1312 45.7481 34.0624C45.7777 33.9937 45.8283 33.9348 45.8933 33.8933C45.9583 33.8518 46.0349 33.8294 46.1133 33.8291C46.218 33.8291 46.3185 33.8681 46.3929 33.9377C46.4674 34.0073 46.5099 34.1018 46.5113 34.2009Z" fill="#F0F0F0"/>
<path d="M44.4586 29.2285L45.2276 31.314C45.3121 31.5438 45.2967 31.7959 45.1847 32.0149C45.0728 32.234 44.8735 32.402 44.6306 32.482L43.4098 32.8841C43.1669 32.964 42.9005 32.9494 42.669 32.8435C42.4375 32.7376 42.26 32.549 42.1755 32.3192L41.4082 30.2337L44.4586 29.2285Z" fill="#FDA623"/>
<path d="M34.3946 23.7346V20.0647C34.1501 19.6849 33.7842 19.4408 33.3694 19.4424C32.6679 19.4424 32.0996 20.1461 32.0625 21.0268V21.0683C32.0625 21.0891 32.0625 21.1082 32.0625 21.1289C32.0626 21.2417 32.0721 21.3543 32.0912 21.4656L32.7572 32.8694C32.947 33.0563 33.2071 33.1646 33.4809 33.1709C33.7547 33.1772 34.0201 33.0809 34.2192 32.9029L34.4806 23.741L34.3946 23.7346Z" fill="#FABA93"/>
<path d="M33.9406 1.0752C33.4981 1.08253 33.0636 1.18859 32.6726 1.38474C31.4922 1.99267 31.8935 3.79251 32.4314 4.69244C32.8918 5.45992 34.1413 4.77062 33.6809 4.00154C33.445 3.65267 33.2893 3.26069 33.224 2.85111C33.1751 2.36285 33.8327 2.1634 34.1969 1.96874C34.6522 1.72461 34.4296 1.09753 33.9406 1.0752Z" fill="#111111"/>
<path d="M43.4118 10.0491C43.385 9.83216 43.3004 9.62523 43.1659 9.44773C43.0314 9.27022 42.8514 9.12796 42.6429 9.03429C42.0848 8.76144 41.2517 8.94015 41.3866 8.09448C41.5215 7.24881 41.7677 6.02019 40.4929 5.90211C39.9095 5.84786 39.3125 6.00423 38.7308 5.88456C37.9905 5.725 37.8253 4.4916 37.6364 3.93154C37.4846 3.48158 36.7359 3.67145 36.8843 4.1278C36.8961 4.16131 36.9063 4.19481 36.9164 4.22832C36.3616 4.00175 35.881 4.53149 35.9333 5.04049C35.8625 5.11229 35.79 5.1809 35.7124 5.24632C35.5286 5.40588 35.3313 5.55746 35.1458 5.725C34.9617 5.90375 34.8228 6.11966 34.7396 6.3565C34.6563 6.59334 34.6309 6.84496 34.6652 7.09244C34.7327 7.65728 35.0885 8.10565 35.3819 8.58273C35.709 9.11248 35.2217 9.91507 35.3279 10.5182C35.5842 11.9766 37.3093 12.701 38.6684 12.1346C38.9302 12.0015 39.1626 11.8223 39.353 11.6064C39.4458 11.4947 39.5351 11.3814 39.6211 11.265C39.6543 11.2222 39.6837 11.1768 39.7088 11.1293C40.2805 11.4325 40.7695 11.7676 41.4507 11.8011C42.5131 11.8505 43.5805 11.1628 43.4118 10.0491Z" fill="#111111"/>
<path d="M33.8308 32.1395C33.8308 32.1395 29.0216 34.5776 30.9069 34.8808C32.7921 35.1839 33.674 33.9537 33.9607 33.6473C33.9607 33.6473 34.5627 34.2138 34.6183 33.7207C34.6183 33.7223 34.566 31.747 33.8308 32.1395Z" fill="#111111" stroke="#111111" stroke-width="0.5" stroke-miterlimit="10"/>
<path d="M34.2684 32.1536C34.4168 32.4137 34.0695 32.9275 33.4928 33.3009C32.9161 33.6742 32.3293 33.7652 32.1809 33.5035C32.0325 33.2418 32.3782 32.7296 32.9549 32.3563C33.5316 31.9829 34.1201 31.8935 34.2684 32.1536Z" fill="#FABA93"/>
<path d="M35.6519 7.27246H34.2051V9.63556H35.6519V7.27246Z" fill="#FABA93"/>
<g style="mix-blend-mode:multiply">
<path d="M34.2051 8.04154C34.4049 8.20814 34.6621 8.30005 34.9285 8.30005C35.1948 8.30005 35.452 8.20814 35.6519 8.04154V7.27246H34.2051V8.04154Z" fill="#FCBA93"/>
</g>
<path d="M37.3757 2.88954C37.2763 1.86197 35.6456 1.41361 34.8059 1.41999C33.8768 1.41999 32.5918 1.83006 32.489 2.89114C32.4245 3.5275 32.3952 4.16661 32.4013 4.80587C32.4013 5.38348 32.3642 6.04406 32.5581 6.59933C33.1466 8.29067 36.6051 8.24759 37.2796 6.65039C37.5022 6.12224 37.4482 5.46007 37.4482 4.89522C37.4641 4.2259 37.4399 3.55627 37.3757 2.88954Z" fill="#FABA93"/>
<path d="M37.2506 5.6708C37.2985 5.76088 37.3703 5.83765 37.459 5.89359C37.5477 5.94953 37.6502 5.98272 37.7565 5.98992C37.8429 5.9918 37.9286 5.97561 38.0076 5.94252C38.0866 5.90942 38.1569 5.86022 38.2135 5.79845C38.4546 5.50805 38.5356 5.0517 38.259 4.75332C38.1979 4.6858 38.1186 4.63528 38.0294 4.60717C37.9403 4.57906 37.8448 4.57443 37.7531 4.59376C37.7387 4.59758 37.7246 4.60238 37.711 4.60812C37.6464 4.61414 37.584 4.63338 37.5281 4.66452C37.4722 4.69565 37.4241 4.73794 37.3872 4.78843C37.4563 4.70067 37.453 4.70386 37.3754 4.7996C37.3585 4.83151 37.3451 4.86502 37.3316 4.89852L37.3535 4.83789C37.3477 4.85496 37.3404 4.87152 37.3316 4.88735C37.2918 4.95605 37.2563 5.02691 37.2253 5.09957C37.1849 5.19068 37.1662 5.28912 37.1705 5.38786C37.1749 5.4866 37.2023 5.58321 37.2506 5.6708Z" fill="#FABA93"/>
<path d="M33.7163 4.44748C33.9726 4.57991 34.2626 4.7666 34.3537 5.05062C34.4447 5.33464 34.2609 5.55802 34.0164 5.68886C33.9945 5.70143 33.9775 5.72029 33.9678 5.74269C33.9581 5.76509 33.9562 5.78984 33.9625 5.81332C33.9844 5.88446 34.0229 5.95005 34.0751 6.00528C34.1274 6.0605 34.192 6.10395 34.2643 6.13244C34.3354 6.15598 34.4123 6.1593 34.4854 6.14201C34.5585 6.12471 34.6247 6.08755 34.6757 6.03511C34.689 6.02488 34.6993 6.01159 34.7056 5.99651C34.7118 5.98143 34.7139 5.96507 34.7115 5.94903C34.7091 5.93298 34.7024 5.91779 34.692 5.90492C34.6816 5.89204 34.6679 5.88193 34.6521 5.87555C34.5897 5.85161 34.5004 5.89948 34.4363 5.91384C34.3014 5.94256 34.2272 5.83566 34.1766 5.73194L34.1345 5.88193C34.4363 5.68886 34.6656 5.38091 34.5459 5.02349C34.4801 4.86057 34.3721 4.71589 34.2319 4.60271C34.0917 4.48952 33.9236 4.41146 33.7432 4.37568C33.7338 4.37401 33.724 4.37545 33.7155 4.37976C33.7071 4.38407 33.7004 4.39099 33.6967 4.39937C33.6929 4.40776 33.6923 4.4171 33.695 4.42585C33.6976 4.4346 33.7033 4.44223 33.7112 4.44748H33.7163Z" fill="#F48364"/>
<path d="M37.8219 1.84096C37.0007 0.883597 34.903 0.484695 33.8238 1.27612C33.7167 1.35051 33.6317 1.4499 33.5773 1.56461C33.5228 1.67931 33.5007 1.80541 33.5131 1.93061C33.5255 2.05581 33.572 2.17583 33.648 2.27896C33.724 2.3821 33.827 2.46483 33.9469 2.51909C34.2369 2.65951 34.9941 2.64196 35.1273 2.93236C35.2605 3.22276 35.3111 3.41104 35.5961 3.62166C35.8153 3.78122 36.1475 3.76526 36.4038 3.77165C36.7646 3.78122 36.741 4.33011 36.8371 4.56945C36.8749 4.65682 36.9321 4.73549 37.0048 4.80014C37.0775 4.86479 37.164 4.91391 37.2585 4.94417C37.353 4.97443 37.4532 4.98512 37.5525 4.97553C37.6517 4.96594 37.7476 4.93628 37.8337 4.88857C38.6499 4.40989 38.4526 3.25467 38.2148 2.53346C38.1321 2.28089 37.9987 2.04577 37.8219 1.84096Z" fill="#111111"/>
<path d="M32.8599 3.8558C32.8923 3.80961 32.9384 3.77356 32.9924 3.75225C33.0465 3.73094 33.106 3.72533 33.1634 3.73613C33.2899 3.73613 33.3911 3.83506 33.5192 3.83346C33.5427 3.83327 33.5659 3.82798 33.5869 3.81799C33.6078 3.80801 33.6261 3.7936 33.6403 3.77587C33.6545 3.75814 33.6642 3.73757 33.6686 3.71574C33.6731 3.69391 33.6721 3.67141 33.6659 3.64996C33.6154 3.43137 33.2899 3.37712 33.0926 3.39467C32.9833 3.40206 32.8788 3.4404 32.7928 3.50471C32.7068 3.56902 32.6432 3.65632 32.6104 3.75527C32.6038 3.78491 32.6083 3.81577 32.6231 3.8426C32.6379 3.86944 32.6621 3.89059 32.6915 3.90244C32.721 3.9143 32.7538 3.91613 32.7845 3.90763C32.8153 3.89912 32.8419 3.8808 32.8599 3.8558Z" fill="#111111"/>
<path d="M36.0685 3.8558C36.0363 3.80945 35.9902 3.77328 35.9361 3.75195C35.882 3.73062 35.8224 3.72511 35.765 3.73613C35.6385 3.73613 35.5373 3.83506 35.4109 3.83346C35.3872 3.83344 35.3638 3.8283 35.3426 3.81843C35.3214 3.80856 35.3028 3.79422 35.2883 3.77651C35.2738 3.7588 35.2638 3.73819 35.259 3.71626C35.2543 3.69432 35.2549 3.67165 35.2608 3.64996C35.3114 3.43137 35.6368 3.37712 35.8341 3.39467C35.9435 3.40206 36.0479 3.4404 36.1339 3.50471C36.2199 3.56902 36.2835 3.65632 36.3164 3.75528C36.367 3.89728 36.1478 3.97866 36.0668 3.8558H36.0685Z" fill="#111111"/>
<path d="M34.8603 5.01797C34.7762 4.92528 34.6653 4.85791 34.5412 4.82416C34.4172 4.79042 34.2854 4.79179 34.1622 4.82809C34.0473 4.86442 33.942 4.92374 33.8536 5.00201L33.7305 4.88873C33.8382 4.79044 33.9678 4.71628 34.1099 4.67172C34.2626 4.62557 34.4263 4.62258 34.5809 4.66311C34.7354 4.70363 34.8741 4.78592 34.98 4.8999L34.8603 5.01797Z" fill="white"/>
<path d="M34.0786 5.01086C34.0786 5.62039 33.6183 6.11821 33.0551 6.11821C32.4919 6.11821 32.0332 5.62517 32.0332 5.01565C32.0332 4.40613 32.4902 3.91309 33.0551 3.91309C33.62 3.91309 34.0786 4.40294 34.0786 5.01086Z" fill="white"/>
<path d="M33.8612 5.00997C33.8612 5.48865 33.502 5.87638 33.0585 5.87638C32.615 5.87638 32.2559 5.48865 32.2559 5.00997C32.2559 4.53129 32.615 4.14355 33.0585 4.14355C33.502 4.14355 33.8612 4.53129 33.8612 5.00997Z" fill="#3F1C25"/>
<path d="M32.5558 4.94622C32.5307 5.0215 32.5233 5.10105 32.5341 5.17932C32.5449 5.25758 32.5736 5.33268 32.6182 5.39937C32.6738 5.49032 32.8914 5.68339 32.9875 5.52702C32.9917 5.51881 32.9938 5.50981 32.9938 5.5007C32.9938 5.49158 32.9917 5.48258 32.9875 5.47437C32.9609 5.44079 32.9246 5.41528 32.8829 5.40097C32.8353 5.37297 32.7955 5.33469 32.7666 5.28928C32.696 5.19666 32.6603 5.08426 32.6654 4.97016C32.6674 4.9571 32.6643 4.94381 32.6566 4.93276C32.649 4.92172 32.6374 4.91369 32.6239 4.91017C32.6105 4.90665 32.5962 4.90788 32.5836 4.91364C32.5711 4.91939 32.5612 4.92927 32.5558 4.94143V4.94622Z" fill="white"/>
<path d="M36.7335 5.01086C36.7335 5.62039 36.2714 6.11821 35.7116 6.11821C35.1518 6.11821 34.6914 5.62517 34.6914 5.01565C34.6914 4.40613 35.1484 3.91309 35.7116 3.91309C36.2748 3.91309 36.7335 4.40294 36.7335 5.01086Z" fill="white"/>
<path d="M36.5155 5.00997C36.5155 5.48865 36.1563 5.87638 35.7128 5.87638C35.2693 5.87638 34.9102 5.48865 34.9102 5.00997C34.9102 4.53129 35.2693 4.14355 35.7128 4.14355C36.1563 4.14355 36.5155 4.53129 36.5155 5.00997Z" fill="#3F1C25"/>
<path d="M35.2095 4.9454C35.1847 5.02079 35.1776 5.1004 35.1887 5.17867C35.1997 5.25694 35.2287 5.33198 35.2736 5.39855C35.3276 5.4895 35.5468 5.68257 35.6412 5.5262C35.6461 5.51819 35.6487 5.50911 35.6487 5.49987C35.6487 5.49063 35.6461 5.48155 35.6412 5.47354C35.6152 5.44008 35.5795 5.41456 35.5384 5.40014C35.49 5.37304 35.4499 5.33456 35.422 5.28845C35.3505 5.19623 35.3148 5.08354 35.3208 4.96933C35.3228 4.96241 35.3234 4.9552 35.3224 4.94809C35.3214 4.94098 35.319 4.93411 35.3153 4.92789C35.3115 4.92167 35.3065 4.91621 35.3005 4.91182C35.2945 4.90743 35.2877 4.9042 35.2804 4.90231C35.273 4.90043 35.2654 4.89992 35.2579 4.90083C35.2504 4.90173 35.2431 4.90403 35.2366 4.90758C35.23 4.91114 35.2242 4.91588 35.2196 4.92155C35.2149 4.92722 35.2115 4.93369 35.2095 4.94061V4.9454Z" fill="white"/>
<path d="M35.5021 6.37305C35.5021 6.60834 35.4033 6.83399 35.2275 7.00036C35.0516 7.16674 34.8132 7.2602 34.5645 7.2602C34.3159 7.2602 34.0774 7.16674 33.9016 7.00036C33.7257 6.83399 33.627 6.60834 33.627 6.37305H35.5021Z" fill="#3F1C25"/>
<mask id="mask2_0_1" style="mask-type:luminance" maskUnits="userSpaceOnUse" x="33" y="6" width="3" height="2">
<path d="M35.504 6.37305C35.504 6.60834 35.4052 6.83399 35.2294 7.00036C35.0536 7.16674 34.8151 7.2602 34.5665 7.2602C34.3178 7.2602 34.0793 7.16674 33.9035 7.00036C33.7277 6.83399 33.6289 6.60834 33.6289 6.37305H35.504Z" fill="white"/>
</mask>
<g mask="url(#mask2_0_1)">
<path d="M33.9045 6.62338H36.5182V5.92451L33.6094 5.84473L33.9045 6.62338Z" fill="white"/>
</g>
<path d="M35.0602 8.86334C33.3739 8.88089 31.8563 9.84464 30.541 10.7493C29.0031 11.804 27.2815 13.2178 26.349 14.807C25.8228 15.7021 27.2494 16.5621 27.7772 15.6542C28.5495 14.3395 29.9575 13.1922 31.1919 12.2684C32.2036 11.512 33.6707 10.4733 35.0079 10.4589C36.0922 10.4478 36.1512 8.85217 35.0602 8.86334Z" fill="#FABA93"/>
<path d="M36.5735 10.7652C37.7168 11.4593 38.3306 13.0629 38.7926 14.2165C39.344 15.592 39.8701 17.3184 39.7875 18.7991C39.7302 19.8283 41.4164 19.8219 41.4738 18.7991C41.5749 16.9833 40.9072 14.9218 40.1973 13.256C39.5868 11.8199 38.8483 10.2467 37.4234 9.38824C36.506 8.82978 35.6612 10.2116 36.5802 10.7652H36.5735Z" fill="#FABA93"/>
<path d="M34.6649 19.5222C34.159 19.6817 33.8588 20.1843 33.8437 20.7891H33.8184L34.7846 23.6612L34.8352 23.6356L38.3763 32.4897C39.1773 32.8088 39.7793 32.1019 39.7793 32.1019L36.4894 21.2518C36.5147 20.9885 36.567 21.022 36.4692 20.7364C36.1673 19.8588 35.3596 19.3131 34.6649 19.5222Z" fill="#FABA93"/>
<path d="M39.1881 31.4881C39.1881 31.4881 35.3772 35.1979 37.2844 34.9442C39.1915 34.6905 39.6232 33.2656 39.8003 32.8922C39.8003 32.8922 40.554 33.2592 40.4478 32.7725C40.4427 32.7725 39.7632 30.9073 39.1881 31.4881Z" fill="#111111" stroke="#111111" stroke-width="0.5" stroke-miterlimit="10"/>
<path d="M39.6065 31.3807C39.8324 31.5865 39.6672 32.1785 39.2372 32.6954C38.8072 33.2124 38.276 33.4709 38.0568 33.2667C37.8376 33.0624 37.9978 32.4689 38.4278 31.9503C38.8578 31.4317 39.3822 31.17 39.6065 31.3807Z" fill="#FABA93"/>
<path d="M38.4633 19.2658V25.5397H31.4434V18.7903C31.4434 17.5952 32.8278 15.599 34.7771 15.599C34.7771 15.599 38.5745 15.4156 38.4633 19.2658Z" fill="#DC7DE2"/>
<path d="M22.7832 14.6506L25.3126 13.2992C25.3541 13.2767 25.3998 13.2623 25.4473 13.2566C25.4947 13.2509 25.5428 13.2542 25.5889 13.2662C25.635 13.2782 25.6781 13.2988 25.7157 13.3266C25.7534 13.3544 25.7849 13.389 25.8084 13.4284L27.6582 16.4984C27.6822 16.5377 27.6977 16.5811 27.7038 16.6262C27.7099 16.6712 27.7065 16.7169 27.6938 16.7607C27.6811 16.8045 27.6593 16.8455 27.6298 16.8812C27.6002 16.917 27.5634 16.9468 27.5216 16.9691L24.9922 18.3301L22.7832 14.6506Z" fill="#211C3F"/>
<path d="M25.6277 16.0272C25.6153 15.9957 25.6 15.9653 25.5821 15.9362C25.565 15.9074 25.5458 15.8797 25.5248 15.8533C25.5189 15.8438 25.5115 15.8352 25.5029 15.8277C25.4035 15.717 25.2713 15.6371 25.1233 15.5985C24.9754 15.5598 24.8186 15.564 24.6732 15.6107C24.662 15.6128 24.6512 15.6165 24.6412 15.6219C24.6089 15.6346 24.5774 15.649 24.5468 15.665C24.5158 15.6819 24.486 15.7006 24.4574 15.7208C24.4473 15.7263 24.4382 15.7333 24.4304 15.7416C24.3132 15.8355 24.2287 15.9606 24.1878 16.1006C24.1469 16.2406 24.1515 16.3891 24.2011 16.5266C24.2035 16.5372 24.2075 16.5474 24.2129 16.5569C24.2259 16.5884 24.2417 16.6189 24.2601 16.6479C24.2772 16.6767 24.2964 16.7044 24.3174 16.7308C24.3229 16.7402 24.3303 16.7484 24.3394 16.7548C24.439 16.865 24.5715 16.9442 24.7196 16.9821C24.8676 17.0199 25.0242 17.0147 25.169 16.967C25.1804 16.9654 25.1913 16.9616 25.201 16.9558C25.2336 16.9437 25.2652 16.9293 25.2955 16.9127C25.3266 16.8969 25.356 16.8782 25.3831 16.8569C25.3927 16.8513 25.4012 16.8443 25.4084 16.8362C25.5258 16.7424 25.6105 16.6173 25.6514 16.4772C25.6924 16.3371 25.6876 16.1886 25.6378 16.0511C25.6362 16.0405 25.6328 16.0303 25.6277 16.0208V16.0272ZM25.2752 16.8473L25.1066 16.5729C25.1774 16.533 25.2482 16.4899 25.314 16.4452C25.3631 16.5482 25.3839 16.6613 25.3747 16.7739C25.3444 16.8016 25.311 16.8262 25.2752 16.8473ZM25.1235 16.9127C25.0149 16.8633 24.9223 16.7873 24.8554 16.6925C24.9229 16.6663 24.9887 16.6365 25.0526 16.6032L25.2213 16.8776C25.1859 16.8904 25.1538 16.9032 25.1235 16.9127ZM24.3377 16.6351L24.6294 16.4755C24.6687 16.5407 24.7121 16.6035 24.7592 16.6638C24.6498 16.7103 24.5298 16.7301 24.4102 16.7213C24.3843 16.6939 24.3601 16.6651 24.3377 16.6351ZM24.2652 16.4755C24.3181 16.3742 24.3976 16.2874 24.4962 16.2234C24.5256 16.29 24.5588 16.355 24.5957 16.4181L24.3023 16.5793C24.2869 16.5501 24.2745 16.5197 24.2652 16.4883V16.4755ZM24.5417 15.7432L24.7103 16.0176C24.6479 16.0527 24.5855 16.0926 24.5282 16.1325C24.4796 16.0311 24.4598 15.9194 24.4709 15.8086C24.4932 15.7875 24.5168 15.7678 24.5417 15.7495V15.7432ZM24.7188 15.665C24.8265 15.7149 24.9188 15.7902 24.9869 15.8836C24.9106 15.9134 24.8363 15.9475 24.7643 15.9857L24.5957 15.7112C24.6352 15.6942 24.6764 15.6808 24.7188 15.6714V15.665ZM25.4978 15.9346L25.2078 16.0942C25.1695 16.0321 25.1279 15.9719 25.083 15.9139C25.1914 15.8659 25.3112 15.8461 25.4304 15.8564C25.4557 15.8825 25.4783 15.9108 25.4978 15.941V15.9346ZM25.1606 16.1181L24.9245 16.2458L24.7997 16.0368C24.8741 15.9973 24.9506 15.9616 25.029 15.9298C25.0748 15.9926 25.117 16.0575 25.1555 16.1245L25.1606 16.1181ZM24.7407 16.0671L24.8655 16.2761L24.653 16.3894C24.6154 16.3236 24.5816 16.256 24.5518 16.1867C24.6007 16.1548 24.6648 16.1149 24.7356 16.0735L24.7407 16.0671ZM24.6867 16.4452L24.8992 16.3303L25.0273 16.5473C24.9607 16.5818 24.892 16.6127 24.8216 16.6399C24.7715 16.5795 24.7248 16.5167 24.6817 16.4516L24.6867 16.4452ZM25.0864 16.5154L24.9565 16.3L25.1943 16.1724C25.237 16.2468 25.2724 16.317 25.3005 16.383C25.2313 16.4344 25.158 16.4808 25.0813 16.5218L25.0864 16.5154ZM25.255 16.1453L25.545 15.9857C25.5637 16.0194 25.5789 16.0546 25.5906 16.091C25.5374 16.1926 25.4579 16.2799 25.3595 16.3447C25.3241 16.2783 25.2847 16.2138 25.2415 16.1516L25.255 16.1453ZM25.3764 15.7878C25.2668 15.7967 25.1593 15.8214 25.0577 15.8612C24.9874 15.7784 24.9031 15.7072 24.8081 15.6506C24.9061 15.6357 25.0063 15.6408 25.102 15.6655C25.1977 15.6903 25.2866 15.7342 25.3629 15.7942L25.3764 15.7878ZM24.4102 15.8676C24.4133 15.9706 24.4338 16.0724 24.4709 16.1692C24.3823 16.2303 24.3049 16.3047 24.2416 16.3894C24.2264 16.298 24.2324 16.2045 24.2592 16.1155C24.286 16.0265 24.3329 15.9441 24.3967 15.874L24.4102 15.8676ZM24.4928 16.7819C24.6019 16.7732 24.7088 16.7484 24.8098 16.7085C24.8751 16.7923 24.9542 16.8656 25.0442 16.9255C24.9452 16.9433 24.8432 16.9402 24.7456 16.9165C24.648 16.8928 24.557 16.849 24.4793 16.7883L24.4928 16.7819ZM25.459 16.7037C25.4505 16.5999 25.4243 16.4981 25.3815 16.4021C25.4704 16.3409 25.5484 16.2666 25.6125 16.182C25.6266 16.2762 25.619 16.3722 25.5902 16.4633C25.5614 16.5545 25.512 16.6387 25.4455 16.7101L25.459 16.7037Z" fill="white"/>
<path d="M26.6702 15.4691C26.6567 15.438 26.6415 15.4076 26.6247 15.3781C26.6074 15.349 26.5876 15.3213 26.5656 15.2951C26.5603 15.2857 26.5528 15.2775 26.5437 15.2712C26.4448 15.1605 26.3128 15.0805 26.1651 15.0418C26.0174 15.0031 25.8608 15.0074 25.7158 15.0542C25.7038 15.0555 25.6923 15.0593 25.682 15.0654C25.6492 15.0781 25.6171 15.0925 25.5859 15.1084C25.5554 15.1252 25.5261 15.1439 25.4982 15.1643C25.4875 15.1695 25.4782 15.1772 25.4713 15.1866C25.3542 15.2803 25.2697 15.4051 25.2288 15.5449C25.1879 15.6846 25.1925 15.8328 25.2419 15.9701C25.2433 15.9809 25.2474 15.9913 25.2537 16.0004C25.2672 16.0314 25.2824 16.0618 25.2993 16.0913C25.317 16.1202 25.3367 16.1479 25.3583 16.1743C25.3643 16.1842 25.3723 16.1929 25.3819 16.1998C25.4808 16.3106 25.6128 16.3905 25.7605 16.4292C25.9082 16.468 26.0648 16.4636 26.2098 16.4168C26.2218 16.4153 26.2332 16.4115 26.2436 16.4057C26.2762 16.3929 26.3082 16.3785 26.3397 16.3626C26.3702 16.3458 26.3995 16.3272 26.4274 16.3067C26.4381 16.3022 26.4474 16.295 26.4544 16.286C26.5714 16.1924 26.6559 16.0675 26.6968 15.9278C26.7377 15.788 26.7331 15.6398 26.6837 15.5026C26.6821 15.4913 26.678 15.4804 26.6719 15.4706L26.6702 15.4691ZM26.3228 16.2892L26.1542 16.0116C26.2264 15.9737 26.2957 15.931 26.3616 15.8839C26.4126 15.9869 26.4335 16.101 26.4223 16.2142C26.3917 16.2421 26.3584 16.2672 26.3228 16.2892ZM26.1694 16.353C26.062 16.3027 25.9697 16.2275 25.9013 16.1344C25.9693 16.1082 26.0358 16.0784 26.1002 16.0451L26.2689 16.3179C26.2351 16.3324 26.2002 16.3442 26.1643 16.353H26.1694ZM25.3853 16.077L25.6753 15.9174C25.7156 15.9829 25.7595 16.0462 25.8068 16.1073C25.6976 16.1543 25.5773 16.1735 25.4578 16.1631C25.4293 16.1367 25.4033 16.1078 25.3802 16.077H25.3853ZM25.3128 15.9174C25.3657 15.8161 25.4452 15.7293 25.5438 15.6653C25.5724 15.7291 25.6062 15.7962 25.6433 15.86L25.3532 16.0195C25.3361 15.9889 25.322 15.9569 25.3111 15.9238L25.3128 15.9174ZM25.5893 15.185L25.7579 15.4595C25.6944 15.4937 25.6336 15.5321 25.5758 15.5744C25.5257 15.4711 25.5042 15.3574 25.5134 15.2441C25.5359 15.2252 25.5595 15.2076 25.5842 15.1914L25.5893 15.185ZM25.7664 15.1068C25.8735 15.1569 25.9652 15.2322 26.0328 15.3254C25.9565 15.3553 25.8822 15.3894 25.8102 15.4276L25.6416 15.1531C25.6799 15.136 25.72 15.1226 25.7613 15.1132L25.7664 15.1068ZM26.5454 15.3765L26.2554 15.5361C26.2166 15.4738 26.1727 15.4116 26.1306 15.3558C26.2391 15.3083 26.3587 15.2879 26.478 15.2967C26.5006 15.3242 26.5215 15.353 26.5404 15.3829L26.5454 15.3765ZM26.2082 15.56L25.9603 15.6924L25.8355 15.485C25.9181 15.4419 25.9957 15.4068 26.0665 15.3781C26.1142 15.4384 26.1581 15.5012 26.198 15.5664L26.2082 15.56ZM25.7883 15.5089L25.9131 15.718L25.7006 15.8313C25.6601 15.7595 25.6247 15.6908 25.5977 15.6286C25.6559 15.5881 25.7161 15.5503 25.7782 15.5153L25.7883 15.5089ZM25.7343 15.8871L25.9451 15.7722L26.0749 15.9892C26.0024 16.0259 25.9333 16.0562 25.8692 16.0818C25.8172 16.0216 25.7688 15.9588 25.7242 15.8935L25.7343 15.8871ZM26.134 15.9573L26.0041 15.7419L26.2402 15.6143C26.2803 15.6825 26.3163 15.7528 26.3481 15.8249C26.2765 15.8755 26.2016 15.9219 26.1238 15.9637L26.134 15.9573ZM26.2942 15.5855L26.5825 15.426C26.6011 15.4597 26.6164 15.4949 26.628 15.5313C26.5751 15.6326 26.4956 15.7194 26.397 15.7834C26.3565 15.7275 26.3228 15.6589 26.284 15.5919L26.2942 15.5855ZM26.4156 15.2297C26.3059 15.2384 26.1984 15.2631 26.0969 15.3031C26.0312 15.2201 25.9528 15.147 25.8642 15.0861C25.9605 15.0736 26.0585 15.0805 26.1518 15.1063C26.245 15.1322 26.3315 15.1764 26.4055 15.2361L26.4156 15.2297ZM25.4477 15.3079C25.4568 15.4116 25.483 15.5134 25.5252 15.6095C25.4367 15.6712 25.3592 15.7461 25.2959 15.8313C25.2797 15.7405 25.284 15.6475 25.3084 15.5585C25.3328 15.4694 25.3768 15.3862 25.4375 15.3143L25.4477 15.3079ZM25.5303 16.2238C25.6399 16.2151 25.7474 16.1904 25.849 16.1504C25.9146 16.2334 25.993 16.3065 26.0817 16.3674C25.9832 16.3845 25.8819 16.381 25.7849 16.3573C25.688 16.3336 25.5976 16.2902 25.5202 16.2302L25.5303 16.2238ZM26.4914 16.152C26.4811 16.0486 26.4537 15.9474 26.4105 15.852C26.4991 15.7908 26.5765 15.7165 26.6398 15.6318C26.6557 15.7235 26.6506 15.8173 26.625 15.9071C26.5994 15.9968 26.5539 16.0803 26.4914 16.152Z" fill="white"/>
<path d="M25.9716 14.9498C26.1451 14.9395 26.3135 14.8897 26.4623 14.8046C26.5364 14.7724 26.6124 14.7442 26.6899 14.7201C26.7742 14.6929 26.8585 14.7025 26.9479 14.6802C26.9912 14.6695 27.0302 14.6473 27.0604 14.6161C27.0906 14.5849 27.1105 14.5461 27.1178 14.5044C27.1251 14.4626 27.1195 14.4198 27.1016 14.3811C27.0837 14.3423 27.0544 14.3093 27.0171 14.286C26.84 14.1568 26.555 14.2446 26.378 14.3323C26.1883 14.4178 26.0132 14.5296 25.8586 14.6642C25.83 14.685 25.8093 14.714 25.7994 14.7468C25.7895 14.7796 25.791 14.8145 25.8037 14.8465C25.8163 14.8784 25.8394 14.9057 25.8696 14.9243C25.8999 14.9429 25.9356 14.9518 25.9716 14.9498Z" fill="#FABA93"/>
<mask id="mask3_0_1" style="mask-type:luminance" maskUnits="userSpaceOnUse" x="31" y="8" width="8" height="9">
<path d="M37.8352 10.346C37.6531 9.94709 37.4609 9.65509 37.1607 9.48915C36.4694 9.09822 35.7207 8.96419 35.0006 8.77591C34.9446 8.77001 34.8881 8.77001 34.832 8.77591C34.112 8.96419 33.3633 9.09503 32.6719 9.48915C32.3768 9.64871 32.1846 9.94709 31.9974 10.346C31.8499 10.65 31.7488 10.9724 31.6973 11.3034L31.9384 16.5928L38.1641 16.5242L38.1354 11.297C38.0832 10.9682 37.9822 10.648 37.8352 10.346Z" fill="white"/>
</mask>
<g mask="url(#mask3_0_1)">
<path d="M37.8333 10.346C37.6512 9.94709 37.4589 9.65509 37.1588 9.48915C36.4674 9.09822 35.7187 8.96419 34.9987 8.77591C34.9427 8.77001 34.8861 8.77001 34.8301 8.77591C34.11 8.96419 33.3613 9.09503 32.67 9.48915C32.3749 9.64871 32.1826 9.94709 31.9955 10.346C31.8479 10.65 31.7469 10.9724 31.6953 11.3034L31.9364 16.5928L38.1621 16.5242L38.1334 11.297C38.0813 10.9682 37.9802 10.648 37.8333 10.346Z" fill="#056B6B"/>
<path d="M40.8684 10.346C40.6863 9.94709 40.494 9.65509 40.1939 9.48915C39.5025 9.09822 38.7538 8.96419 38.0338 8.77591C37.9777 8.77001 37.9212 8.77001 37.8651 8.77591C37.1451 8.96419 36.3964 9.09503 35.705 9.48915C35.4099 9.64871 35.2177 9.94709 35.0305 10.346C34.9041 10.622 34.9209 12.2607 34.8737 12.6086L31.6445 16.9821L41.2006 16.5178L41.1685 11.297C41.1163 10.9682 41.0153 10.648 40.8684 10.346Z" fill="#056B6B"/>
<mask id="mask4_0_1" style="mask-type:luminance" maskUnits="userSpaceOnUse" x="31" y="8" width="8" height="9">
<path d="M37.8313 10.3479C37.6492 9.94904 37.457 9.65704 37.1568 9.4911C36.4655 9.10018 35.7168 8.96615 34.9967 8.77786C34.9407 8.77196 34.8842 8.77196 34.8281 8.77786C34.1081 8.96615 33.3594 9.09699 32.668 9.4911C32.3729 9.65066 32.1807 9.94904 31.9935 10.3479C31.846 10.652 31.7449 10.9743 31.6934 11.3053L31.9345 16.5947L38.1602 16.5261L38.1315 11.2989C38.0793 10.9701 37.9783 10.65 37.8313 10.3479Z" fill="white"/>
</mask>
<g mask="url(#mask4_0_1)">
<path d="M33.0195 8.27051L34.8609 12.6313L36.7023 8.27051H33.0195Z" fill="#FABA93"/>
<path d="M29.5645 8.66992L31.4058 13.0307L33.2472 8.66992H29.5645Z" fill="#FABA93"/>
<path d="M36.4805 8.66992L38.3219 13.0307L40.1633 8.66992H36.4805Z" fill="#FABA93"/>
</g>
</g>
</svg>
