<svg width="13" height="16" viewBox="0 0 13 16" fill="none" xmlns="http://www.w3.org/2000/svg">
<mask id="mask0_590_6095" style="mask-type:luminance" maskUnits="userSpaceOnUse" x="0" y="0" width="13" height="16">
<path d="M12.1988 3.62078C11.8575 2.83805 11.4972 2.26508 10.9347 1.93947C9.63897 1.17239 8.23579 0.909386 6.88634 0.539935C6.78132 0.528355 6.67533 0.528355 6.57031 0.539935C5.22086 0.909386 3.81769 1.16612 2.52197 1.93947C1.96891 2.25256 1.60864 2.83805 1.25785 3.62078C0.981335 4.21736 0.791925 4.84989 0.695312 5.49935L1.14724 15.8784L12.8151 15.7438L12.7613 5.48682C12.6636 4.84165 12.4742 4.21341 12.1988 3.62078Z" fill="white"/>
</mask>
<g mask="url(#mask0_590_6095)">
<path d="M12.1969 3.62078C11.8555 2.83805 11.4953 2.26508 10.9327 1.93947C9.63701 1.17239 8.23384 0.909386 6.88439 0.539935C6.77937 0.528355 6.67338 0.528355 6.56836 0.539935C5.21891 0.909386 3.81574 1.16612 2.52001 1.93947C1.96696 2.25256 1.60669 2.83805 1.25589 3.62078C0.979382 4.21736 0.789972 4.84989 0.693359 5.49935L1.14528 15.8784L12.8131 15.7438L12.7594 5.48682C12.6616 4.84165 12.4722 4.21341 12.1969 3.62078Z" fill="#056B6B"/>
<path d="M17.8845 3.62078C17.5432 2.83805 17.1829 2.26508 16.6204 1.93947C15.3247 1.17239 13.9215 0.909386 12.572 0.539935C12.467 0.528355 12.361 0.528355 12.256 0.539935C10.9066 0.909386 9.50338 1.16612 8.20766 1.93947C7.65461 2.25256 7.29433 2.83805 6.94354 3.62078C6.70652 4.16243 6.73812 7.37791 6.64963 8.06046L0.597656 16.6424L18.5071 15.7313L18.447 5.48682C18.3493 4.84165 18.1599 4.21341 17.8845 3.62078Z" fill="#056B6B"/>
<mask id="mask1_590_6095" style="mask-type:luminance" maskUnits="userSpaceOnUse" x="0" y="0" width="13" height="16">
<path d="M12.1949 3.62103C11.8536 2.83829 11.4933 2.26533 10.9308 1.93971C9.63506 1.17263 8.23189 0.90963 6.88244 0.540179C6.77742 0.528599 6.67143 0.528599 6.56641 0.540179C5.21696 0.90963 3.81378 1.16637 2.51806 1.93971C1.96501 2.2528 1.60473 2.83829 1.25394 3.62103C0.977428 4.21761 0.788019 4.85014 0.691406 5.49959L1.14333 15.8787L12.8112 15.744L12.7574 5.48707C12.6597 4.84189 12.4703 4.21365 12.1949 3.62103Z" fill="white"/>
</mask>
<g mask="url(#mask1_590_6095)">
<path d="M3.17578 -0.455811L6.62683 8.10105L10.0779 -0.455811H3.17578Z" fill="#FABA93"/>
<path d="M-3.30273 0.326904L0.148314 8.88377L3.59936 0.326904H-3.30273Z" fill="#FABA93"/>
<path d="M9.6543 0.326904L13.1053 8.88377L16.5564 0.326904H9.6543Z" fill="#FABA93"/>
</g>
</g>
</svg>
