<svg width="40" height="16" viewBox="0 0 40 16" fill="none" xmlns="http://www.w3.org/2000/svg">
<g clip-path="url(#clip0_2834_9816)">
<path d="M38.75 8.00003C38.75 9.79025 38.0388 11.5071 36.773 12.773C35.5071 14.0389 33.7902 14.75 32 14.75C30.2098 14.75 28.4929 14.0389 27.227 12.773C25.9612 11.5071 25.25 9.79025 25.25 8.00003C25.25 5.34113 26.7939 2.91666 29.1869 1.81849L38.75 8.00003ZM38.75 8.00003C38.75 5.34113 37.2061 2.91666 34.8131 1.81849L38.75 8.00003ZM29.8131 3.18161L29.8131 3.18158L34.813 1.81844C34.6323 1.73544 34.426 1.72762 34.2395 1.7967C34.0529 1.86579 33.9015 2.00616 33.8185 2.18692C33.7354 2.36767 33.7276 2.57402 33.7967 2.76055C33.8658 2.94709 34.0061 3.09854 34.1869 3.18158L34.1869 3.18161C36.0462 4.03523 37.25 5.92562 37.25 8.00003C37.25 9.39242 36.6969 10.7278 35.7123 11.7123C34.7277 12.6969 33.3924 13.25 32 13.25C30.6076 13.25 29.2723 12.6969 28.2877 11.7123C27.3031 10.7278 26.75 9.39242 26.75 8.00003C26.75 5.92562 27.9538 4.03523 29.8131 3.18161Z" fill="#707070" stroke="#707070" stroke-width="0.5"/>
<path d="M12.334 13.3334C12.0562 13.3334 11.8202 13.2361 11.626 13.0414C11.4313 12.8472 11.334 12.6112 11.334 12.3334V3.66675C11.334 3.38897 11.4313 3.15297 11.626 2.95875C11.8202 2.76408 12.0562 2.66675 12.334 2.66675C12.6118 2.66675 12.8478 2.76408 13.042 2.95875C13.2367 3.15297 13.334 3.38897 13.334 3.66675V12.3334C13.334 12.6112 13.2367 12.8472 13.042 13.0414C12.8478 13.2361 12.6118 13.3334 12.334 13.3334ZM4.33398 13.3334C4.20065 13.3334 4.07287 13.3083 3.95065 13.2581C3.82843 13.2083 3.72021 13.1361 3.62598 13.0414C3.53132 12.9472 3.4591 12.839 3.40932 12.7167C3.3591 12.5945 3.33398 12.4667 3.33398 12.3334V10.3334C3.33398 10.0556 3.43132 9.81964 3.62598 9.62541C3.82021 9.43075 4.05621 9.33342 4.33398 9.33342C4.61176 9.33342 4.84776 9.43075 5.04198 9.62541C5.23665 9.81964 5.33398 10.0556 5.33398 10.3334V12.3334C5.33398 12.4667 5.3091 12.5945 5.25932 12.7167C5.2091 12.839 5.13665 12.9472 5.04198 13.0414C4.94776 13.1361 4.83954 13.2083 4.71732 13.2581C4.5951 13.3083 4.46732 13.3334 4.33398 13.3334ZM8.33398 13.3334C8.05621 13.3334 7.82021 13.2361 7.62598 13.0414C7.43132 12.8472 7.33398 12.6112 7.33398 12.3334V7.00008C7.33398 6.7223 7.43132 6.4863 7.62598 6.29208C7.82021 6.09741 8.05621 6.00008 8.33398 6.00008C8.61176 6.00008 8.84776 6.09741 9.04198 6.29208C9.23665 6.4863 9.33398 6.7223 9.33398 7.00008V12.3334C9.33398 12.6112 9.23665 12.8472 9.04198 13.0414C8.84776 13.2361 8.61176 13.3334 8.33398 13.3334Z" fill="#707070"/>
</g>
<defs>
<clipPath id="clip0_2834_9816">
<rect width="40" height="16" fill="white"/>
</clipPath>
</defs>
</svg>
