<svg width="19" height="32" viewBox="0 0 19 32" fill="none" xmlns="http://www.w3.org/2000/svg">
<path d="M16.1972 29.8342C16.1171 30.0641 15.97 30.2653 15.7745 30.4125C15.5789 30.5596 15.3438 30.646 15.0987 30.6608C14.8536 30.6756 14.6096 30.6181 14.3975 30.4955C14.1854 30.3729 14.0148 30.1909 13.9071 29.9722C13.7994 29.7536 13.7595 29.5083 13.7925 29.2673C13.8255 29.0262 13.9299 28.8003 14.0924 28.618C14.255 28.4357 14.4685 28.3052 14.7058 28.243C14.9432 28.1808 15.1939 28.1898 15.4261 28.2687C15.5806 28.3212 15.7231 28.4033 15.8455 28.5105C15.9679 28.6176 16.0678 28.7476 16.1394 28.893C16.2111 29.0384 16.253 29.1964 16.263 29.3579C16.2729 29.5194 16.2505 29.6812 16.1972 29.8342Z" fill="#111111"/>
<path d="M5.67104 11.8807L4.85569 12.1938L1.19922 2.76964L2.01457 2.45654L5.67104 11.8807Z" fill="#111111"/>
<path d="M8.1144 10.9412L7.29905 11.2543L3.64258 1.83018L4.45794 1.51709L8.1144 10.9412Z" fill="#111111"/>
<path d="M4.61148 0.900172C4.67826 1.0258 4.69351 1.17211 4.65406 1.3086C4.61461 1.4451 4.52351 1.56124 4.39975 1.63281L1.31845 2.81631C1.1787 2.84576 1.03286 2.82048 0.911503 2.74577C0.790143 2.67107 0.702678 2.55273 0.667431 2.41555C0.59959 2.29046 0.583421 2.14416 0.622331 2.00748C0.661241 1.87081 0.752189 1.75444 0.876009 1.68291L3.9573 0.502544C4.09709 0.472078 4.24335 0.496486 4.36535 0.570639C4.48734 0.644791 4.57557 0.762912 4.61148 0.900172Z" fill="#111111"/>
<path d="M8.74812 28.0771C8.85765 28.3893 9.02847 28.6769 9.25073 28.9234C9.47298 29.1699 9.74228 29.3704 10.0431 29.5133C10.3439 29.6562 10.6703 29.7387 11.0035 29.756C11.3366 29.7734 11.67 29.7252 11.9843 29.6144L16.7721 27.9299C17.087 27.8211 17.377 27.6516 17.6254 27.4313C17.8739 27.211 18.0759 26.9441 18.2198 26.6461C18.3638 26.3481 18.4468 26.0249 18.4641 25.695C18.4814 25.3651 18.4327 25.035 18.3207 24.7238L13.2389 10.4311C13.1291 10.1192 12.958 9.83186 12.7356 9.58571C12.5132 9.33955 12.2439 9.13941 11.9431 8.99682C11.6423 8.85422 11.316 8.77198 10.983 8.75484C10.65 8.7377 10.3168 8.78599 10.0028 8.89693L5.2149 10.5657C4.90006 10.6745 4.61006 10.844 4.3616 11.0643C4.11313 11.2847 3.91112 11.5515 3.76718 11.8495C3.62325 12.1475 3.54024 12.4708 3.52294 12.8007C3.50563 13.1306 3.55437 13.4606 3.66635 13.7718L8.74812 28.0771Z" fill="#FDE723"/>
<path d="M6.0753 29.0698C6.18514 29.3817 6.35619 29.669 6.57858 29.9151C6.80098 30.1613 7.07032 30.3614 7.37111 30.504C7.67191 30.6466 7.9982 30.7289 8.33121 30.746C8.66421 30.7632 8.99735 30.7149 9.31144 30.6039L14.0993 28.9351C14.4141 28.8263 14.7041 28.6569 14.9526 28.4365C15.2011 28.2162 15.4031 27.9494 15.547 27.6514C15.6909 27.3534 15.774 27.0301 15.7913 26.7002C15.8086 26.3703 15.7598 26.0402 15.6478 25.7291L10.5661 11.4363C10.4566 11.1241 10.2857 10.8365 10.0635 10.59C9.84122 10.3435 9.57192 10.143 9.2711 10.0001C8.97027 9.85722 8.64387 9.77471 8.31071 9.75736C7.97755 9.74001 7.64422 9.78815 7.32993 9.89902L2.54208 11.5709C2.22687 11.6798 1.93653 11.8493 1.68781 12.0699C1.43908 12.2904 1.23691 12.5576 1.09294 12.8559C0.948978 13.1543 0.866071 13.4779 0.849008 13.8082C0.831946 14.1385 0.881065 14.4688 0.993531 14.7802L6.0753 29.0698Z" fill="#F4DE14"/>
<path d="M15.8832 24.0037C15.9441 24.2272 16.0912 24.4181 16.2928 24.5352C16.4943 24.6524 16.7343 24.6864 16.9609 24.6299L18.481 24.0977C18.6932 24.0013 18.8586 23.8261 18.9414 23.6099C19.0242 23.3937 19.0177 23.1539 18.9234 22.9424L17.0083 17.5634C16.9481 17.3401 16.8016 17.1493 16.6006 17.0321C16.3995 16.9149 16.16 16.8809 15.9338 16.9372L14.4137 17.4695C14.2009 17.5651 14.035 17.7403 13.9521 17.9568C13.8692 18.1732 13.8761 18.4133 13.9712 18.6248L15.8832 24.0037Z" fill="#FDA623"/>
<path d="M12.8978 15.6503C12.9587 15.8738 13.1058 16.0647 13.3073 16.1818C13.5089 16.2989 13.7488 16.3329 13.9754 16.2765L15.4955 15.7442C15.7078 15.6479 15.8732 15.4727 15.956 15.2565C16.0388 15.0403 16.0323 14.8004 15.938 14.5889L15.1511 12.5068C15.0902 12.2833 14.9431 12.0925 14.7415 11.9753C14.54 11.8582 14.3 11.8242 14.0734 11.8806L12.5533 12.4129C12.3411 12.5092 12.1757 12.6844 12.0929 12.9007C12.0101 13.1169 12.0166 13.3567 12.1109 13.5682L12.8978 15.6503Z" fill="#FDA623"/>
<path d="M13.3087 30.4346C13.3087 30.7442 13.2161 31.0469 13.0424 31.3043C12.8688 31.5618 12.622 31.7624 12.3333 31.8809C12.0446 31.9994 11.7268 32.0304 11.4203 31.97C11.1138 31.9096 10.8322 31.7605 10.6113 31.5416C10.3903 31.3226 10.2398 31.0437 10.1788 30.74C10.1178 30.4363 10.1491 30.1216 10.2687 29.8355C10.3883 29.5495 10.5908 29.305 10.8507 29.133C11.1106 28.961 11.4161 28.8691 11.7286 28.8691C12.1477 28.8691 12.5496 29.0341 12.8459 29.3277C13.1423 29.6212 13.3087 30.0194 13.3087 30.4346Z" fill="#111111"/>
<path d="M12.4638 30.4346C12.4651 30.5802 12.4227 30.723 12.342 30.8447C12.2613 30.9665 12.1459 31.0618 12.0105 31.1185C11.8751 31.1752 11.7257 31.1909 11.5813 31.1635C11.437 31.136 11.304 31.0668 11.1994 30.9644C11.0948 30.8621 11.0232 30.7313 10.9936 30.5886C10.9641 30.4459 10.978 30.2978 11.0335 30.1629C11.0891 30.0281 11.1838 29.9126 11.3056 29.831C11.4275 29.7495 11.571 29.7057 11.718 29.7051C11.9142 29.7051 12.1025 29.7816 12.2421 29.9182C12.3817 30.0547 12.4613 30.2403 12.4638 30.4346Z" fill="#F0F0F0"/>
<path d="M8.61151 20.6787L10.0526 24.7709C10.211 25.2217 10.1821 25.7165 9.97229 26.1463C9.76249 26.5761 9.38896 26.9057 8.93387 27.0627L6.64581 27.8517C6.19068 28.0086 5.69129 27.98 5.25747 27.7721C4.82364 27.5643 4.49092 27.1942 4.33247 26.7433L2.89453 22.6512L8.61151 20.6787Z" fill="#FDA623"/>
</svg>
