<svg width="68" height="67" viewBox="0 0 68 67" fill="none" xmlns="http://www.w3.org/2000/svg">
<path d="M12.7446 47.2065H10.8281V60.705H12.7446V47.2065Z" fill="#056B6B"/>
<path d="M19.0385 59.2861H4.53125V60.8752H19.0385V59.2861Z" fill="#056B6B"/>
<path d="M5.65907 59.2861H4.56055V62.631H5.65907V59.2861Z" fill="#056B6B"/>
<path d="M19.0399 59.2861H17.9414V62.631H19.0399V59.2861Z" fill="#056B6B"/>
<path d="M6.98144 64.1652C6.98144 64.547 6.86887 64.9203 6.65798 65.2378C6.44709 65.5552 6.14737 65.8024 5.79678 65.9483C5.4462 66.0941 5.06051 66.1319 4.68856 66.0569C4.31661 65.9819 3.97513 65.7975 3.70738 65.527C3.43962 65.2565 3.25763 64.9121 3.18444 64.5374C3.11126 64.1627 3.15018 63.7745 3.29627 63.4221C3.44236 63.0697 3.68906 62.7689 4.00511 62.5577C4.32117 62.3465 4.69237 62.2345 5.0717 62.2359C5.32294 62.2363 5.57162 62.2866 5.80356 62.3838C6.03551 62.481 6.24616 62.6232 6.42349 62.8023C6.60083 62.9815 6.74138 63.1941 6.83711 63.4279C6.93284 63.6617 6.98189 63.9123 6.98144 64.1652Z" fill="#111111"/>
<path d="M5.96512 64.1659C5.96511 64.3458 5.91201 64.5218 5.81254 64.6713C5.71307 64.8209 5.57172 64.9373 5.40642 65.0059C5.24112 65.0744 5.05932 65.092 4.88407 65.0564C4.70882 65.0208 4.54803 64.9336 4.42209 64.8058C4.29615 64.6781 4.21074 64.5156 4.17668 64.3389C4.14263 64.1622 4.16147 63.9793 4.23081 63.8135C4.30015 63.6476 4.41688 63.5061 4.56618 63.4071C4.71548 63.3081 4.89062 63.256 5.0694 63.2573C5.30758 63.2591 5.53539 63.3557 5.70318 63.5258C5.87097 63.696 5.96512 63.9261 5.96512 64.1659Z" fill="#F5F5F5"/>
<path d="M20.415 64.1652C20.415 64.5469 20.3025 64.92 20.0918 65.2374C19.8811 65.5547 19.5816 65.802 19.2312 65.9479C18.8808 66.0939 18.4953 66.1319 18.1234 66.0572C17.7515 65.9824 17.4101 65.7984 17.1422 65.5282C16.8743 65.258 16.692 64.9139 16.6184 64.5395C16.5449 64.165 16.5833 63.777 16.7289 63.4245C16.8745 63.072 17.1206 62.7709 17.4362 62.5593C17.7519 62.3477 18.1227 62.2352 18.5019 62.2358C18.7534 62.2358 19.0025 62.2858 19.2348 62.3828C19.4671 62.4798 19.6782 62.6219 19.8559 62.8011C20.0336 62.9803 20.1744 63.193 20.2704 63.4271C20.3663 63.6612 20.4155 63.912 20.415 64.1652Z" fill="#111111"/>
<path d="M19.4026 64.1658C19.4026 64.3457 19.3496 64.5215 19.2503 64.6709C19.151 64.8204 19.0098 64.9369 18.8447 65.0055C18.6796 65.0742 18.498 65.092 18.3228 65.0567C18.1477 65.0213 17.9869 64.9345 17.8608 64.8071C17.7347 64.6797 17.649 64.5175 17.6146 64.341C17.5801 64.1645 17.5985 63.9818 17.6673 63.8158C17.7362 63.6499 17.8524 63.5082 18.0012 63.4088C18.1501 63.3094 18.3249 63.2567 18.5035 63.2573C18.7423 63.2582 18.971 63.3543 19.1395 63.5246C19.308 63.6949 19.4026 63.9255 19.4026 64.1658Z" fill="#F5F5F5"/>
<path d="M14.5451 48.9658H9.02539V51.8003H14.5451V48.9658Z" fill="#056B6B"/>
<path d="M2.06861 49.5307C2.1734 49.609 2.28832 49.6838 2.40662 49.7587H24.3771C26.5742 46.9515 21.4466 42.1877 19.1076 40.6463C17.4175 39.5132 15.1427 37.9242 12.8105 37.3321C12.6402 37.1642 12.4274 37.0466 12.1953 36.9918C9.30874 36.2194 2.68379 34.1506 1.08501 37.5805C-0.341379 40.6429 -0.321098 44.9133 0.909249 48.0301C1.1434 48.6327 1.54612 49.1539 2.06861 49.5307Z" fill="#FDE723"/>
<path d="M18.7082 10.4035C18.7082 11.7645 17.9477 12.8704 17.0182 12.8704C16.0886 12.8704 15.3281 11.7645 15.3281 10.4035C15.3281 9.04239 16.0886 7.93652 17.0182 7.93652C17.9477 7.93652 18.7082 9.03899 18.7082 10.4035Z" fill="white"/>
<path d="M20.2028 22.4521C20.507 24.1976 20.9431 25.8207 22.0653 26.9606C22.9846 27.8964 24.3029 28.5259 25.6177 28.941C27.1162 29.4222 28.6789 29.6701 30.2518 29.676C31.0326 29.7066 31.8134 29.676 32.5942 29.6419C32.966 29.6215 33.3344 29.5875 33.7062 29.5501C33.8865 29.5319 34.0656 29.5115 34.2437 29.4888C33.6826 29.5569 34.5141 29.4412 34.558 29.4344C36.0047 29.1962 37.4514 29.7746 37.8705 31.3263C38.2288 32.6363 37.4378 34.4227 35.9878 34.6609C31.8979 35.3414 27.5849 35.3414 23.6201 33.9804C21.5322 33.3103 19.6283 32.1592 18.0599 30.6185C16.2887 28.8185 15.4403 26.3652 15.0178 23.9186C14.7542 22.4521 15.3761 20.9889 16.9005 20.5704C18.2153 20.2063 19.9426 21.0059 20.213 22.4623L20.2028 22.4521Z" fill="#40404A"/>
<path d="M31.392 61.6343C30.2157 57.7825 30.334 53.5597 28.5662 49.8916C27.5962 47.8772 24.7163 47.1695 22.739 46.489C19.8152 45.4682 16.9253 44.4201 13.9508 43.5797C10.7499 42.6814 12.3047 37.8359 15.5124 38.7308C18.8384 39.6598 22.063 40.8269 25.3146 41.9668C28.3093 43.0114 31.3041 44.3487 33.0077 47.0878C34.407 49.3404 34.8092 52.3654 35.1878 54.9378C35.3805 56.2581 35.3906 57.5919 35.5528 58.9155C35.7011 59.8147 35.7487 60.7278 35.6948 61.6377L31.392 61.6343Z" fill="#343438"/>
<path d="M23.9072 61.6343C22.9607 57.8914 22.8931 53.9102 21.2403 50.4055C18.6342 44.8931 11.6713 48.9831 7.55098 47.4553C1.46684 45.1994 3.90725 37.9278 10.0827 38.9112C13.0335 39.3638 15.2102 41.1672 17.9143 42.1608C20.9226 43.2666 23.9342 44.6719 25.6614 47.5234C27.0844 49.8644 27.5103 52.9983 27.9092 55.6626C28.1154 57.0237 28.1323 58.412 28.308 59.7798C28.3891 60.4093 28.4703 61.0286 28.4939 61.6343H23.9072Z" fill="#40404A"/>
<path d="M5.46386 22.1493C5.86947 21.2816 6.30212 20.6487 6.96124 20.288C8.50593 19.4374 10.1791 19.1447 11.788 18.7364C11.8525 18.7213 11.9195 18.7213 11.984 18.7364C12.0485 18.7214 12.1156 18.7214 12.1801 18.7364C13.789 19.1447 15.4587 19.4374 17.0068 20.288C17.6828 20.6487 18.0952 21.2816 18.5008 22.1493C18.8269 22.8013 19.0548 23.4986 19.1768 24.2181L18.5887 40.2346L4.67969 40.0848L4.78447 24.2181C4.90762 23.4984 5.1366 22.8011 5.46386 22.1493Z" fill="#343438"/>
<mask id="mask0_590_6111" style="mask-type:luminance" maskUnits="userSpaceOnUse" x="4" y="18" width="16" height="23">
<path d="M5.46777 22.1493C5.87338 21.2816 6.30603 20.6487 6.96514 20.288C8.50984 19.4374 10.183 19.1447 11.7919 18.7364C11.8564 18.7213 11.9234 18.7213 11.9879 18.7364C12.0524 18.7214 12.1195 18.7214 12.184 18.7364C13.7929 19.1447 15.4627 19.4374 17.0107 20.288C17.6867 20.6487 18.0991 21.2816 18.5047 22.1493C18.8308 22.8013 19.0587 23.4986 19.1807 24.2181L18.5926 40.2346L4.68359 40.0848L4.78838 24.2181C4.91152 23.4984 5.1405 22.8011 5.46777 22.1493Z" fill="white"/>
</mask>
<g mask="url(#mask0_590_6111)">
<path d="M6.96094 9.54883L12.8524 36.1204L18.7405 9.54883H6.96094Z" fill="#FDE723"/>
</g>
<path d="M35.1122 61.0725C35.1122 61.0725 37.4782 62.7738 38.9486 62.8487C40.4189 62.9235 44.0187 64.8188 40.0539 65.3701C40.0539 65.3701 35.1561 65.3054 34.0069 63.6687L33.9393 65.0638L31.7389 64.9856C31.7389 64.9856 30.4206 61.719 31.9349 60.9023L35.1122 61.0725Z" fill="#111111"/>
<path d="M27.7845 61.3723C27.7845 61.3723 30.1506 63.0736 31.6209 63.1485C33.0912 63.2234 36.6707 65.1221 32.7262 65.6699C32.7262 65.6699 27.8285 65.6052 26.6792 63.9685L26.6116 65.367L24.4112 65.2582C24.4112 65.2582 23.0964 62.0086 24.6073 61.2056L27.7845 61.3723Z" fill="#111111"/>
<path d="M14.147 15.6436H11.1895V20.7816H14.147V15.6436Z" fill="#FEAF9A"/>
<g style="mix-blend-mode:multiply">
<path d="M14.1504 17.3177C13.7409 17.6795 13.2147 17.879 12.6699 17.879C12.1251 17.879 11.5989 17.6795 11.1895 17.3177V15.647H14.1504V17.3177Z" fill="#FFB39D"/>
</g>
<path d="M7.50401 10.5021C7.53443 11.7168 7.40936 13.1562 7.86567 14.3029C9.23798 17.777 16.3159 17.8689 17.5259 14.1906C17.9214 12.9826 17.8268 11.5467 17.847 10.2911C17.8589 8.89828 17.798 7.5058 17.6645 6.11942C17.4549 3.809 14.832 2.93451 12.9324 2.9209C11.2119 2.9209 7.88257 3.88045 7.67977 6.11602C7.53677 7.57337 7.47808 9.03786 7.50401 10.5021Z" fill="#FFB39D"/>
<path d="M16.1817 9.04167C15.8222 9.12155 15.4881 9.29029 15.2096 9.53267C14.9311 9.77504 14.7169 10.0834 14.5864 10.43C14.3497 11.1922 14.8061 11.8523 15.4145 12.264L15.33 11.9237C15.2353 12.1347 15.09 12.3695 14.8263 12.3185C14.6979 12.2912 14.5289 12.1892 14.3971 12.2232C14.3638 12.2342 14.334 12.2538 14.3107 12.28C14.2873 12.3062 14.2712 12.3382 14.264 12.3727C14.2568 12.4072 14.2588 12.443 14.2697 12.4764C14.2806 12.5099 14.3 12.5399 14.3261 12.5634C14.427 12.6732 14.557 12.7516 14.7007 12.7896C14.8444 12.8276 14.9958 12.8235 15.1373 12.7778C15.2862 12.7212 15.4198 12.6301 15.5273 12.5119C15.6348 12.3937 15.7131 12.2516 15.7559 12.0973C15.7692 12.0476 15.7663 11.9949 15.7474 11.947C15.7285 11.8992 15.6947 11.8588 15.6511 11.8319C15.1542 11.5426 14.779 11.0561 14.9751 10.4708C15.1711 9.88554 15.7423 9.46701 16.2561 9.18459C16.3406 9.14035 16.2832 9.01105 16.1919 9.03147L16.1817 9.04167Z" fill="#F48364"/>
<path d="M17.2392 10.594C17.2392 11.0398 17.033 11.4038 16.7761 11.4038C16.5192 11.4038 16.3164 11.0398 16.3164 10.594C16.3164 10.1483 16.5226 9.78076 16.7761 9.78076C17.0296 9.78076 17.2392 10.1448 17.2392 10.594Z" fill="#3F1C25"/>
<path d="M12.0263 10.594C12.0263 11.0398 11.8201 11.4038 11.5632 11.4038C11.3063 11.4038 11.1035 11.0398 11.1035 10.594C11.1035 10.1483 11.3097 9.78076 11.5632 9.78076C11.8167 9.78076 12.0263 10.1448 12.0263 10.594Z" fill="#3F1C25"/>
<path d="M15.1208 13.7613C14.7646 14.0531 14.3156 14.2054 13.8566 14.19C13.3733 14.1492 12.9609 13.8668 12.5249 13.6864C12.4167 13.6388 12.3424 13.7987 12.4167 13.8736C12.8027 14.259 13.3141 14.491 13.8566 14.5269C14.3785 14.5398 14.8879 14.3648 15.2932 14.0335C15.452 13.9144 15.2932 13.6422 15.1343 13.7613H15.1208Z" fill="#F48364"/>
<path d="M11.155 19.9478C11.2394 19.6502 11.4366 19.3978 11.704 19.2451C11.9714 19.0924 12.2877 19.0514 12.5848 19.1311C12.7498 19.1782 12.9022 19.262 13.0309 19.3761C13.24 19.3352 13.4566 19.3743 13.6385 19.4857C13.8204 19.5971 13.9545 19.7727 14.0145 19.9784C14.0694 20.1718 14.1056 20.3701 14.1227 20.5705C14.0889 20.288 14.1227 20.6827 14.1498 20.778C14.1543 20.9275 14.1419 21.0771 14.1126 21.2238C14.0671 21.4959 13.9486 21.7504 13.7699 21.9597C13.5912 22.169 13.359 22.3252 13.0985 22.4113C12.3921 22.6087 11.7229 21.9996 11.3747 21.4483C11.1128 20.9951 11.0341 20.4578 11.155 19.9478Z" fill="#FDFDFD"/>
<path d="M10.2617 19.2369L11.3163 18.063L12.763 18.7265L12.7731 18.7469L12.7866 18.7265L14.2299 18.063L15.2845 19.2369L14.3212 21.7651L12.7731 19.584L11.225 21.7651L10.2617 19.2369Z" fill="#F4DE14"/>
<path d="M13.3596 21.8638L14.5561 37.2201L13.1365 39.6292L11.416 37.2201L12.2374 21.8638H13.3596Z" fill="#FDFDFD"/>
<path d="M19.2656 3.16581C19.2656 1.68224 17.9609 0.290545 16.5075 0.103398C14.9831 -0.0905549 13.9488 1.52912 12.4683 1.35558C11.8768 1.30114 11.2616 0.314364 10.6261 0.113606C10.2464 -0.000432129 9.84645 -0.0290643 9.45452 0.0297356C9.0626 0.0885356 8.6883 0.233331 8.35811 0.453874C8.03923 0.638527 7.76163 0.887441 7.54268 1.18504C7.32373 1.48264 7.16815 1.82253 7.08566 2.18343C7.00317 2.54434 6.99555 2.9185 7.06328 3.2825C7.13102 3.64651 7.27264 3.99252 7.47929 4.2989C7.98118 4.98416 8.68129 5.49641 9.48367 5.76546C10.4301 6.62974 11.265 7.52124 12.8299 7.17757C13.1616 7.11666 13.4738 6.97636 13.7403 6.76849C14.0068 6.56063 14.2197 6.29131 14.3611 5.98323C15.0273 6.25052 15.7547 6.32363 16.4602 6.1942C17.8189 5.90497 19.2656 4.66639 19.2656 3.16581Z" fill="#111111"/>
<path d="M8.70349 22.4521C9.01107 24.1977 9.4471 25.8208 10.5659 26.9607C11.492 27.8964 12.8069 28.5259 14.1184 28.941C15.6179 29.4225 17.1818 29.6704 18.7558 29.676C19.5332 29.7066 20.3174 29.676 21.0948 29.642C21.4667 29.6216 21.8385 29.5875 22.2103 29.5501C22.3905 29.532 22.5697 29.5115 22.7477 29.4889C22.1832 29.5569 23.0147 29.4412 23.0587 29.4344C24.5053 29.1962 25.952 29.7747 26.3711 31.3263C26.7294 32.6363 25.9419 34.4227 24.4918 34.6609C20.4019 35.3415 16.0889 35.3415 12.1241 33.9804C10.0356 33.3096 8.13077 32.1586 6.56052 30.6186C4.78936 28.8185 3.94096 26.3652 3.51845 23.9187C3.25818 22.4521 3.88012 20.989 5.40791 20.5704C6.70586 20.2063 8.44998 21.006 8.70349 22.4521Z" fill="#40404A"/>
<path d="M24.7954 29.387C26.2556 29.6967 27.4319 31.1666 27.0837 32.674C26.8809 33.5383 26.0156 33.6642 25.4207 33.3171C25.3376 33.3259 25.2537 33.3259 25.1706 33.3171C24.4134 33.2933 23.6732 33.0755 22.9127 33.1368C22.6109 33.1359 22.3216 33.0148 22.1082 32.7999C21.8948 32.5851 21.7745 32.2939 21.7736 31.9901C21.7567 30.2207 23.0242 29.0093 24.7954 29.387Z" fill="#FFB39D"/>
<path d="M10.8599 8.50123C11.492 8.21541 12.1207 8.47742 12.7697 8.37874C12.797 8.37522 12.823 8.36476 12.8451 8.34835C12.8673 8.33193 12.885 8.31011 12.8965 8.28492C12.908 8.25974 12.9129 8.23202 12.9108 8.20438C12.9088 8.17674 12.8997 8.15009 12.8846 8.12694C12.4519 7.36134 11.2115 7.71181 10.6537 8.12694C10.4577 8.26985 10.6301 8.61352 10.8599 8.51144V8.50123Z" fill="#111111"/>
<path d="M18.1412 8.50123C17.5092 8.21541 16.8805 8.47742 16.2315 8.37874C16.2042 8.37522 16.1782 8.36476 16.156 8.34835C16.1338 8.33193 16.1162 8.31011 16.1047 8.28492C16.0932 8.25974 16.0882 8.23202 16.0903 8.20438C16.0924 8.17674 16.1014 8.15009 16.1166 8.12694C16.5492 7.36134 17.8066 7.71181 18.3474 8.12694C18.5435 8.26985 18.3711 8.61352 18.1412 8.51144V8.50123Z" fill="#111111"/>
<path d="M9.44573 4.26617C9.33081 4.4363 8.54325 10.8436 8.54325 10.8436C8.54325 10.8436 4.71025 6.68888 7.19122 3.62646L9.44573 4.26617Z" fill="#111111"/>
<path d="M7.39742 8.95747C7.26785 8.95761 7.14321 8.90748 7.04941 8.81749C6.95561 8.7275 6.89988 8.60458 6.89379 8.47429C6.89379 8.33478 6.7214 4.98994 8.92183 2.57064C10.2739 1.07686 12.2174 0.27723 14.6916 0.18876C14.8261 0.184248 14.9568 0.233695 15.0551 0.326223C15.1533 0.418752 15.2111 0.546782 15.2155 0.682149C15.22 0.817516 15.1709 0.949131 15.079 1.04804C14.9871 1.14695 14.8599 1.20505 14.7254 1.20956C12.5385 1.28102 10.8417 1.96496 9.67559 3.25117C7.76585 5.34722 7.90443 8.38922 7.90443 8.41644C7.91277 8.55041 7.86799 8.68225 7.77992 8.78303C7.69184 8.88381 7.56766 8.94532 7.4346 8.95407L7.39742 8.95747Z" fill="white"/>
<mask id="mask1_590_6111" style="mask-type:luminance" maskUnits="userSpaceOnUse" x="6" y="0" width="10" height="9">
<path d="M7.39937 8.95698C7.2698 8.95712 7.14516 8.90699 7.05136 8.817C6.95756 8.72701 6.90183 8.60409 6.89574 8.4738C6.89574 8.33429 6.72336 4.98946 8.92379 2.57015C10.2758 1.07637 12.2194 0.276742 14.6936 0.188272C14.828 0.18376 14.9588 0.233207 15.057 0.325735C15.1553 0.418263 15.213 0.546294 15.2175 0.681661C15.222 0.817028 15.1729 0.948643 15.0809 1.04755C14.989 1.14646 14.8618 1.20456 14.7274 1.20908C12.5405 1.28053 10.8437 1.96447 9.67754 3.25068C7.7678 5.34674 7.90638 8.38873 7.90638 8.41595C7.91472 8.54992 7.86994 8.68176 7.78187 8.78254C7.69379 8.88332 7.56961 8.94483 7.43655 8.95358L7.39937 8.95698Z" fill="white"/>
</mask>
<g mask="url(#mask1_590_6111)">
<path opacity="0.4" d="M10.1443 6.99756H3.80664V9.37944H10.1443V6.99756Z" fill="#9577EE"/>
<path opacity="0.4" d="M15.7625 0.95732L10.9121 0.804199L12.4061 -1.04346L17.9122 1.70931L15.7625 0.95732Z" fill="#9577EE"/>
</g>
<path d="M8.90547 10.4035C8.90547 11.7645 8.14495 12.8704 7.21543 12.8704C6.28591 12.8704 5.52539 11.7645 5.52539 10.4035C5.52539 9.04239 6.28591 7.93652 7.21543 7.93652C8.14495 7.93652 8.90547 9.03899 8.90547 10.4035Z" fill="white"/>
<path opacity="0.4" d="M7.5421 12.486C6.59906 12.486 5.85206 11.3835 5.85206 10.0191C5.84076 9.40554 6.01139 8.80254 6.34217 8.28711C6.06541 8.56244 5.84881 8.89291 5.70621 9.25735C5.56361 9.6218 5.49816 10.0122 5.51405 10.4036C5.51405 11.7646 6.27457 12.8705 7.20409 12.8705C7.45023 12.8575 7.6894 12.7836 7.90044 12.6554C8.11149 12.5272 8.28792 12.3487 8.41416 12.1355C8.1744 12.3535 7.86504 12.4778 7.5421 12.486Z" fill="#9577EE"/>
<path d="M7.69234 10.3911C7.69234 11.4698 7.09069 12.3443 6.34031 12.3443C5.58993 12.3443 4.98828 11.4698 4.98828 10.3911C4.98828 9.31248 5.58993 8.43799 6.34031 8.43799C7.09069 8.43799 7.69234 9.31248 7.69234 10.3911Z" fill="#FDE723"/>
<path d="M8.07617 11.9346C8.07617 11.9346 8.58318 14.8677 11.5847 14.997" stroke="white" stroke-miterlimit="10"/>
<path d="M12.2163 14.9971C12.2163 15.1099 12.1718 15.2181 12.0925 15.2979C12.0133 15.3776 11.9058 15.4224 11.7938 15.4224H11.3307C11.2187 15.4224 11.1112 15.3776 11.032 15.2979C10.9527 15.2181 10.9082 15.1099 10.9082 14.9971C10.9082 14.8843 10.9527 14.7761 11.032 14.6964C11.1112 14.6166 11.2187 14.5718 11.3307 14.5718H11.7938C11.9058 14.5718 12.0133 14.6166 12.0925 14.6964C12.1718 14.7761 12.2163 14.8843 12.2163 14.9971Z" fill="#282C47"/>
<path d="M46.6757 31.5482C46.5758 32.006 46.3277 32.4174 45.9705 32.7179C45.6132 33.0184 45.167 33.191 44.7018 33.2087H25.3914C25.1859 33.2163 24.9815 33.1755 24.7944 33.0895C24.6073 33.0036 24.4427 32.8749 24.3138 32.7137C24.1848 32.5524 24.095 32.3631 24.0514 32.1608C24.0079 31.9585 24.0119 31.7487 24.063 31.5482L26.3378 19.8362C26.4378 19.3785 26.6858 18.9671 27.0431 18.6666C27.4003 18.366 27.8466 18.1934 28.3118 18.1757H47.6222C47.8277 18.1681 48.0321 18.2089 48.2191 18.2949C48.4062 18.3808 48.5708 18.5095 48.6998 18.6708C48.8288 18.832 48.9186 19.0213 48.9621 19.2236C49.0056 19.4259 49.0017 19.6357 48.9505 19.8362L46.6757 31.5482Z" fill="#B7B6B1"/>
<path opacity="0.4" d="M35.1517 25.4737C35.0199 26.4945 35.6722 27.3145 36.6153 27.3145C37.1029 27.2856 37.565 27.0856 37.9213 26.7493C38.2776 26.413 38.5056 25.9616 38.5656 25.4737C38.7008 24.4529 38.045 23.6328 37.102 23.6328C36.6146 23.6624 36.1529 23.8626 35.7967 24.1988C35.4405 24.5349 35.2123 24.9859 35.1517 25.4737Z" fill="#F5F5F5"/>
<path d="M9.86201 67.0002H8.39844L14.4826 34.1064H15.9461L9.86201 67.0002Z" fill="#111111"/>
<path d="M45.4089 67.0002H43.9453L50.0294 34.1064H51.493L45.4089 67.0002Z" fill="#111111"/>
<path d="M33.6388 67.0002H35.1024L29.0183 34.1064H27.5547L33.6388 67.0002Z" fill="#111111"/>
<path d="M66.9521 32.7422H6.05664V35.0764H66.9521V32.7422Z" fill="#111111"/>
<g style="mix-blend-mode:multiply">
<path d="M27.1821 32.7422H6.05664V35.0764H27.1821V32.7422Z" fill="black"/>
</g>
<path d="M66.5373 67.0002H68.0008L61.9201 34.1064H60.4531L66.5373 67.0002Z" fill="#111111"/>
</svg>
