<svg width="20" height="20" viewBox="0 0 20 20" fill="none" xmlns="http://www.w3.org/2000/svg">
<path d="M4.1785 10.6573C3.77447 10.2514 3.49968 9.73505 3.38882 9.17324C3.27796 8.61142 3.33599 8.02936 3.55559 7.50049C3.77519 6.97162 4.14651 6.51964 4.62272 6.20158C5.09892 5.88353 5.65866 5.71365 6.2313 5.71338H10.9123C11.681 5.71338 12.4183 6.01878 12.962 6.56239C13.5056 7.106 13.811 7.84329 13.811 8.61207C13.811 10.2124 12.5135 11.4288 10.9123 11.4288H8.57179" stroke="#707070" stroke-linecap="round" stroke-linejoin="round"/>
<path d="M15.8239 9.34263C16.2279 9.74844 16.5027 10.2648 16.6135 10.8266C16.7244 11.3885 16.6664 11.9705 16.4468 12.4994C16.2272 13.0283 15.8558 13.4802 15.3796 13.7983C14.9034 14.1164 14.3437 14.2862 13.7711 14.2865H9.0901C8.32132 14.2865 7.58402 13.9811 7.04041 13.4375C6.4968 12.8939 6.19141 12.1566 6.19141 11.3878C6.19141 9.78749 7.48882 8.57104 9.0901 8.57104H11.4306" stroke="#707070" stroke-linecap="round" stroke-linejoin="round"/>
</svg>
