<svg width="20" height="21" viewBox="0 0 20 21" fill="none" xmlns="http://www.w3.org/2000/svg">
<path d="M15.4034 5.11737L15.3891 5.11356L14.6605 4.87735C14.4387 4.80371 14.2371 4.67937 14.0717 4.51419C13.9064 4.34901 13.7818 4.14755 13.708 3.92581L13.4718 3.19812C13.4521 3.14186 13.4153 3.09311 13.3667 3.05863C13.3181 3.02414 13.2599 3.00562 13.2003 3.00562C13.1407 3.00562 13.0826 3.02414 13.0339 3.05863C12.9853 3.09311 12.9486 3.14186 12.9289 3.19812L12.6907 3.92581C12.6187 4.1459 12.4966 4.34631 12.3342 4.51139C12.1718 4.67646 11.9733 4.80171 11.7545 4.87735L11.1887 5.06118H11.1858L11.022 5.11356C10.9657 5.13342 10.9171 5.17039 10.8829 5.21929C10.8569 5.25547 10.8397 5.29725 10.8326 5.34128C10.8256 5.3853 10.829 5.43036 10.8425 5.47285C10.856 5.51534 10.8793 5.55407 10.9105 5.58596C10.9416 5.61784 10.9798 5.64199 11.022 5.65648L11.7525 5.89365L11.8316 5.92222L11.8392 5.92413C12.0292 6.00073 12.2016 6.11536 12.3457 6.26096C12.4899 6.40657 12.6027 6.58009 12.6774 6.77088L12.706 6.84708L12.9422 7.57573C12.962 7.63213 12.9989 7.68096 13.0477 7.71544C13.0965 7.74992 13.1548 7.76834 13.2146 7.76813H13.2184C13.2774 7.76736 13.3347 7.74849 13.3825 7.71407C13.4304 7.67966 13.4665 7.63137 13.4861 7.57573L13.7232 6.84803C13.7969 6.62633 13.9212 6.42486 14.0864 6.25967C14.2516 6.09448 14.4531 5.97013 14.6748 5.8965L15.4034 5.66029C15.4592 5.64013 15.5075 5.60326 15.5416 5.55468C15.5757 5.5061 15.594 5.44819 15.594 5.38883C15.594 5.32947 15.5757 5.27156 15.5416 5.22298C15.5075 5.1744 15.4592 5.13753 15.4034 5.11737ZM16.7521 8.31295L17.3351 8.5025L17.3474 8.50536C17.3919 8.5215 17.4304 8.55096 17.4576 8.58973C17.4848 8.6285 17.4993 8.6747 17.4993 8.72205C17.4993 8.76939 17.4848 8.81559 17.4576 8.85436C17.4304 8.89313 17.3919 8.92259 17.3474 8.93874L16.7636 9.12923C16.5864 9.18812 16.4254 9.28747 16.2933 9.4194C16.1612 9.55133 16.0616 9.71222 16.0025 9.88931L15.813 10.4722C15.7967 10.5181 15.7662 10.5576 15.7259 10.585C15.6857 10.6123 15.6378 10.6262 15.5892 10.6246C15.5422 10.6245 15.4964 10.6097 15.4582 10.5824C15.42 10.5551 15.3912 10.5166 15.3758 10.4722L15.1853 9.88931C15.1262 9.71184 15.0266 9.55057 14.8943 9.41831C14.7621 9.28604 14.6008 9.18641 14.4233 9.12733L14.4005 9.11971L14.3995 9.11685L13.8442 8.93588C13.7997 8.91973 13.7612 8.89028 13.7341 8.85151C13.7069 8.81274 13.6923 8.76654 13.6923 8.71919C13.6923 8.67184 13.7069 8.62564 13.7341 8.58687C13.7612 8.5481 13.7997 8.51864 13.8442 8.5025L14.4281 8.312C14.6032 8.25167 14.7619 8.15167 14.892 8.01982C15.022 7.88796 15.1198 7.72783 15.1777 7.55192L15.3672 6.969C15.3832 6.92416 15.4126 6.88537 15.4515 6.85793C15.4904 6.83049 15.5368 6.81576 15.5844 6.81576C15.632 6.81576 15.6784 6.83049 15.7173 6.85793C15.7562 6.88537 15.7856 6.92416 15.8016 6.969L15.9911 7.55192C16.05 7.72926 16.1494 7.89041 16.2815 8.02253C16.4136 8.15465 16.5748 8.2541 16.7521 8.31295ZM9.93711 5.76125C9.94829 5.79609 9.961 5.83041 9.97521 5.86412L9.88092 5.86317C8.9575 5.8633 8.05404 6.13189 7.28052 6.63624C6.50701 7.14058 5.89679 7.85892 5.52417 8.70382C5.15155 9.54871 5.03259 10.4837 5.18177 11.395C5.33096 12.3063 5.74186 13.1545 6.36444 13.8365C6.98703 14.5185 7.79445 15.0047 8.68841 15.2361C9.58237 15.4675 10.5243 15.4339 11.3996 15.1396C12.2748 14.8453 13.0456 14.3029 13.6182 13.5784C14.1907 12.8539 14.5403 11.9785 14.6243 11.059C14.7244 11.207 14.8569 11.3304 15.0116 11.4198C15.1664 11.5092 15.3394 11.5624 15.5177 11.5752C15.2763 12.9859 14.5146 14.2547 13.3831 15.131C12.2515 16.0073 10.8324 16.4272 9.40623 16.3079C7.98003 16.1886 6.65046 15.5387 5.68022 14.4866C4.70998 13.4345 4.16966 12.0568 4.16602 10.6256C4.16592 9.86725 4.31674 9.11649 4.6097 8.41703C4.90266 7.71758 5.3319 7.08342 5.8724 6.55152C6.41291 6.01962 7.05386 5.6006 7.75793 5.3189C8.46199 5.03719 9.21508 4.89842 9.97331 4.91068C9.86109 5.18102 9.84827 5.48236 9.93711 5.76125ZM8.21407 10.3875C8.40353 10.3875 8.58523 10.3122 8.7192 10.1782C8.85317 10.0443 8.92843 9.86256 8.92843 9.6731C8.92843 9.48364 8.85317 9.30194 8.7192 9.16797C8.58523 9.034 8.40353 8.95874 8.21407 8.95874C8.02461 8.95874 7.84291 9.034 7.70894 9.16797C7.57497 9.30194 7.49971 9.48364 7.49971 9.6731C7.49971 9.86256 7.57497 10.0443 7.70894 10.1782C7.84291 10.3122 8.02461 10.3875 8.21407 10.3875ZM8.10549 12.2134C8.06396 12.1661 8.01348 12.1276 7.95696 12.0999C7.90045 12.0723 7.83901 12.0561 7.77621 12.0523C7.71341 12.0486 7.65049 12.0573 7.59108 12.078C7.53167 12.0987 7.47695 12.131 7.43007 12.1729C7.3832 12.2149 7.34511 12.2657 7.318 12.3225C7.29088 12.3793 7.27529 12.4408 7.27211 12.5037C7.26893 12.5665 7.27823 12.6293 7.29948 12.6886C7.32072 12.7478 7.35349 12.8022 7.39589 12.8487C7.7084 13.1985 8.09136 13.4783 8.51963 13.6697C8.94791 13.8611 9.41182 13.9598 9.88092 13.9593C10.35 13.9598 10.8139 13.8611 11.2422 13.6697C11.6705 13.4783 12.0534 13.1985 12.3659 12.8487C12.4488 12.7544 12.4911 12.6312 12.4836 12.5058C12.4761 12.3805 12.4194 12.2632 12.3259 12.1795C12.2323 12.0958 12.1095 12.0523 11.9841 12.0587C11.8588 12.065 11.741 12.1206 11.6563 12.2134C11.4332 12.4635 11.1596 12.6635 10.8536 12.8003C10.5476 12.937 10.2161 13.0074 9.88092 13.0068C9.17608 13.0068 8.54268 12.701 8.10549 12.2134ZM12.2621 9.6731C12.2621 9.86256 12.1869 10.0443 12.0529 10.1782C11.9189 10.3122 11.7372 10.3875 11.5478 10.3875C11.3583 10.3875 11.1766 10.3122 11.0426 10.1782C10.9087 10.0443 10.8334 9.86256 10.8334 9.6731C10.8334 9.48364 10.9087 9.30194 11.0426 9.16797C11.1766 9.034 11.3583 8.95874 11.5478 8.95874C11.7372 8.95874 11.9189 9.034 12.0529 9.16797C12.1869 9.30194 12.2621 9.48364 12.2621 9.6731Z" fill="#111111"/>
</svg>
