<svg width="20" height="20" viewBox="0 0 20 20" fill="none" xmlns="http://www.w3.org/2000/svg">
<path d="M15.4034 4.61737L15.3891 4.61356L14.6605 4.37735C14.4387 4.30371 14.2371 4.17937 14.0717 4.01419C13.9064 3.84901 13.7818 3.64755 13.708 3.42581L13.4718 2.69812C13.4521 2.64186 13.4153 2.59311 13.3667 2.55863C13.3181 2.52414 13.2599 2.50562 13.2003 2.50562C13.1407 2.50562 13.0826 2.52414 13.0339 2.55863C12.9853 2.59311 12.9486 2.64186 12.9289 2.69812L12.6907 3.42581C12.6187 3.6459 12.4966 3.84631 12.3342 4.01139C12.1718 4.17646 11.9733 4.30171 11.7545 4.37735L11.1887 4.56118H11.1858L11.022 4.61356C10.9657 4.63342 10.9171 4.67039 10.8829 4.71929C10.8569 4.75547 10.8397 4.79725 10.8326 4.84128C10.8256 4.8853 10.829 4.93036 10.8425 4.97285C10.856 5.01534 10.8793 5.05407 10.9105 5.08596C10.9416 5.11784 10.9798 5.14199 11.022 5.15648L11.7525 5.39365L11.8316 5.42222L11.8392 5.42413C12.0292 5.50073 12.2016 5.61536 12.3457 5.76096C12.4899 5.90657 12.6027 6.08009 12.6774 6.27088L12.706 6.34708L12.9422 7.07573C12.962 7.13213 12.9989 7.18096 13.0477 7.21544C13.0965 7.24992 13.1548 7.26834 13.2146 7.26813H13.2184C13.2774 7.26736 13.3347 7.24849 13.3825 7.21407C13.4304 7.17966 13.4665 7.13137 13.4861 7.07573L13.7232 6.34803C13.7969 6.12633 13.9212 5.92486 14.0864 5.75967C14.2516 5.59448 14.4531 5.47013 14.6748 5.3965L15.4034 5.16029C15.4592 5.14013 15.5075 5.10326 15.5416 5.05468C15.5757 5.0061 15.594 4.94819 15.594 4.88883C15.594 4.82947 15.5757 4.77156 15.5416 4.72298C15.5075 4.6744 15.4592 4.63753 15.4034 4.61737ZM16.7521 7.81295L17.3351 8.0025L17.3474 8.00536C17.3919 8.0215 17.4304 8.05096 17.4576 8.08973C17.4848 8.1285 17.4993 8.1747 17.4993 8.22205C17.4993 8.26939 17.4848 8.31559 17.4576 8.35436C17.4304 8.39313 17.3919 8.42259 17.3474 8.43874L16.7636 8.62923C16.5864 8.68812 16.4254 8.78747 16.2933 8.9194C16.1612 9.05133 16.0616 9.21222 16.0025 9.38931L15.813 9.97223C15.7967 10.0181 15.7662 10.0576 15.7259 10.085C15.6857 10.1123 15.6378 10.1262 15.5892 10.1246C15.5422 10.1245 15.4964 10.1097 15.4582 10.0824C15.42 10.0551 15.3912 10.0166 15.3758 9.97223L15.1853 9.38931C15.1262 9.21184 15.0266 9.05057 14.8943 8.91831C14.7621 8.78604 14.6008 8.68641 14.4233 8.62733L14.4005 8.61971L14.3995 8.61685L13.8442 8.43588C13.7997 8.41973 13.7612 8.39028 13.7341 8.35151C13.7069 8.31274 13.6923 8.26654 13.6923 8.21919C13.6923 8.17184 13.7069 8.12564 13.7341 8.08687C13.7612 8.0481 13.7997 8.01864 13.8442 8.0025L14.4281 7.812C14.6032 7.75167 14.7619 7.65167 14.892 7.51982C15.022 7.38796 15.1198 7.22783 15.1777 7.05192L15.3672 6.469C15.3832 6.42416 15.4126 6.38537 15.4515 6.35793C15.4904 6.33049 15.5368 6.31576 15.5844 6.31576C15.632 6.31576 15.6784 6.33049 15.7173 6.35793C15.7562 6.38537 15.7856 6.42416 15.8016 6.469L15.9911 7.05192C16.05 7.22926 16.1494 7.39041 16.2815 7.52253C16.4136 7.65465 16.5748 7.7541 16.7521 7.81295ZM9.93711 5.26125C9.94829 5.29609 9.961 5.33041 9.97521 5.36412L9.88092 5.36317C8.9575 5.3633 8.05404 5.63189 7.28052 6.13624C6.50701 6.64058 5.89679 7.35892 5.52417 8.20382C5.15155 9.04871 5.03259 9.98371 5.18177 10.895C5.33096 11.8063 5.74186 12.6545 6.36444 13.3365C6.98703 14.0185 7.79445 14.5047 8.68841 14.7361C9.58237 14.9675 10.5243 14.9339 11.3996 14.6396C12.2748 14.3453 13.0456 13.8029 13.6182 13.0784C14.1907 12.3539 14.5403 11.4785 14.6243 10.559C14.7244 10.707 14.8569 10.8304 15.0116 10.9198C15.1664 11.0092 15.3394 11.0624 15.5177 11.0752C15.2763 12.4859 14.5146 13.7547 13.3831 14.631C12.2515 15.5073 10.8324 15.9272 9.40623 15.8079C7.98003 15.6886 6.65046 15.0387 5.68022 13.9866C4.70998 12.9345 4.16966 11.5568 4.16602 10.1256C4.16592 9.36725 4.31674 8.61649 4.6097 7.91703C4.90266 7.21758 5.3319 6.58342 5.8724 6.05152C6.41291 5.51962 7.05386 5.1006 7.75793 4.8189C8.46199 4.53719 9.21508 4.39842 9.97331 4.41068C9.86109 4.68102 9.84827 4.98236 9.93711 5.26125ZM8.21407 9.88746C8.40353 9.88746 8.58523 9.8122 8.7192 9.67823C8.85317 9.54426 8.92843 9.36256 8.92843 9.1731C8.92843 8.98364 8.85317 8.80194 8.7192 8.66797C8.58523 8.534 8.40353 8.45874 8.21407 8.45874C8.02461 8.45874 7.84291 8.534 7.70894 8.66797C7.57497 8.80194 7.49971 8.98364 7.49971 9.1731C7.49971 9.36256 7.57497 9.54426 7.70894 9.67823C7.84291 9.8122 8.02461 9.88746 8.21407 9.88746ZM8.10549 11.7134C8.06396 11.6661 8.01348 11.6276 7.95696 11.5999C7.90045 11.5723 7.83901 11.5561 7.77621 11.5523C7.71341 11.5486 7.65049 11.5573 7.59108 11.578C7.53167 11.5987 7.47695 11.631 7.43007 11.6729C7.3832 11.7149 7.34511 11.7657 7.318 11.8225C7.29088 11.8793 7.27529 11.9408 7.27211 12.0037C7.26893 12.0665 7.27823 12.1293 7.29948 12.1886C7.32072 12.2478 7.35349 12.3022 7.39589 12.3487C7.7084 12.6985 8.09136 12.9783 8.51963 13.1697C8.94791 13.3611 9.41182 13.4598 9.88092 13.4593C10.35 13.4598 10.8139 13.3611 11.2422 13.1697C11.6705 12.9783 12.0534 12.6985 12.3659 12.3487C12.4488 12.2544 12.4911 12.1312 12.4836 12.0058C12.4761 11.8805 12.4194 11.7632 12.3259 11.6795C12.2323 11.5958 12.1095 11.5523 11.9841 11.5587C11.8588 11.565 11.741 11.6206 11.6563 11.7134C11.4332 11.9635 11.1596 12.1635 10.8536 12.3003C10.5476 12.437 10.2161 12.5074 9.88092 12.5068C9.17608 12.5068 8.54268 12.201 8.10549 11.7134ZM12.2621 9.1731C12.2621 9.36256 12.1869 9.54426 12.0529 9.67823C11.9189 9.8122 11.7372 9.88746 11.5478 9.88746C11.3583 9.88746 11.1766 9.8122 11.0426 9.67823C10.9087 9.54426 10.8334 9.36256 10.8334 9.1731C10.8334 8.98364 10.9087 8.80194 11.0426 8.66797C11.1766 8.534 11.3583 8.45874 11.5478 8.45874C11.7372 8.45874 11.9189 8.534 12.0529 8.66797C12.1869 8.80194 12.2621 8.98364 12.2621 9.1731Z" fill="#111111"/>
</svg>
