<svg width="20" height="20" viewBox="0 0 20 20" fill="none" xmlns="http://www.w3.org/2000/svg">
<path d="M6.33929 7.85714H11.6964M6.33929 10H12.7679M6.33929 12.1429H9.55357M15.9821 15.3571V4.64286C15.9821 4.07454 15.7564 3.52949 15.3545 3.12763C14.9527 2.72576 14.4076 2.5 13.8393 2.5H5.26786C4.69954 2.5 4.15449 2.72576 3.75263 3.12763C3.35076 3.52949 3.125 4.07454 3.125 4.64286V15.3571C3.125 15.9255 3.35076 16.4705 3.75263 16.8724C4.15449 17.2742 4.69954 17.5 5.26786 17.5H13.8393C14.4076 17.5 14.9527 17.2742 15.3545 16.8724C15.7564 16.4705 15.9821 15.9255 15.9821 15.3571Z" stroke="#707070" stroke-width="0.5" stroke-linecap="round" stroke-linejoin="round"/>
</svg>
