<svg width="21" height="21" viewBox="0 0 21 21" fill="none" xmlns="http://www.w3.org/2000/svg">
<path fill-rule="evenodd" clip-rule="evenodd" d="M10.5005 16.3327L10.9595 15.8156C11.4802 15.2192 11.9486 14.6533 12.3653 14.1151L12.7094 13.6613C14.1458 11.726 14.8644 10.1899 14.8644 9.05457C14.8644 6.63119 12.9108 4.66675 10.5005 4.66675C8.09025 4.66675 6.13672 6.63119 6.13672 9.05457C6.13672 10.1899 6.85529 11.726 8.29172 13.6613L8.63573 14.1151C9.23026 14.8769 9.85227 15.6161 10.5005 16.3327Z" stroke="#707070" stroke-linecap="round" stroke-linejoin="round"/>
<path d="M10.4999 10.8487C11.5041 10.8487 12.3182 10.0346 12.3182 9.03042C12.3182 8.02622 11.5041 7.21216 10.4999 7.21216C9.4957 7.21216 8.68164 8.02622 8.68164 9.03042C8.68164 10.0346 9.4957 10.8487 10.4999 10.8487Z" stroke="#707070" stroke-linecap="round" stroke-linejoin="round"/>
</svg>
