<svg width="32" height="32" viewBox="0 0 32 32" fill="none" xmlns="http://www.w3.org/2000/svg">
<path d="M15.9996 26.3996C21.7434 26.3996 26.3996 21.7434 26.3996 15.9996C26.3996 10.2558 21.7434 5.59961 15.9996 5.59961C10.2558 5.59961 5.59961 10.2558 5.59961 15.9996C5.59961 21.7434 10.2558 26.3996 15.9996 26.3996Z" stroke="#707070" stroke-linecap="round" stroke-linejoin="round"/>
<path d="M16.0004 17.2988V15.9988L17.8386 14.1606C18.3262 13.6731 18.6002 13.0119 18.6004 12.3224V12.0988C18.6004 11.3019 18.1506 10.5739 17.4382 10.2177L17.1626 10.0799C16.8017 9.89954 16.4038 9.80566 16.0004 9.80566C15.597 9.80566 15.1991 9.89954 14.8382 10.0799L14.7004 10.1488C13.9035 10.5466 13.4004 11.3617 13.4004 12.2522V13.3988" stroke="#707070" stroke-linecap="round" stroke-linejoin="round"/>
<path d="M15.9992 22.4994C16.7172 22.4994 17.2992 21.9174 17.2992 21.1994C17.2992 20.4814 16.7172 19.8994 15.9992 19.8994C15.2812 19.8994 14.6992 20.4814 14.6992 21.1994C14.6992 21.9174 15.2812 22.4994 15.9992 22.4994Z" fill="#707070"/>
</svg>
