<svg width="20" height="20" viewBox="0 0 20 20" fill="none" xmlns="http://www.w3.org/2000/svg">
<g filter="url(#filter0_d_1801_11300)">
<path d="M14.5749 4.61352L14.5606 4.6097L13.8313 4.37329C13.6093 4.2996 13.4076 4.17515 13.2421 4.00983C13.0766 3.84452 12.952 3.64289 12.8781 3.42097L12.6416 2.69266C12.6219 2.63635 12.5852 2.58757 12.5365 2.55305C12.4878 2.51854 12.4296 2.5 12.37 2.5C12.3103 2.5 12.2521 2.51854 12.2034 2.55305C12.1548 2.58757 12.118 2.63635 12.0983 2.69266L11.86 3.42097C11.7878 3.64123 11.6657 3.84181 11.5031 4.00703C11.3405 4.17224 11.142 4.29759 10.9229 4.37329L10.3566 4.55727H10.3538L10.1898 4.6097C10.1335 4.62958 10.0848 4.66658 10.0506 4.71552C10.0246 4.75173 10.0073 4.79354 10.0003 4.83761C9.99329 4.88167 9.99668 4.92677 10.0102 4.96929C10.0237 5.01181 10.047 5.05058 10.0782 5.08249C10.1094 5.1144 10.1476 5.13857 10.1898 5.15307L10.921 5.39044L11.0001 5.41904L11.0077 5.42094C11.1979 5.49761 11.3704 5.61233 11.5147 5.75806C11.6589 5.90379 11.7719 6.07746 11.8466 6.26841L11.8752 6.34467L12.1116 7.07393C12.1314 7.13037 12.1683 7.17924 12.2172 7.21375C12.266 7.24826 12.3244 7.26669 12.3843 7.26649H12.3881C12.4471 7.26571 12.5044 7.24682 12.5523 7.21238C12.6002 7.17794 12.6364 7.12961 12.6559 7.07393L12.8933 6.34562C12.967 6.12373 13.0915 5.9221 13.2568 5.75677C13.4221 5.59144 13.6237 5.46698 13.8456 5.3933L14.5749 5.15688C14.6308 5.13671 14.6791 5.0998 14.7132 5.05119C14.7473 5.00257 14.7657 4.94461 14.7657 4.8852C14.7657 4.82579 14.7473 4.76783 14.7132 4.71921C14.6791 4.6706 14.6308 4.63369 14.5749 4.61352ZM15.9247 7.81176L16.5081 8.00146L16.5205 8.00432C16.5651 8.02048 16.6036 8.04996 16.6308 8.08877C16.658 8.12757 16.6726 8.17381 16.6726 8.22119C16.6726 8.26858 16.658 8.31482 16.6308 8.35362C16.6036 8.39243 16.5651 8.42191 16.5205 8.43807L15.9362 8.62872C15.7589 8.68766 15.5977 8.78709 15.4655 8.91913C15.3333 9.05117 15.2337 9.2122 15.1745 9.38944L14.9848 9.97284C14.9685 10.0187 14.9379 10.0582 14.8977 10.0857C14.8574 10.1131 14.8095 10.127 14.7608 10.1254C14.7138 10.1252 14.668 10.1104 14.6297 10.0831C14.5915 10.0558 14.5627 10.0173 14.5472 9.97284L14.3566 9.38944C14.2975 9.21181 14.1977 9.05041 14.0654 8.91804C13.933 8.78566 13.7716 8.68595 13.594 8.62681L13.5711 8.61919L13.5701 8.61633L13.0144 8.43521C12.9698 8.41905 12.9313 8.38956 12.9041 8.35076C12.8769 8.31196 12.8623 8.26572 12.8623 8.21833C12.8623 8.17095 12.8769 8.12471 12.9041 8.08591C12.9313 8.0471 12.9698 8.01762 13.0144 8.00146L13.5987 7.81081C13.774 7.75043 13.9329 7.65035 14.063 7.51838C14.1932 7.38642 14.291 7.22615 14.349 7.05009L14.5387 6.46669C14.5546 6.42181 14.5841 6.38298 14.623 6.35552C14.6619 6.32806 14.7084 6.31332 14.756 6.31332C14.8036 6.31332 14.8501 6.32806 14.889 6.35552C14.9279 6.38298 14.9574 6.42181 14.9734 6.46669L15.1631 7.05009C15.222 7.22758 15.3215 7.38886 15.4537 7.5211C15.586 7.65333 15.7472 7.75286 15.9247 7.81176ZM9.10403 5.25793C9.11522 5.2928 9.12794 5.32715 9.14216 5.36089L9.04779 5.35993C8.12361 5.36007 7.21939 5.62888 6.44523 6.13365C5.67107 6.63841 5.06034 7.35735 4.68741 8.20295C4.31448 9.04855 4.19542 9.98433 4.34473 10.8964C4.49404 11.8084 4.90528 12.6574 5.52838 13.3399C6.15149 14.0225 6.95958 14.5091 7.85429 14.7407C8.74899 14.9722 9.69172 14.9387 10.5677 14.6441C11.4437 14.3495 12.2151 13.8067 12.7881 13.0816C13.3612 12.3565 13.711 11.4804 13.7951 10.5601C13.8953 10.7082 14.0279 10.8317 14.1828 10.9212C14.3377 11.0107 14.5109 11.0639 14.6893 11.0767C14.4477 12.4886 13.6853 13.7585 12.5528 14.6355C11.4204 15.5125 10.0001 15.9328 8.57271 15.8134C7.14532 15.694 5.81464 15.0435 4.84359 13.9906C3.87255 12.9376 3.33177 11.5587 3.32813 10.1263C3.32803 9.36736 3.47898 8.61597 3.77218 7.91593C4.06539 7.21589 4.49498 6.58121 5.03594 6.04886C5.57689 5.51651 6.21838 5.09715 6.92303 4.81521C7.62768 4.53327 8.3814 4.39439 9.14026 4.40666C9.02795 4.67721 9.01511 4.97881 9.10403 5.25793ZM7.37955 9.888C7.56917 9.888 7.75103 9.81267 7.88511 9.67859C8.01919 9.54451 8.09451 9.36266 8.09451 9.17304C8.09451 8.98342 8.01919 8.80157 7.88511 8.66749C7.75103 8.53341 7.56917 8.45808 7.37955 8.45808C7.18994 8.45808 7.00808 8.53341 6.874 8.66749C6.73992 8.80157 6.6646 8.98342 6.6646 9.17304C6.6646 9.36266 6.73992 9.54451 6.874 9.67859C7.00808 9.81267 7.18994 9.888 7.37955 9.888ZM7.27088 11.7154C7.22932 11.6681 7.1788 11.6295 7.12223 11.6019C7.06567 11.5742 7.00418 11.558 6.94133 11.5543C6.87848 11.5505 6.81551 11.5592 6.75604 11.5799C6.69658 11.6007 6.64182 11.6329 6.5949 11.6749C6.54799 11.7169 6.50987 11.7678 6.48273 11.8246C6.4556 11.8815 6.43999 11.9431 6.43681 12.006C6.43363 12.0689 6.44293 12.1318 6.4642 12.191C6.48546 12.2503 6.51826 12.3047 6.56069 12.3513C6.87346 12.7014 7.25674 12.9814 7.68537 13.173C8.114 13.3646 8.5783 13.4633 9.04779 13.4628C9.51728 13.4633 9.98158 13.3646 10.4102 13.173C10.8388 12.9814 11.2221 12.7014 11.5349 12.3513C11.6178 12.2569 11.6601 12.1336 11.6526 12.0081C11.6451 11.8827 11.5884 11.7653 11.4948 11.6815C11.4012 11.5977 11.2783 11.5543 11.1528 11.5606C11.0273 11.567 10.9094 11.6226 10.8247 11.7154C10.6014 11.9658 10.3276 12.1659 10.0213 12.3028C9.71503 12.4397 9.38325 12.5101 9.04779 12.5095C8.34236 12.5095 7.70844 12.2035 7.27088 11.7154ZM11.431 9.17304C11.431 9.36266 11.3557 9.54451 11.2216 9.67859C11.0875 9.81267 10.9056 9.888 10.716 9.888C10.5264 9.888 10.3446 9.81267 10.2105 9.67859C10.0764 9.54451 10.0011 9.36266 10.0011 9.17304C10.0011 8.98342 10.0764 8.80157 10.2105 8.66749C10.3446 8.53341 10.5264 8.45808 10.716 8.45808C10.9056 8.45808 11.0875 8.53341 11.2216 8.66749C11.3557 8.80157 11.431 8.98342 11.431 9.17304Z" fill="#707070"/>
</g>
<defs>
<filter id="filter0_d_1801_11300" x="3.32812" y="2.5" width="15.3438" height="15.333" filterUnits="userSpaceOnUse" color-interpolation-filters="sRGB">
<feFlood flood-opacity="0" result="BackgroundImageFix"/>
<feColorMatrix in="SourceAlpha" type="matrix" values="0 0 0 0 0 0 0 0 0 0 0 0 0 0 0 0 0 0 127 0" result="hardAlpha"/>
<feOffset dx="1" dy="1"/>
<feGaussianBlur stdDeviation="0.5"/>
<feComposite in2="hardAlpha" operator="out"/>
<feColorMatrix type="matrix" values="0 0 0 0 0 0 0 0 0 0 0 0 0 0 0 0 0 0 0.16 0"/>
<feBlend mode="normal" in2="BackgroundImageFix" result="effect1_dropShadow_1801_11300"/>
<feBlend mode="normal" in="SourceGraphic" in2="effect1_dropShadow_1801_11300" result="shape"/>
</filter>
</defs>
</svg>
