<svg width="24" height="24" viewBox="0 0 24 24" fill="none" xmlns="http://www.w3.org/2000/svg">
<g opacity="0.85">
<path fill-rule="evenodd" clip-rule="evenodd" d="M11.875 2.37492C10.4163 2.37492 9.01738 2.95439 7.98592 3.98584C6.95447 5.0173 6.37501 6.41625 6.37501 7.87494C6.37501 9.33364 6.95447 10.7326 7.98592 11.764C9.01738 12.7955 10.4163 13.375 11.875 13.375C13.3337 13.375 14.7327 12.7955 15.7641 11.764C16.7956 10.7326 17.375 9.33364 17.375 7.87494C17.375 6.41625 16.7956 5.0173 15.7641 3.98584C14.7327 2.95439 13.3337 2.37492 11.875 2.37492ZM5 7.87494C5.00002 6.54451 5.38606 5.24266 6.11132 4.12728C6.83657 3.0119 7.86988 2.13092 9.08591 1.59118C10.3019 1.05143 11.6485 0.876122 12.9622 1.0865C14.2759 1.29688 15.5003 1.88391 16.487 2.7764C17.4736 3.66889 18.1802 4.8285 18.5208 6.11457C18.8615 7.40065 18.8217 8.75795 18.4063 10.0219C17.9908 11.2858 17.2176 12.402 16.1803 13.2351C15.143 14.0683 13.8863 14.5826 12.5625 14.7156V17.5H15.3125C15.4949 17.5 15.6697 17.5724 15.7987 17.7013C15.9276 17.8303 16 18.0051 16 18.1875C16 18.3698 15.9276 18.5447 15.7987 18.6736C15.6697 18.8026 15.4949 18.875 15.3125 18.875H12.5625V22.3125C12.5625 22.4948 12.4901 22.6697 12.3612 22.7986C12.2322 22.9276 12.0574 23 11.875 23C11.6927 23 11.5178 22.9276 11.3889 22.7986C11.26 22.6697 11.1875 22.4948 11.1875 22.3125V18.875H8.43751C8.25518 18.875 8.08031 18.8026 7.95138 18.6736C7.82244 18.5447 7.75001 18.3698 7.75001 18.1875C7.75001 18.0051 7.82244 17.8303 7.95138 17.7013C8.08031 17.5724 8.25518 17.5 8.43751 17.5H11.1875V14.7156C9.49171 14.5452 7.91965 13.7509 6.77634 12.4869C5.63303 11.2229 4.99998 9.5793 5 7.87494Z" fill="#787875"/>
</g>
</svg>
