<svg width="20" height="20" viewBox="0 0 20 20" fill="none" xmlns="http://www.w3.org/2000/svg">
<g opacity="0.85">
<path d="M8.22222 10.4441C8.57241 10.4441 8.91918 10.3751 9.24271 10.2411C9.56625 10.1071 9.86022 9.91069 10.1078 9.66307C10.3555 9.41545 10.5519 9.12148 10.6859 8.79794C10.8199 8.47441 10.8889 8.12764 10.8889 7.77745V5.99967C10.8889 5.29243 10.6079 4.61415 10.1078 4.11406C9.60774 3.61396 8.92947 3.33301 8.22222 3.33301C7.51498 3.33301 6.8367 3.61396 6.3366 4.11406C5.83651 4.61415 5.55556 5.29243 5.55556 5.99967V7.77745C5.55556 8.12764 5.62453 8.47441 5.75854 8.79794C5.89256 9.12148 6.08898 9.41545 6.3366 9.66307C6.58423 9.91069 6.8782 10.1071 7.20173 10.2411C7.52527 10.3751 7.87203 10.4441 8.22222 10.4441ZM8.22222 10.4441C11.168 10.4441 14.4444 12.2975 14.4444 15.1303V15.7775C14.4444 16.0132 14.3508 16.2393 14.1841 16.406C14.0174 16.5727 13.7913 16.6663 13.5556 16.6663H2.88889C2.65314 16.6663 2.42705 16.5727 2.26035 16.406C2.09365 16.2393 2 16.0132 2 15.7775V15.1303C2 12.2975 5.27644 10.4441 8.22222 10.4441Z" stroke="#707070" stroke-linecap="round" stroke-linejoin="round"/>
<path fill-rule="evenodd" clip-rule="evenodd" d="M11.7951 3.49121C12.3107 3.67776 12.7563 4.01866 13.0712 4.46751C13.3862 4.91635 13.5551 5.45135 13.5551 5.99966V6.88854C13.5551 8.04143 12.8013 9.18277 11.7773 9.55521C12.3765 8.73832 12.6751 7.70099 12.6751 6.4441C12.6751 5.18721 12.3809 4.20143 11.7951 3.49121ZM16.2218 16.6663H17.1107C17.3464 16.6663 17.5725 16.5727 17.7392 16.406C17.9059 16.2393 17.9996 16.0132 17.9996 15.7774V15.1303C17.9996 13.2014 16.4796 11.7259 14.58 10.9819C14.58 10.9819 17.1107 13.1108 16.2218 16.6663Z" fill="#707070"/>
</g>
</svg>
