<svg width="24" height="24" viewBox="0 0 24 24" fill="none" xmlns="http://www.w3.org/2000/svg">
<g opacity="0.85">
<path fill-rule="evenodd" clip-rule="evenodd" d="M12.0019 15.1895C11.142 15.1895 10.3174 14.8479 9.70934 14.2399C9.10133 13.6319 8.75975 12.8073 8.75975 11.9474C8.75975 11.0875 9.10133 10.2629 9.70934 9.65488C10.3174 9.04686 11.142 8.70528 12.0019 8.70528C12.8617 8.70528 13.6864 9.04686 14.2944 9.65488C14.9024 10.2629 15.244 11.0875 15.244 11.9474C15.244 12.8073 14.9024 13.6319 14.2944 14.2399C13.6864 14.8479 12.8617 15.1895 12.0019 15.1895ZM7.94922 11.9474C7.94923 12.7317 8.17679 13.4991 8.60431 14.1566C9.03183 14.814 9.64093 15.3334 10.3578 15.6515C11.0746 15.9697 11.8683 16.073 12.6427 15.949C13.4171 15.825 14.1389 15.479 14.7205 14.9529C15.3021 14.4268 15.7186 13.7432 15.9194 12.9851C16.1202 12.227 16.0968 11.4269 15.8519 10.6819C15.607 9.93681 15.1512 9.27883 14.5397 8.78772C13.9283 8.2966 13.1875 7.99344 12.4071 7.91502V6.2737C12.4071 6.2737 12.4071 5.57065 12.4071 5.46317V5.20527C12.4071 5.09778 12.3644 4.9947 12.2884 4.9187C12.2124 4.8427 12.1093 4.8 12.0019 4.8C11.8944 4.8 11.7913 4.8427 11.7153 4.9187C11.6393 4.9947 11.5966 5.09778 11.5966 5.20527V5.46317V6.2737V7.91502C10.597 8.01549 9.67028 8.48368 8.99633 9.22877C8.32237 9.97386 7.94921 10.9427 7.94922 11.9474Z" fill="#111111"/>
<path fill-rule="evenodd" clip-rule="evenodd" d="M16.708 6.97231C16.6098 6.9375 16.5294 6.8651 16.4846 6.77104C16.4398 6.67698 16.4342 6.56897 16.469 6.47077C16.5038 6.37257 16.5762 6.29222 16.6703 6.24741C16.7643 6.20259 16.8723 6.19697 16.9705 6.23178L20.6732 7.54455C20.7714 7.57937 20.8517 7.65177 20.8965 7.74582C20.9414 7.83988 20.947 7.94789 20.9122 8.04609L19.5994 11.7487C19.5646 11.8469 19.4922 11.9273 19.3981 11.9721C19.3041 12.0169 19.1961 12.0225 19.0979 11.9877C18.9997 11.9529 18.9193 11.8805 18.8745 11.7865C18.8297 11.6924 18.8241 11.5844 18.8589 11.4862L19.8547 8.67736L15.713 10.6509C16.0534 11.5996 16.0162 12.6427 15.6091 13.5647C15.2019 14.4867 14.456 15.2169 13.5256 15.6043C12.5952 15.9918 11.5515 16.0069 10.6103 15.6464C9.66913 15.2859 8.90249 14.5775 8.46894 13.6677C8.03539 12.7578 7.96811 11.7162 8.28102 10.7581C8.59392 9.80006 9.26307 8.99892 10.1501 8.52037C11.0371 8.04183 12.0741 7.92249 13.0466 8.18705C14.0191 8.4516 14.8527 9.07981 15.3751 9.94174L19.5168 7.96818L16.708 6.97231ZM13.0659 9.0155C12.2803 8.73697 11.4162 8.78192 10.6638 9.14047C9.91131 9.49902 9.3321 10.1418 9.05357 10.9274C8.77504 11.713 8.81999 12.5771 9.17854 13.3295C9.5371 14.082 10.1799 14.6612 10.9655 14.9397C11.7511 15.2183 12.6152 15.1733 13.3676 14.8148C14.1201 14.4562 14.6993 13.8134 14.9778 13.0278C15.2563 12.2422 15.2114 11.3782 14.8528 10.6257C14.4943 9.87324 13.8515 9.29403 13.0659 9.0155Z" fill="#111111"/>
<path fill-rule="evenodd" clip-rule="evenodd" d="M12 8.81245C11.1513 8.81245 10.3374 9.15487 9.73726 9.76436C9.13714 10.3739 8.8 11.2005 8.8 12.0625C8.8 12.9244 9.13714 13.7511 9.73726 14.3606C10.3374 14.9701 11.1513 15.3125 12 15.3125C12.8487 15.3125 13.6626 14.9701 14.2627 14.3606C14.8629 13.7511 15.2 12.9244 15.2 12.0625C15.2 11.2005 14.8629 10.3739 14.2627 9.76436C13.6626 9.15487 12.8487 8.81245 12 8.81245ZM8 12.0625C8.00001 11.2763 8.22462 10.507 8.64658 9.84794C9.06855 9.18885 9.66974 8.66827 10.3772 8.34933C11.0848 8.03039 11.8682 7.9268 12.6325 8.05111C13.3968 8.17543 14.1092 8.52231 14.6833 9.04969C15.2574 9.57707 15.6684 10.2623 15.8666 11.0222C16.0649 11.7822 16.0417 12.5842 15.8 13.3311C15.5583 14.078 15.1084 14.7375 14.5049 15.2298C13.9014 15.7222 13.1702 16.0261 12.4 16.1047V17.75H14C14.1061 17.75 14.2078 17.7928 14.2828 17.869C14.3579 17.9452 14.4 18.0485 14.4 18.1562C14.4 18.264 14.3579 18.3673 14.2828 18.4435C14.2078 18.5197 14.1061 18.5625 14 18.5625H12.4V20.5937C12.4 20.7015 12.3579 20.8048 12.2828 20.881C12.2078 20.9572 12.1061 21 12 21C11.8939 21 11.7922 20.9572 11.7172 20.881C11.6421 20.8048 11.6 20.7015 11.6 20.5937V18.5625H10C9.89391 18.5625 9.79217 18.5197 9.71716 18.4435C9.64214 18.3673 9.6 18.264 9.6 18.1562C9.6 18.0485 9.64214 17.9452 9.71716 17.869C9.79217 17.7928 9.89391 17.75 10 17.75H11.6V16.1047C10.6133 16.004 9.6987 15.5346 9.0335 14.7877C8.36831 14.0408 7.99999 13.0696 8 12.0625Z" fill="#111111"/>
<path d="M11.9974 1C12.1105 1 12.2189 1.04492 12.2988 1.12487C12.3788 1.20481 12.4237 1.31325 12.4237 1.42632V2.96162L13.7532 2.19368C13.8511 2.13804 13.967 2.12337 14.0756 2.15286C14.1843 2.18236 14.2769 2.25363 14.3331 2.35113C14.3894 2.44862 14.4049 2.56442 14.3761 2.67325C14.3473 2.78209 14.2767 2.87513 14.1796 2.93206L12.85 3.7L14.1796 4.46765C14.2767 4.52459 14.3473 4.61762 14.3761 4.72646C14.4049 4.8353 14.3894 4.9511 14.3331 5.04859C14.2769 5.14608 14.1843 5.21735 14.0756 5.24685C13.967 5.27635 13.8511 5.26167 13.7532 5.20603L12.4237 4.43866V5.97368C12.4237 6.08675 12.3788 6.19518 12.2988 6.27513C12.2189 6.35508 12.1105 6.4 11.9974 6.4C11.8843 6.4 11.7759 6.35508 11.6959 6.27513C11.616 6.19518 11.5711 6.08675 11.5711 5.97368V4.43838L10.2415 5.20632C10.193 5.23475 10.1394 5.25331 10.0837 5.26093C10.028 5.26854 9.97131 5.26507 9.91696 5.25069C9.8626 5.23632 9.81163 5.21134 9.76697 5.17719C9.7223 5.14304 9.68484 5.10039 9.65673 5.0517C9.62862 5.00301 9.61041 4.94924 9.60317 4.89349C9.59592 4.83774 9.59977 4.7811 9.6145 4.72684C9.62923 4.67258 9.65455 4.62177 9.689 4.57734C9.72345 4.53291 9.76634 4.49573 9.81522 4.46794L11.1448 3.7L9.81522 2.93235C9.7181 2.87541 9.64744 2.78238 9.61867 2.67354C9.58989 2.5647 9.60534 2.4489 9.66163 2.35141C9.71791 2.25392 9.81048 2.18265 9.91912 2.15315C10.0278 2.12365 10.1437 2.13833 10.2415 2.19397L11.5711 2.96134V1.42632C11.5711 1.31325 11.616 1.20481 11.6959 1.12487C11.7759 1.04492 11.8843 1 11.9974 1Z" fill="#111111"/>
</g>
</svg>
