<svg width="20" height="20" viewBox="0 0 20 20" fill="none" xmlns="http://www.w3.org/2000/svg">
<g opacity="0.85">
<path d="M3.32227 6.67025H16.6781M4.98893 3.33691H15.0114C15.2303 3.33691 15.447 3.38002 15.6492 3.46378C15.8514 3.54754 16.0352 3.67031 16.1899 3.82507C16.3447 3.97983 16.4675 4.16357 16.5512 4.36578C16.635 4.56798 16.6781 4.78471 16.6781 5.00358V14.9952C16.6782 15.4157 16.5194 15.8207 16.2335 16.129C15.9476 16.4374 15.5557 16.6262 15.1364 16.6577L15.0031 16.6627L4.9806 16.6144C4.54002 16.6122 4.11823 16.4356 3.80747 16.1233C3.49671 15.811 3.32226 15.3883 3.32227 14.9477V5.00358C3.32227 4.56155 3.49786 4.13763 3.81042 3.82507C4.12298 3.51251 4.5469 3.33691 4.98893 3.33691Z" stroke="#707070" stroke-linecap="round" stroke-linejoin="round"/>
<path opacity="0.5" d="M7.48893 12.5033C8.40941 12.5033 9.1556 11.7571 9.1556 10.8366C9.1556 9.91611 8.40941 9.16992 7.48893 9.16992C6.56846 9.16992 5.82227 9.91611 5.82227 10.8366C5.82227 11.7571 6.56846 12.5033 7.48893 12.5033Z" fill="#111111"/>
</g>
</svg>
