<svg width="20" height="21" viewBox="0 0 20 21" fill="none" xmlns="http://www.w3.org/2000/svg">
<path d="M15.4034 5.11749L15.3891 5.11368L14.6605 4.87747C14.4387 4.80384 14.2371 4.67949 14.0717 4.51431C13.9064 4.34914 13.7818 4.14768 13.708 3.92594L13.4718 3.19824C13.4521 3.14198 13.4153 3.09323 13.3667 3.05875C13.3181 3.02426 13.2599 3.00574 13.2003 3.00574C13.1407 3.00574 13.0826 3.02426 13.0339 3.05875C12.9853 3.09323 12.9486 3.14198 12.9289 3.19824L12.6907 3.92594C12.6187 4.14602 12.4966 4.34643 12.3342 4.51151C12.1718 4.67658 11.9733 4.80183 11.7545 4.87747L11.1887 5.0613H11.1858L11.022 5.11368C10.9657 5.13354 10.9171 5.17051 10.8829 5.21941C10.8569 5.25559 10.8397 5.29737 10.8326 5.3414C10.8256 5.38543 10.829 5.43049 10.8425 5.47297C10.856 5.51546 10.8793 5.55419 10.9105 5.58608C10.9416 5.61796 10.9798 5.64211 11.022 5.6566L11.7525 5.89377L11.8316 5.92234L11.8392 5.92425C12.0292 6.00085 12.2016 6.11548 12.3457 6.26109C12.4899 6.40669 12.6027 6.58022 12.6774 6.77101L12.706 6.8472L12.9422 7.57585C12.962 7.63225 12.9989 7.68108 13.0477 7.71556C13.0965 7.75004 13.1548 7.76846 13.2146 7.76826H13.2184C13.2774 7.76748 13.3347 7.74861 13.3825 7.71419C13.4304 7.67978 13.4665 7.63149 13.4861 7.57585L13.7232 6.84816C13.7969 6.62645 13.9212 6.42498 14.0864 6.25979C14.2516 6.0946 14.4531 5.97025 14.6748 5.89663L15.4034 5.66041C15.4592 5.64026 15.5075 5.60338 15.5416 5.5548C15.5757 5.50622 15.594 5.44831 15.594 5.38895C15.594 5.32959 15.5757 5.27168 15.5416 5.2231C15.5075 5.17453 15.4592 5.13765 15.4034 5.11749ZM16.7521 8.31308L17.3351 8.50262L17.3474 8.50548C17.3919 8.52162 17.4304 8.55108 17.4576 8.58985C17.4848 8.62862 17.4993 8.67482 17.4993 8.72217C17.4993 8.76952 17.4848 8.81572 17.4576 8.85449C17.4304 8.89326 17.3919 8.92271 17.3474 8.93886L16.7636 9.12935C16.5864 9.18824 16.4254 9.28759 16.2933 9.41952C16.1612 9.55146 16.0616 9.71235 16.0025 9.88944L15.813 10.4724C15.7967 10.5182 15.7662 10.5577 15.7259 10.5851C15.6857 10.6125 15.6378 10.6264 15.5892 10.6248C15.5422 10.6246 15.4964 10.6098 15.4582 10.5825C15.42 10.5552 15.3912 10.5167 15.3758 10.4724L15.1853 9.88944C15.1262 9.71196 15.0266 9.5507 14.8943 9.41843C14.7621 9.28616 14.6008 9.18654 14.4233 9.12745L14.4005 9.11983L14.3995 9.11697L13.8442 8.936C13.7997 8.91986 13.7612 8.8904 13.7341 8.85163C13.7069 8.81286 13.6923 8.76666 13.6923 8.71931C13.6923 8.67196 13.7069 8.62576 13.7341 8.58699C13.7612 8.54822 13.7997 8.51876 13.8442 8.50262L14.4281 8.31212C14.6032 8.25179 14.7619 8.1518 14.892 8.01994C15.022 7.88809 15.1198 7.72795 15.1777 7.55204L15.3672 6.96912C15.3832 6.92429 15.4126 6.88549 15.4515 6.85805C15.4904 6.83061 15.5368 6.81588 15.5844 6.81588C15.632 6.81588 15.6784 6.83061 15.7173 6.85805C15.7562 6.88549 15.7856 6.92429 15.8016 6.96912L15.9911 7.55204C16.05 7.72938 16.1494 7.89053 16.2815 8.02265C16.4136 8.15478 16.5748 8.25422 16.7521 8.31308ZM9.93711 5.76137C9.94829 5.79621 9.961 5.83053 9.97521 5.86424L9.88092 5.86329C8.9575 5.86343 8.05404 6.13202 7.28052 6.63636C6.50701 7.1407 5.89679 7.85905 5.52417 8.70394C5.15155 9.54883 5.03259 10.4838 5.18177 11.3951C5.33096 12.3064 5.74186 13.1547 6.36444 13.8366C6.98703 14.5186 7.79445 15.0049 8.68841 15.2362C9.58237 15.4676 10.5243 15.4341 11.3996 15.1397C12.2748 14.8454 13.0456 14.303 13.6182 13.5785C14.1907 12.854 14.5403 11.9787 14.6243 11.0591C14.7244 11.2071 14.8569 11.3305 15.0116 11.4199C15.1664 11.5094 15.3394 11.5625 15.5177 11.5753C15.2763 12.986 14.5146 14.2548 13.3831 15.1311C12.2515 16.0074 10.8324 16.4274 9.40623 16.3081C7.98003 16.1887 6.65046 15.5388 5.68022 14.4867C4.70998 13.4346 4.16966 12.0569 4.16602 10.6257C4.16592 9.86738 4.31674 9.11661 4.6097 8.41716C4.90266 7.7177 5.3319 7.08354 5.8724 6.55164C6.41291 6.01974 7.05386 5.60073 7.75793 5.31902C8.46199 5.03731 9.21508 4.89855 9.97331 4.9108C9.86109 5.18114 9.84827 5.48248 9.93711 5.76137ZM8.21407 10.3876C8.40353 10.3876 8.58523 10.3123 8.7192 10.1784C8.85317 10.0444 8.92843 9.86268 8.92843 9.67322C8.92843 9.48376 8.85317 9.30206 8.7192 9.16809C8.58523 9.03412 8.40353 8.95886 8.21407 8.95886C8.02461 8.95886 7.84291 9.03412 7.70894 9.16809C7.57497 9.30206 7.49971 9.48376 7.49971 9.67322C7.49971 9.86268 7.57497 10.0444 7.70894 10.1784C7.84291 10.3123 8.02461 10.3876 8.21407 10.3876ZM8.10549 12.2135C8.06396 12.1662 8.01348 12.1277 7.95696 12.1C7.90045 12.0724 7.83901 12.0562 7.77621 12.0525C7.71341 12.0487 7.65049 12.0574 7.59108 12.0781C7.53167 12.0988 7.47695 12.1311 7.43007 12.173C7.3832 12.215 7.34511 12.2658 7.318 12.3226C7.29088 12.3794 7.27529 12.441 7.27211 12.5038C7.26893 12.5666 7.27823 12.6295 7.29948 12.6887C7.32072 12.7479 7.35349 12.8023 7.39589 12.8488C7.7084 13.1987 8.09136 13.4785 8.51963 13.6699C8.94791 13.8613 9.41182 13.9599 9.88092 13.9594C10.35 13.9599 10.8139 13.8613 11.2422 13.6699C11.6705 13.4785 12.0534 13.1987 12.3659 12.8488C12.4488 12.7545 12.4911 12.6313 12.4836 12.506C12.4761 12.3807 12.4194 12.2634 12.3259 12.1796C12.2323 12.0959 12.1095 12.0525 11.9841 12.0588C11.8588 12.0651 11.741 12.1207 11.6563 12.2135C11.4332 12.4636 11.1596 12.6636 10.8536 12.8004C10.5476 12.9371 10.2161 13.0075 9.88092 13.0069C9.17608 13.0069 8.54268 12.7012 8.10549 12.2135ZM12.2621 9.67322C12.2621 9.86268 12.1869 10.0444 12.0529 10.1784C11.9189 10.3123 11.7372 10.3876 11.5478 10.3876C11.3583 10.3876 11.1766 10.3123 11.0426 10.1784C10.9087 10.0444 10.8334 9.86268 10.8334 9.67322C10.8334 9.48376 10.9087 9.30206 11.0426 9.16809C11.1766 9.03412 11.3583 8.95886 11.5478 8.95886C11.7372 8.95886 11.9189 9.03412 12.0529 9.16809C12.1869 9.30206 12.2621 9.48376 12.2621 9.67322Z" fill="#111111"/>
</svg>
