<svg width="24" height="24" viewBox="0 0 24 24" fill="none" xmlns="http://www.w3.org/2000/svg">
<g opacity="0.85">
<path fill-rule="evenodd" clip-rule="evenodd" d="M11.875 21.6251C10.4163 21.6251 9.01738 21.0456 7.98592 20.0142C6.95447 18.9827 6.37501 17.5838 6.37501 16.1251C6.37501 14.6664 6.95447 13.2674 7.98592 12.236C9.01738 11.2045 10.4163 10.625 11.875 10.625C13.3337 10.625 14.7327 11.2045 15.7641 12.236C16.7956 13.2674 17.375 14.6664 17.375 16.1251C17.375 17.5838 16.7956 18.9827 15.7641 20.0142C14.7327 21.0456 13.3337 21.6251 11.875 21.6251ZM5 16.1251C5.00002 17.4555 5.38606 18.7573 6.11132 19.8727C6.83657 20.9881 7.86988 21.8691 9.08591 22.4088C10.3019 22.9486 11.6485 23.1239 12.9622 22.9135C14.2759 22.7031 15.5003 22.1161 16.487 21.2236C17.4736 20.3311 18.1802 19.1715 18.5208 17.8854C18.8615 16.5993 18.8217 15.242 18.4063 13.9781C17.9908 12.7142 17.2176 11.598 16.1803 10.7649C15.143 9.93173 13.8863 9.41745 12.5625 9.28441V6.50002C12.5625 6.50002 12.5625 5.30735 12.5625 5.12502V4.6875C12.5625 4.50517 12.4901 4.3303 12.3612 4.20136C12.2322 4.07243 12.0574 4 11.875 4C11.6927 4 11.5178 4.07243 11.3889 4.20136C11.26 4.3303 11.1875 4.50517 11.1875 4.6875V5.12502V6.50002V9.28441C9.49171 9.45484 7.91965 10.2491 6.77634 11.5131C5.63303 12.7771 4.99998 14.4207 5 16.1251Z" fill="#787875"/>
<path d="M11.2507 3.00609L9.92339 2.24002L9.92339 2.24002L9.92283 2.2397C9.79114 2.16482 9.63517 2.14508 9.48897 2.18477C9.34277 2.22446 9.21821 2.32037 9.14246 2.45156C9.06671 2.58276 9.04593 2.73859 9.08466 2.88505C9.12338 3.03151 9.21846 3.1567 9.34914 3.23332L9.34972 3.23365L10.677 4.00002L9.35029 4.76633C9.35019 4.76639 9.35008 4.76645 9.34998 4.76651C9.28434 4.80389 9.22673 4.85385 9.18044 4.91355C9.13409 4.97335 9.10002 5.04172 9.0802 5.11473C9.06037 5.18775 9.05519 5.26396 9.06494 5.33899C9.07469 5.41401 9.09919 5.48637 9.13702 5.55189C9.17485 5.61741 9.22526 5.6748 9.28536 5.72076C9.34546 5.76672 9.41406 5.80033 9.48721 5.81967C9.56035 5.83901 9.6366 5.84369 9.71156 5.83344C9.78642 5.8232 9.85853 5.79828 9.92373 5.7601C9.92381 5.76005 9.9239 5.76 9.92398 5.75995L11.2507 4.99366V6.52632C11.2507 6.67847 11.3111 6.82438 11.4187 6.93197C11.5263 7.03956 11.6722 7.1 11.8244 7.1C11.9765 7.1 12.1224 7.03956 12.23 6.93197C12.3376 6.82438 12.398 6.67847 12.398 6.52632V4.99391L13.7253 5.75998L13.7259 5.7603C13.8576 5.83518 14.0135 5.85492 14.1597 5.81523C14.3059 5.77554 14.4305 5.67963 14.5062 5.54843C14.582 5.41724 14.6028 5.26141 14.564 5.11495C14.5253 4.96849 14.4302 4.84329 14.2996 4.76668L14.299 4.76635L12.9717 3.99998L14.299 3.23333L14.2996 3.23301C14.4302 3.15639 14.5253 3.03119 14.564 2.88473C14.6028 2.73827 14.582 2.58244 14.5062 2.45125C14.4305 2.32005 14.3059 2.22415 14.1597 2.18445C14.0135 2.14476 13.8576 2.16451 13.7259 2.23938L13.7253 2.23972L12.398 3.00634V1.47368C12.398 1.32153 12.3376 1.17561 12.23 1.06803C12.1224 0.960442 11.9765 0.9 11.8244 0.9C11.6722 0.9 11.5263 0.960442 11.4187 1.06803C11.3111 1.17561 11.2507 1.32153 11.2507 1.47368V3.00609Z" fill="#787875" stroke="#787875" stroke-width="0.2"/>
</g>
</svg>
