<svg width="20" height="20" viewBox="0 0 20 20" fill="none" xmlns="http://www.w3.org/2000/svg">
<path fill-rule="evenodd" clip-rule="evenodd" d="M10.0005 15.8327L10.4595 15.3156C10.9802 14.7192 11.4486 14.1533 11.8653 13.6151L12.2094 13.1613C13.6458 11.226 14.3644 9.68989 14.3644 8.55457C14.3644 6.13119 12.4108 4.16675 10.0005 4.16675C7.59025 4.16675 5.63672 6.13119 5.63672 8.55457C5.63672 9.68989 6.35529 11.226 7.79172 13.1613L8.13573 13.6151C8.73026 14.3769 9.35227 15.1161 10.0005 15.8327Z" stroke="#707070" stroke-linecap="round" stroke-linejoin="round"/>
<path d="M9.9999 10.3487C11.0041 10.3487 11.8182 9.53461 11.8182 8.53042C11.8182 7.52622 11.0041 6.71216 9.9999 6.71216C8.9957 6.71216 8.18164 7.52622 8.18164 8.53042C8.18164 9.53461 8.9957 10.3487 9.9999 10.3487Z" stroke="#707070" stroke-linecap="round" stroke-linejoin="round"/>
</svg>
