<svg width="24" height="24" viewBox="0 0 24 24" fill="none" xmlns="http://www.w3.org/2000/svg">
<g opacity="0.85">
<path fill-rule="evenodd" clip-rule="evenodd" d="M14.143 3.42854C13.9536 3.42854 13.7719 3.35329 13.638 3.21933C13.504 3.08538 13.4288 2.90371 13.4288 2.71427C13.4288 2.52483 13.504 2.34316 13.638 2.2092C13.7719 2.07525 13.9536 2 14.143 2H21.2857C21.4752 2 21.6568 2.07525 21.7908 2.2092C21.9247 2.34316 22 2.52483 22 2.71427V9.85696C22 10.0464 21.9247 10.2281 21.7908 10.362C21.6568 10.496 21.4752 10.5712 21.2857 10.5712C21.0963 10.5712 20.9146 10.496 20.7807 10.362C20.6467 10.2281 20.5715 10.0464 20.5715 9.85696V4.43852L14.673 10.337C15.8327 11.7558 16.4028 13.566 16.2653 15.3933C16.1277 17.2206 15.2932 18.9252 13.9342 20.1544C12.5752 21.3837 10.7958 22.0436 8.96388 21.9978C7.13199 21.9519 5.3878 21.2037 4.09205 19.908C2.7963 18.6122 2.04812 16.868 2.00224 15.0361C1.95636 13.2042 2.6163 11.4248 3.84557 10.0658C5.07483 8.70682 6.77939 7.87226 8.60668 7.73475C10.434 7.59723 12.2442 8.16728 13.663 9.32698L19.5615 3.42854H14.143ZM9.14315 9.1427C7.62766 9.1427 6.17424 9.74472 5.10263 10.8163C4.03102 11.8879 3.42899 13.3414 3.42899 14.8569C3.42899 16.3723 4.03102 17.8258 5.10263 18.8974C6.17424 19.969 7.62766 20.571 9.14315 20.571C10.6586 20.571 12.1121 19.969 13.1837 18.8974C14.2553 17.8258 14.8573 16.3723 14.8573 14.8569C14.8573 13.3414 14.2553 11.8879 13.1837 10.8163C12.1121 9.74472 10.6586 9.1427 9.14315 9.1427Z" fill="#787875"/>
</g>
</svg>
