<svg width="21" height="21" viewBox="0 0 21 21" fill="none" xmlns="http://www.w3.org/2000/svg">
<path fill-rule="evenodd" clip-rule="evenodd" d="M10.5005 16.3326L10.9595 15.8155C11.4802 15.2191 11.9486 14.6532 12.3653 14.115L12.7094 13.6612C14.1458 11.7258 14.8644 10.1898 14.8644 9.05444C14.8644 6.63107 12.9108 4.66663 10.5005 4.66663C8.09025 4.66663 6.13672 6.63107 6.13672 9.05444C6.13672 10.1898 6.85529 11.7258 8.29172 13.6612L8.63573 14.115C9.23026 14.8768 9.85227 15.616 10.5005 16.3326Z" stroke="#707070" stroke-linecap="round" stroke-linejoin="round"/>
<path d="M10.4999 10.8486C11.5041 10.8486 12.3182 10.0345 12.3182 9.03029C12.3182 8.0261 11.5041 7.21204 10.4999 7.21204C9.4957 7.21204 8.68164 8.0261 8.68164 9.03029C8.68164 10.0345 9.4957 10.8486 10.4999 10.8486Z" stroke="#707070" stroke-linecap="round" stroke-linejoin="round"/>
</svg>
