<svg width="20" height="21" viewBox="0 0 20 21" fill="none" xmlns="http://www.w3.org/2000/svg">
<path d="M4.1785 11.1574C3.77447 10.7516 3.49968 10.2352 3.38882 9.67336C3.27796 9.11154 3.33599 8.52948 3.55559 8.00061C3.77519 7.47174 4.14651 7.01976 4.62272 6.70171C5.09892 6.38365 5.65866 6.21377 6.2313 6.2135H10.9123C11.681 6.2135 12.4183 6.5189 12.962 7.06251C13.5056 7.60612 13.811 8.34341 13.811 9.11219C13.811 10.7125 12.5135 11.929 10.9123 11.929H8.57179" stroke="#707070" stroke-linecap="round" stroke-linejoin="round"/>
<path d="M15.8239 9.84288C16.2279 10.2487 16.5027 10.7651 16.6135 11.3269C16.7244 11.8887 16.6664 12.4708 16.4468 12.9996C16.2272 13.5285 15.8558 13.9805 15.3796 14.2985C14.9034 14.6166 14.3437 14.7865 13.7711 14.7868H9.0901C8.32132 14.7868 7.58402 14.4814 7.04041 13.9377C6.4968 13.3941 6.19141 12.6568 6.19141 11.8881C6.19141 10.2877 7.48882 9.07129 9.0901 9.07129H11.4306" stroke="#707070" stroke-linecap="round" stroke-linejoin="round"/>
</svg>
