<svg width="20" height="20" viewBox="0 0 20 20" fill="none" xmlns="http://www.w3.org/2000/svg">
<g opacity="0.85">
<path fill-rule="evenodd" clip-rule="evenodd" d="M10.0009 16.6655L10.5254 16.0745C11.1205 15.3929 11.6558 14.7463 12.1321 14.1312L12.5253 13.6125C14.1669 11.4007 14.9881 9.64517 14.9881 8.34766C14.9881 5.57809 12.7555 3.33301 10.0009 3.33301C7.24628 3.33301 5.01367 5.57809 5.01367 8.34766C5.01367 9.64517 5.8349 11.4007 7.47653 13.6125L7.86969 14.1312C8.54914 15.0018 9.26001 15.8465 10.0009 16.6655Z" stroke="#707070" stroke-linecap="round" stroke-linejoin="round"/>
<path d="M10.0018 10.3982C11.1495 10.3982 12.0798 9.46785 12.0798 8.3202C12.0798 7.17254 11.1495 6.24219 10.0018 6.24219C8.85418 6.24219 7.92383 7.17254 7.92383 8.3202C7.92383 9.46785 8.85418 10.3982 10.0018 10.3982Z" stroke="#707070" stroke-linecap="round" stroke-linejoin="round"/>
</g>
</svg>
