<svg width="30" height="30" viewBox="0 0 30 30" fill="none" xmlns="http://www.w3.org/2000/svg">
<path d="M12.3333 15.6667C12.8586 15.6667 13.3788 15.5632 13.8641 15.3622C14.3494 15.1612 14.7903 14.8665 15.1618 14.4951C15.5332 14.1237 15.8278 13.6827 16.0289 13.1974C16.2299 12.7121 16.3333 12.192 16.3333 11.6667V9C16.3333 7.93913 15.9119 6.92172 15.1618 6.17157C14.4116 5.42143 13.3942 5 12.3333 5C11.2725 5 10.2551 5.42143 9.50491 6.17157C8.75476 6.92172 8.33333 7.93913 8.33333 9V11.6667C8.33333 12.192 8.4368 12.7121 8.63782 13.1974C8.83883 13.6827 9.13347 14.1237 9.50491 14.4951C9.87634 14.8665 10.3173 15.1612 10.8026 15.3622C11.2879 15.5632 11.808 15.6667 12.3333 15.6667ZM12.3333 15.6667C16.752 15.6667 21.6667 18.4467 21.6667 22.696V23.6667C21.6667 24.0203 21.5262 24.3594 21.2761 24.6095C21.0261 24.8595 20.687 25 20.3333 25H4.33333C3.97971 25 3.64057 24.8595 3.39052 24.6095C3.14048 24.3594 3 24.0203 3 23.6667V22.696C3 18.4467 7.91467 15.6667 12.3333 15.6667Z" stroke="#707070" stroke-linecap="round" stroke-linejoin="round"/>
<path fill-rule="evenodd" clip-rule="evenodd" d="M17.6927 5.2373C18.4661 5.51712 19.1345 6.02847 19.6069 6.70175C20.0792 7.37502 20.3327 8.17751 20.3327 8.99997V10.3333C20.3327 12.0626 19.202 13.7746 17.666 14.3333C18.5647 13.108 19.0127 11.552 19.0127 9.66664C19.0127 7.7813 18.5713 6.30264 17.6927 5.2373ZM24.3327 25H25.666C26.0196 25 26.3588 24.8595 26.6088 24.6094C26.8589 24.3594 26.9993 24.0203 26.9993 23.6666V22.696C26.9993 19.8026 24.7193 17.5893 21.87 16.4733C21.87 16.4733 25.666 19.6666 24.3327 25Z" fill="#707070"/>
</svg>
