<svg width="20" height="20" viewBox="0 0 20 20" fill="none" xmlns="http://www.w3.org/2000/svg">
<g opacity="0.85">
<g opacity="0.8">
<path fill-rule="evenodd" clip-rule="evenodd" d="M6.72299 5.66486C5.82699 5.66486 4.96768 6.0208 4.33411 6.65437C3.70054 7.28794 3.3446 8.14725 3.3446 9.04325C3.3446 9.93926 3.70054 10.7986 4.33411 11.4321C4.96768 12.0657 5.82699 12.4216 6.72299 12.4216C7.619 12.4216 8.47831 12.0657 9.11188 11.4321C9.74545 10.7986 10.1014 9.93926 10.1014 9.04325C10.1014 8.14725 9.74545 7.28794 9.11188 6.65437C8.47831 6.0208 7.619 5.66486 6.72299 5.66486ZM2.5 9.04325C2.50001 8.22603 2.73714 7.42637 3.18263 6.74125C3.62812 6.05613 4.26282 5.51498 5.00977 5.18344C5.75673 4.85191 6.58383 4.74422 7.39077 4.87345C8.19771 5.00267 8.94982 5.36326 9.55588 5.91147C10.1619 6.45968 10.5959 7.17197 10.8052 7.96195C11.0145 8.75192 10.99 9.58564 10.7348 10.362C10.4796 11.1384 10.0047 11.824 9.36751 12.3358C8.73036 12.8475 7.95842 13.1634 7.14529 13.2451V14.9554H8.83449C8.94649 14.9554 9.0539 14.9999 9.1331 15.0791C9.2123 15.1583 9.25679 15.2657 9.25679 15.3777C9.25679 15.4897 9.2123 15.5972 9.1331 15.6764C9.0539 15.7555 8.94649 15.8 8.83449 15.8H7.14529V17.9115C7.14529 18.0235 7.1008 18.131 7.0216 18.2101C6.94241 18.2893 6.83499 18.3338 6.72299 18.3338C6.61099 18.3338 6.50358 18.2893 6.42438 18.2101C6.34519 18.131 6.30069 18.0235 6.30069 17.9115V15.8H4.6115C4.4995 15.8 4.39208 15.7555 4.31289 15.6764C4.23369 15.5972 4.1892 15.4897 4.1892 15.3777C4.1892 15.2657 4.23369 15.1583 4.31289 15.0791C4.39208 14.9999 4.4995 14.9554 4.6115 14.9554H6.30069V13.2451C5.25904 13.1404 4.2934 12.6526 3.59112 11.8762C2.88884 11.0997 2.49999 10.0902 2.5 9.04325Z" fill="#707070"/>
<path fill-rule="evenodd" clip-rule="evenodd" d="M13.8412 2.47135C13.7345 2.47135 13.6322 2.42898 13.5568 2.35355C13.4814 2.27813 13.439 2.17584 13.439 2.06917C13.439 1.96251 13.4814 1.86021 13.5568 1.78479C13.6322 1.70936 13.7345 1.66699 13.8412 1.66699H17.863C17.9697 1.66699 18.072 1.70936 18.1474 1.78479C18.2228 1.86021 18.2652 1.96251 18.2652 2.06917V6.09096C18.2652 6.19763 18.2228 6.29992 18.1474 6.37535C18.072 6.45077 17.9697 6.49314 17.863 6.49314C17.7563 6.49314 17.654 6.45077 17.5786 6.37535C17.5032 6.29992 17.4608 6.19763 17.4608 6.09096V3.04003L14.1396 6.36123C14.7926 7.16011 15.1136 8.1794 15.0361 9.20828C14.9587 10.2372 14.4888 11.1969 13.7236 11.8891C12.9584 12.5812 11.9565 12.9528 10.925 12.927C9.89354 12.9012 8.91145 12.4799 8.18186 11.7503C7.45227 11.0207 7.031 10.0386 7.00517 9.00716C6.97934 7.97569 7.35092 6.97374 8.04308 6.20855C8.73523 5.44336 9.695 4.97345 10.7239 4.89602C11.7528 4.81859 12.7721 5.13956 13.5709 5.79255L16.8921 2.47135H13.8412ZM11.026 5.68878C10.1726 5.68878 9.35427 6.02776 8.75089 6.63115C8.1475 7.23453 7.80852 8.0529 7.80852 8.90622C7.80852 9.75953 8.1475 10.5779 8.75089 11.1813C9.35427 11.7847 10.1726 12.1236 11.026 12.1236C11.8793 12.1236 12.6976 11.7847 13.301 11.1813C13.9044 10.5779 14.2434 9.75953 14.2434 8.90622C14.2434 8.0529 13.9044 7.23453 13.301 6.63115C12.6976 6.02776 11.8793 5.68878 11.026 5.68878Z" fill="#707070"/>
</g>
</g>
</svg>
