<svg width="32" height="32" viewBox="0 0 32 32" fill="none" xmlns="http://www.w3.org/2000/svg">
<path fill-rule="evenodd" clip-rule="evenodd" d="M9.33268 6.66602H22.666C23.3733 6.66602 24.0515 6.94697 24.5516 7.44706C25.0517 7.94716 25.3327 8.62544 25.3327 9.33268V22.666C25.3327 23.3733 25.0517 24.0515 24.5516 24.5516C24.0515 25.0517 23.3733 25.3327 22.666 25.3327H9.33268C8.62544 25.3327 7.94716 25.0517 7.44706 24.5516C6.94697 24.0515 6.66602 23.3733 6.66602 22.666V9.33268C6.66602 8.62544 6.94697 7.94716 7.44706 7.44706C7.94716 6.94697 8.62544 6.66602 9.33268 6.66602Z" stroke="#111111" stroke-linecap="round" stroke-linejoin="round"/>
<path d="M24 19.0463L20.5714 15.6177L17.1429 19.0292M21.7143 23.6177L11.4286 13.332L8 16.7606" stroke="#111111" stroke-linecap="round" stroke-linejoin="round"/>
<path d="M20.6654 12.6657C21.4017 12.6657 21.9987 12.0687 21.9987 11.3324C21.9987 10.596 21.4017 9.99902 20.6654 9.99902C19.929 9.99902 19.332 10.596 19.332 11.3324C19.332 12.0687 19.929 12.6657 20.6654 12.6657Z" fill="#111111"/>
</svg>
