<svg width="20" height="21" viewBox="0 0 20 21" fill="none" xmlns="http://www.w3.org/2000/svg">
<path d="M4.1785 11.1573C3.77447 10.7514 3.49968 10.2351 3.38882 9.67324C3.27796 9.11142 3.33599 8.52936 3.55559 8.00049C3.77519 7.47162 4.14651 7.01964 4.62272 6.70158C5.09892 6.38353 5.65866 6.21365 6.2313 6.21338H10.9123C11.681 6.21338 12.4183 6.51878 12.962 7.06239C13.5056 7.606 13.811 8.34329 13.811 9.11207C13.811 10.7124 12.5135 11.9288 10.9123 11.9288H8.57179" stroke="#707070" stroke-linecap="round" stroke-linejoin="round"/>
<path d="M15.8239 9.84263C16.2279 10.2484 16.5027 10.7648 16.6135 11.3266C16.7244 11.8885 16.6664 12.4705 16.4468 12.9994C16.2272 13.5283 15.8558 13.9802 15.3796 14.2983C14.9034 14.6164 14.3437 14.7862 13.7711 14.7865H9.0901C8.32132 14.7865 7.58402 14.4811 7.04041 13.9375C6.4968 13.3939 6.19141 12.6566 6.19141 11.8878C6.19141 10.2875 7.48882 9.07104 9.0901 9.07104H11.4306" stroke="#707070" stroke-linecap="round" stroke-linejoin="round"/>
</svg>
