<svg width="16" height="16" viewBox="0 0 16 16" fill="none" xmlns="http://www.w3.org/2000/svg">
<path d="M3.53268 9.51675C3.33268 9.31675 3.23824 9.07786 3.24935 8.80008C3.26046 8.5223 3.37157 8.30564 3.58268 8.15008C4.19379 7.68341 4.87446 7.31941 5.62468 7.05808C6.37446 6.79719 7.16602 6.66675 7.99935 6.66675C8.84379 6.66675 9.64113 6.80008 10.3913 7.06675C11.1411 7.33342 11.8216 7.70564 12.4327 8.18341C12.6438 8.33897 12.7522 8.55297 12.758 8.82541C12.7633 9.09741 12.666 9.33342 12.466 9.53341C12.2771 9.7223 12.0467 9.81964 11.7747 9.82541C11.5022 9.83075 11.2493 9.75564 11.016 9.60008C10.5827 9.30008 10.1133 9.06964 9.60802 8.90875C9.10224 8.74742 8.56602 8.66675 7.99935 8.66675C7.43268 8.66675 6.89668 8.75008 6.39135 8.91675C5.88557 9.08342 5.42157 9.31119 4.99935 9.60008C4.7549 9.76675 4.49668 9.84186 4.22468 9.82541C3.95224 9.80853 3.72157 9.70564 3.53268 9.51675ZM0.699349 6.70008C0.51046 6.51119 0.416016 6.28053 0.416016 6.00808C0.416016 5.73608 0.516016 5.51119 0.716016 5.33341C1.7049 4.50008 2.81602 3.84719 4.04935 3.37475C5.28268 2.90275 6.59935 2.66675 7.99935 2.66675C9.39935 2.66675 10.716 2.90275 11.9493 3.37475C13.1827 3.84719 14.2938 4.50008 15.2827 5.33341C15.4827 5.51119 15.5856 5.73341 15.5913 6.00008C15.5967 6.26675 15.4993 6.50008 15.2993 6.70008C15.1105 6.88897 14.88 6.98897 14.608 7.00008C14.3356 7.01119 14.0882 6.92786 13.866 6.75008C13.0549 6.09453 12.1522 5.58341 11.158 5.21675C10.1634 4.85008 9.11046 4.66675 7.99935 4.66675C6.88824 4.66675 5.83557 4.85008 4.84135 5.21675C3.84668 5.58341 2.94379 6.09453 2.13268 6.75008C1.91046 6.92786 1.66335 7.01119 1.39135 7.00008C1.1189 6.98897 0.888238 6.88897 0.699349 6.70008ZM7.99935 13.3334C7.62157 13.3334 7.3049 13.2056 7.04935 12.9501C6.79379 12.6945 6.66602 12.3779 6.66602 12.0001C6.66602 11.6223 6.79379 11.3056 7.04935 11.0501C7.3049 10.7945 7.62157 10.6667 7.99935 10.6667C8.37713 10.6667 8.69379 10.7945 8.94935 11.0501C9.2049 11.3056 9.33268 11.6223 9.33268 12.0001C9.33268 12.3779 9.2049 12.6945 8.94935 12.9501C8.69379 13.2056 8.37713 13.3334 7.99935 13.3334Z" fill="#707070"/>
</svg>
