<svg width="68" height="67" viewBox="0 0 68 67" fill="none" xmlns="http://www.w3.org/2000/svg">
<path d="M12.7446 47.2063H10.8281V60.7047H12.7446V47.2063Z" fill="#056B6B"/>
<path d="M19.0385 59.2859H4.53125V60.8749H19.0385V59.2859Z" fill="#056B6B"/>
<path d="M5.65907 59.2859H4.56055V62.6307H5.65907V59.2859Z" fill="#056B6B"/>
<path d="M19.0399 59.2859H17.9414V62.6307H19.0399V59.2859Z" fill="#056B6B"/>
<path d="M6.98144 64.1649C6.98144 64.5468 6.86887 64.9201 6.65798 65.2375C6.44709 65.5549 6.14737 65.8022 5.79678 65.948C5.4462 66.0939 5.06051 66.1317 4.68856 66.0567C4.31661 65.9817 3.97513 65.7972 3.70738 65.5267C3.43962 65.2562 3.25763 64.9118 3.18444 64.5371C3.11126 64.1624 3.15018 63.7743 3.29627 63.4219C3.44236 63.0695 3.68906 62.7686 4.00511 62.5574C4.32117 62.3463 4.69237 62.2343 5.0717 62.2356C5.32294 62.2361 5.57162 62.2863 5.80356 62.3835C6.03551 62.4807 6.24616 62.6229 6.42349 62.8021C6.60083 62.9813 6.74138 63.1938 6.83711 63.4277C6.93284 63.6615 6.98189 63.912 6.98144 64.1649Z" fill="#111111"/>
<path d="M5.96512 64.1656C5.96511 64.3456 5.91201 64.5215 5.81254 64.6711C5.71307 64.8206 5.57172 64.9371 5.40642 65.0056C5.24112 65.0742 5.05932 65.0918 4.88407 65.0562C4.70882 65.0205 4.54803 64.9333 4.42209 64.8056C4.29615 64.6779 4.21074 64.5153 4.17668 64.3387C4.14263 64.162 4.16147 63.9791 4.23081 63.8132C4.30015 63.6473 4.41688 63.5059 4.56618 63.4069C4.71548 63.3079 4.89062 63.2558 5.0694 63.2571C5.30758 63.2589 5.53539 63.3554 5.70318 63.5256C5.87097 63.6958 5.96512 63.9258 5.96512 64.1656Z" fill="#F5F5F5"/>
<path d="M20.415 64.1649C20.415 64.5466 20.3025 64.9198 20.0918 65.2371C19.8811 65.5545 19.5816 65.8018 19.2312 65.9477C18.8808 66.0936 18.4953 66.1316 18.1234 66.0569C17.7515 65.9822 17.4101 65.7981 17.1422 65.5279C16.8743 65.2578 16.692 64.9137 16.6184 64.5392C16.5449 64.1647 16.5833 63.7767 16.7289 63.4242C16.8745 63.0718 17.1206 62.7707 17.4362 62.5591C17.7519 62.3475 18.1227 62.2349 18.5019 62.2356C18.7534 62.2356 19.0025 62.2855 19.2348 62.3825C19.4671 62.4795 19.6782 62.6217 19.8559 62.8009C20.0336 62.9801 20.1744 63.1928 20.2704 63.4269C20.3663 63.6609 20.4155 63.9117 20.415 64.1649Z" fill="#111111"/>
<path d="M19.4026 64.1656C19.4026 64.3454 19.3496 64.5212 19.2503 64.6707C19.151 64.8202 19.0098 64.9366 18.8447 65.0053C18.6796 65.0739 18.498 65.0917 18.3228 65.0564C18.1477 65.0211 17.9869 64.9342 17.8608 64.8068C17.7347 64.6794 17.649 64.5172 17.6146 64.3408C17.5801 64.1643 17.5985 63.9815 17.6673 63.8156C17.7362 63.6496 17.8524 63.508 18.0012 63.4085C18.1501 63.3091 18.3249 63.2564 18.5035 63.2571C18.7423 63.258 18.971 63.3541 19.1395 63.5244C19.308 63.6947 19.4026 63.9252 19.4026 64.1656Z" fill="#F5F5F5"/>
<path d="M14.5451 48.9656H9.02539V51.8H14.5451V48.9656Z" fill="#056B6B"/>
<path d="M2.06861 49.5305C2.1734 49.6087 2.28832 49.6836 2.40662 49.7584H24.3771C26.5742 46.9512 21.4466 42.1875 19.1076 40.6461C17.4175 39.513 15.1427 37.9239 12.8105 37.3319C12.6402 37.164 12.4274 37.0463 12.1953 36.9916C9.30874 36.2192 2.68379 34.1503 1.08501 37.5803C-0.341379 40.6427 -0.321098 44.913 0.909249 48.0299C1.1434 48.6324 1.54612 49.1537 2.06861 49.5305Z" fill="#FDE723"/>
<path d="M18.7082 10.4032C18.7082 11.7643 17.9477 12.8702 17.0182 12.8702C16.0886 12.8702 15.3281 11.7643 15.3281 10.4032C15.3281 9.04215 16.0886 7.93628 17.0182 7.93628C17.9477 7.93628 18.7082 9.03875 18.7082 10.4032Z" fill="white"/>
<path d="M20.2028 22.4518C20.507 24.1974 20.9431 25.8205 22.0653 26.9604C22.9846 27.8961 24.3029 28.5256 25.6177 28.9407C27.1162 29.422 28.6789 29.6698 30.2518 29.6757C31.0326 29.7063 31.8134 29.6757 32.5942 29.6417C32.966 29.6213 33.3344 29.5873 33.7062 29.5498C33.8865 29.5317 34.0656 29.5113 34.2437 29.4886C33.6826 29.5566 34.5141 29.4409 34.558 29.4341C36.0047 29.1959 37.4514 29.7744 37.8705 31.326C38.2288 32.6361 37.4378 34.4225 35.9878 34.6606C31.8979 35.3412 27.5849 35.3412 23.6201 33.9801C21.5322 33.3101 19.6283 32.159 18.0599 30.6183C16.2887 28.8182 15.4403 26.3649 15.0178 23.9184C14.7542 22.4518 15.3761 20.9887 16.9005 20.5701C18.2153 20.2061 19.9426 21.0057 20.213 22.462L20.2028 22.4518Z" fill="#40404A"/>
<path d="M31.392 61.634C30.2157 57.7822 30.334 53.5595 28.5662 49.8914C27.5962 47.877 24.7163 47.1692 22.739 46.4887C19.8152 45.4679 16.9253 44.4199 13.9508 43.5794C10.7499 42.6811 12.3047 37.8357 15.5124 38.7306C18.8384 39.6595 22.063 40.8266 25.3146 41.9665C28.3093 43.0112 31.3041 44.3484 33.0077 47.0876C34.407 49.3402 34.8092 52.3651 35.1878 54.9376C35.3805 56.2578 35.3906 57.5917 35.5528 58.9153C35.7011 59.8145 35.7487 60.7276 35.6948 61.6374L31.392 61.634Z" fill="#343438"/>
<path d="M23.9072 61.6341C22.9607 57.8911 22.8931 53.91 21.2403 50.4052C18.6342 44.8929 11.6713 48.9829 7.55098 47.4551C1.46684 45.1991 3.90725 37.9276 10.0827 38.911C13.0335 39.3635 15.2102 41.1669 17.9143 42.1605C20.9226 43.2664 23.9342 44.6717 25.6614 47.5231C27.0844 49.8642 27.5103 52.9981 27.9092 55.6624C28.1154 57.0234 28.1323 58.4117 28.308 59.7796C28.3891 60.4091 28.4703 61.0284 28.4939 61.6341H23.9072Z" fill="#40404A"/>
<path d="M5.46386 22.1491C5.86947 21.2814 6.30212 20.6485 6.96124 20.2878C8.50593 19.4371 10.1791 19.1445 11.788 18.7362C11.8525 18.7211 11.9195 18.7211 11.984 18.7362C12.0485 18.7212 12.1156 18.7212 12.1801 18.7362C13.789 19.1445 15.4587 19.4371 17.0068 20.2878C17.6828 20.6485 18.0952 21.2814 18.5008 22.1491C18.8269 22.8011 19.0548 23.4983 19.1768 24.2179L18.5887 40.2343L4.67969 40.0846L4.78447 24.2179C4.90762 23.4981 5.1366 22.8009 5.46386 22.1491Z" fill="#343438"/>
<mask id="mask0_2851_9501" style="mask-type:luminance" maskUnits="userSpaceOnUse" x="4" y="18" width="16" height="23">
<path d="M5.46777 22.1491C5.87338 21.2814 6.30603 20.6485 6.96514 20.2878C8.50984 19.4371 10.183 19.1445 11.7919 18.7362C11.8564 18.7211 11.9234 18.7211 11.9879 18.7362C12.0524 18.7212 12.1195 18.7212 12.184 18.7362C13.7929 19.1445 15.4627 19.4371 17.0107 20.2878C17.6867 20.6485 18.0991 21.2814 18.5047 22.1491C18.8308 22.8011 19.0587 23.4983 19.1807 24.2179L18.5926 40.2343L4.68359 40.0846L4.78838 24.2179C4.91152 23.4981 5.1405 22.8009 5.46777 22.1491Z" fill="white"/>
</mask>
<g mask="url(#mask0_2851_9501)">
<path d="M6.96094 9.54858L12.8524 36.1201L18.7405 9.54858H6.96094Z" fill="#FDE723"/>
</g>
<path d="M35.1122 61.0722C35.1122 61.0722 37.4782 62.7736 38.9486 62.8484C40.4189 62.9233 44.0187 64.8186 40.0539 65.3698C40.0539 65.3698 35.1561 65.3052 34.0069 63.6685L33.9393 65.0636L31.7389 64.9853C31.7389 64.9853 30.4206 61.7187 31.9349 60.9021L35.1122 61.0722Z" fill="#111111"/>
<path d="M27.7845 61.3721C27.7845 61.3721 30.1506 63.0734 31.6209 63.1483C33.0912 63.2231 36.6707 65.1218 32.7262 65.6696C32.7262 65.6696 27.8285 65.605 26.6792 63.9683L26.6116 65.3668L24.4112 65.2579C24.4112 65.2579 23.0964 62.0084 24.6073 61.2053L27.7845 61.3721Z" fill="#111111"/>
<path d="M14.147 15.6433H11.1895V20.7814H14.147V15.6433Z" fill="#FEAF9A"/>
<g style="mix-blend-mode:multiply">
<path d="M14.1504 17.3174C13.7409 17.6792 13.2147 17.8787 12.6699 17.8787C12.1251 17.8787 11.5989 17.6792 11.1895 17.3174V15.6467H14.1504V17.3174Z" fill="#FFB39D"/>
</g>
<path d="M7.50401 10.5018C7.53443 11.7166 7.40936 13.1559 7.86567 14.3026C9.23798 17.7768 16.3159 17.8686 17.5259 14.1903C17.9214 12.9824 17.8268 11.5465 17.847 10.2909C17.8589 8.89804 17.798 7.50555 17.6645 6.11917C17.4549 3.80875 14.832 2.93427 12.9324 2.92065C11.2119 2.92065 7.88257 3.88021 7.67977 6.11577C7.53677 7.57312 7.47808 9.03761 7.50401 10.5018Z" fill="#FFB39D"/>
<path d="M16.1817 9.04143C15.8222 9.12131 15.4881 9.29005 15.2096 9.53242C14.9311 9.7748 14.7169 10.0832 14.5864 10.4297C14.3497 11.1919 14.8061 11.852 15.4145 12.2638L15.33 11.9235C15.2353 12.1345 15.09 12.3693 14.8263 12.3182C14.6979 12.291 14.5289 12.1889 14.3971 12.2229C14.3638 12.2339 14.334 12.2535 14.3107 12.2798C14.2873 12.306 14.2712 12.338 14.264 12.3724C14.2568 12.4069 14.2588 12.4427 14.2697 12.4762C14.2806 12.5097 14.3 12.5397 14.3261 12.5632C14.427 12.6729 14.557 12.7514 14.7007 12.7893C14.8444 12.8273 14.9958 12.8232 15.1373 12.7776C15.2862 12.721 15.4198 12.6299 15.5273 12.5117C15.6348 12.3934 15.7131 12.2514 15.7559 12.097C15.7692 12.0473 15.7663 11.9946 15.7474 11.9468C15.7285 11.8989 15.6947 11.8585 15.6511 11.8316C15.1542 11.5424 14.779 11.0558 14.9751 10.4706C15.1711 9.8853 15.7423 9.46677 16.2561 9.18434C16.3406 9.14011 16.2832 9.01081 16.1919 9.03122L16.1817 9.04143Z" fill="#F48364"/>
<path d="M17.2392 10.5938C17.2392 11.0395 17.033 11.4036 16.7761 11.4036C16.5192 11.4036 16.3164 11.0395 16.3164 10.5938C16.3164 10.148 16.5226 9.78052 16.7761 9.78052C17.0296 9.78052 17.2392 10.1446 17.2392 10.5938Z" fill="#3F1C25"/>
<path d="M12.0263 10.5938C12.0263 11.0395 11.8201 11.4036 11.5632 11.4036C11.3063 11.4036 11.1035 11.0395 11.1035 10.5938C11.1035 10.148 11.3097 9.78052 11.5632 9.78052C11.8167 9.78052 12.0263 10.1446 12.0263 10.5938Z" fill="#3F1C25"/>
<path d="M15.1208 13.7611C14.7646 14.0528 14.3156 14.2051 13.8566 14.1898C13.3733 14.149 12.9609 13.8665 12.5249 13.6862C12.4167 13.6386 12.3424 13.7985 12.4167 13.8733C12.8027 14.2588 13.3141 14.4908 13.8566 14.5267C14.3785 14.5395 14.8879 14.3646 15.2932 14.0333C15.452 13.9142 15.2932 13.642 15.1343 13.7611H15.1208Z" fill="#F48364"/>
<path d="M11.155 19.9475C11.2394 19.6499 11.4366 19.3976 11.704 19.2448C11.9714 19.0921 12.2877 19.0512 12.5848 19.1309C12.7498 19.178 12.9022 19.2617 13.0309 19.3759C13.24 19.335 13.4566 19.374 13.6385 19.4854C13.8204 19.5968 13.9545 19.7725 14.0145 19.9781C14.0694 20.1715 14.1056 20.3698 14.1227 20.5702C14.0889 20.2878 14.1227 20.6825 14.1498 20.7778C14.1543 20.9273 14.1419 21.0769 14.1126 21.2235C14.0671 21.4957 13.9486 21.7502 13.7699 21.9595C13.5912 22.1688 13.359 22.3249 13.0985 22.4111C12.3921 22.6084 11.7229 21.9993 11.3747 21.4481C11.1128 20.9949 11.0341 20.4576 11.155 19.9475Z" fill="#FDFDFD"/>
<path d="M10.2617 19.2367L11.3163 18.0627L12.763 18.7263L12.7731 18.7467L12.7866 18.7263L14.2299 18.0627L15.2845 19.2367L14.3212 21.7649L12.7731 19.5837L11.225 21.7649L10.2617 19.2367Z" fill="#F4DE14"/>
<path d="M13.3596 21.8635L14.5561 37.2198L13.1365 39.6289L11.416 37.2198L12.2374 21.8635H13.3596Z" fill="#FDFDFD"/>
<path d="M19.2656 3.16557C19.2656 1.682 17.9609 0.290301 16.5075 0.103154C14.9831 -0.090799 13.9488 1.52888 12.4683 1.35534C11.8768 1.3009 11.2616 0.31412 10.6261 0.113362C10.2464 -0.00067627 9.84645 -0.0293084 9.45452 0.0294915C9.0626 0.0882914 8.6883 0.233086 8.35811 0.45363C8.03923 0.638283 7.76163 0.887197 7.54268 1.1848C7.32373 1.4824 7.16815 1.82228 7.08566 2.18319C7.00317 2.54409 6.99555 2.91825 7.06328 3.28226C7.13102 3.64626 7.27264 3.99228 7.47929 4.29866C7.98118 4.98392 8.68129 5.49617 9.48367 5.76521C10.4301 6.6295 11.265 7.521 12.8299 7.17733C13.1616 7.11642 13.4738 6.97611 13.7403 6.76825C14.0068 6.56039 14.2197 6.29106 14.3611 5.98299C15.0273 6.25027 15.7547 6.32339 16.4602 6.19395C17.8189 5.90472 19.2656 4.66615 19.2656 3.16557Z" fill="#111111"/>
<path d="M8.70349 22.4519C9.01107 24.1974 9.4471 25.8205 10.5659 26.9604C11.492 27.8962 12.8069 28.5257 14.1184 28.9408C15.6179 29.4223 17.1818 29.6702 18.7558 29.6758C19.5332 29.7064 20.3174 29.6758 21.0948 29.6417C21.4667 29.6213 21.8385 29.5873 22.2103 29.5499C22.3905 29.5317 22.5697 29.5113 22.7477 29.4886C22.1832 29.5567 23.0147 29.441 23.0587 29.4342C24.5053 29.196 25.952 29.7744 26.3711 31.3261C26.7294 32.6361 25.9419 34.4225 24.4918 34.6607C20.4019 35.3412 16.0889 35.3412 12.1241 33.9802C10.0356 33.3094 8.13077 32.1584 6.56052 30.6183C4.78936 28.8183 3.94096 26.365 3.51845 23.9184C3.25818 22.4519 3.88012 20.9887 5.40791 20.5702C6.70586 20.2061 8.44998 21.0057 8.70349 22.4519Z" fill="#40404A"/>
<path d="M24.7954 29.3868C26.2556 29.6964 27.4319 31.1664 27.0837 32.6738C26.8809 33.5381 26.0156 33.664 25.4207 33.3169C25.3376 33.3257 25.2537 33.3257 25.1706 33.3169C24.4134 33.2931 23.6732 33.0753 22.9127 33.1366C22.6109 33.1357 22.3216 33.0146 22.1082 32.7997C21.8948 32.5848 21.7745 32.2937 21.7736 31.9898C21.7567 30.2205 23.0242 29.0091 24.7954 29.3868Z" fill="#FFB39D"/>
<path d="M10.8599 8.50099C11.492 8.21517 12.1207 8.47717 12.7697 8.37849C12.797 8.37497 12.823 8.36452 12.8451 8.3481C12.8673 8.33169 12.885 8.30986 12.8965 8.28468C12.908 8.25949 12.9129 8.23177 12.9108 8.20414C12.9088 8.1765 12.8997 8.14985 12.8846 8.1267C12.4519 7.36109 11.2115 7.71157 10.6537 8.1267C10.4577 8.26961 10.6301 8.61328 10.8599 8.5112V8.50099Z" fill="#111111"/>
<path d="M18.1412 8.50099C17.5092 8.21517 16.8805 8.47717 16.2315 8.37849C16.2042 8.37497 16.1782 8.36452 16.156 8.3481C16.1338 8.33169 16.1162 8.30986 16.1047 8.28468C16.0932 8.25949 16.0882 8.23177 16.0903 8.20414C16.0924 8.1765 16.1014 8.14985 16.1166 8.1267C16.5492 7.36109 17.8066 7.71157 18.3474 8.1267C18.5435 8.26961 18.3711 8.61328 18.1412 8.5112V8.50099Z" fill="#111111"/>
<path d="M9.44573 4.26592C9.33081 4.43606 8.54325 10.8433 8.54325 10.8433C8.54325 10.8433 4.71025 6.68863 7.19122 3.62622L9.44573 4.26592Z" fill="#111111"/>
<path d="M7.39742 8.95722C7.26785 8.95737 7.14321 8.90724 7.04941 8.81725C6.95561 8.72726 6.89988 8.60434 6.89379 8.47404C6.89379 8.33453 6.7214 4.9897 8.92183 2.57039C10.2739 1.07662 12.2174 0.276986 14.6916 0.188516C14.8261 0.184004 14.9568 0.233451 15.0551 0.325979C15.1533 0.418508 15.2111 0.546538 15.2155 0.681905C15.22 0.817272 15.1709 0.948887 15.079 1.0478C14.9871 1.14671 14.8599 1.20481 14.7254 1.20932C12.5385 1.28078 10.8417 1.96472 9.67559 3.25093C7.76585 5.34698 7.90443 8.38898 7.90443 8.4162C7.91277 8.55017 7.86799 8.682 7.77992 8.78278C7.69184 8.88357 7.56766 8.94508 7.4346 8.95382L7.39742 8.95722Z" fill="white"/>
<mask id="mask1_2851_9501" style="mask-type:luminance" maskUnits="userSpaceOnUse" x="6" y="0" width="10" height="9">
<path d="M7.39937 8.95674C7.2698 8.95688 7.14516 8.90675 7.05136 8.81676C6.95756 8.72677 6.90183 8.60385 6.89574 8.47356C6.89574 8.33405 6.72336 4.98921 8.92379 2.5699C10.2758 1.07613 12.2194 0.276498 14.6936 0.188028C14.828 0.183516 14.9588 0.232963 15.057 0.325491C15.1553 0.418019 15.213 0.54605 15.2175 0.681417C15.222 0.816784 15.1729 0.948399 15.0809 1.04731C14.989 1.14622 14.8618 1.20432 14.7274 1.20883C12.5405 1.28029 10.8437 1.96423 9.67754 3.25044C7.7678 5.34649 7.90638 8.38849 7.90638 8.41571C7.91472 8.54968 7.86994 8.68151 7.78187 8.7823C7.69379 8.88308 7.56961 8.94459 7.43655 8.95333L7.39937 8.95674Z" fill="white"/>
</mask>
<g mask="url(#mask1_2851_9501)">
<path opacity="0.4" d="M10.1443 6.99731H3.80664V9.37919H10.1443V6.99731Z" fill="#9577EE"/>
<path opacity="0.4" d="M15.7625 0.957076L10.9121 0.803955L12.4061 -1.0437L17.9122 1.70907L15.7625 0.957076Z" fill="#9577EE"/>
</g>
<path d="M8.90547 10.4032C8.90547 11.7643 8.14495 12.8702 7.21543 12.8702C6.28591 12.8702 5.52539 11.7643 5.52539 10.4032C5.52539 9.04215 6.28591 7.93628 7.21543 7.93628C8.14495 7.93628 8.90547 9.03875 8.90547 10.4032Z" fill="white"/>
<path opacity="0.4" d="M7.5421 12.4858C6.59906 12.4858 5.85206 11.3833 5.85206 10.0188C5.84076 9.4053 6.01139 8.8023 6.34217 8.28687C6.06541 8.5622 5.84881 8.89266 5.70621 9.25711C5.56361 9.62156 5.49816 10.012 5.51405 10.4033C5.51405 11.7644 6.27457 12.8703 7.20409 12.8703C7.45023 12.8572 7.6894 12.7833 7.90044 12.6552C8.11149 12.527 8.28792 12.3484 8.41416 12.1353C8.1744 12.3533 7.86504 12.4776 7.5421 12.4858Z" fill="#9577EE"/>
<path d="M7.69234 10.3909C7.69234 11.4695 7.09069 12.344 6.34031 12.344C5.58993 12.344 4.98828 11.4695 4.98828 10.3909C4.98828 9.31223 5.58993 8.43774 6.34031 8.43774C7.09069 8.43774 7.69234 9.31223 7.69234 10.3909Z" fill="#FDE723"/>
<path d="M8.07617 11.9343C8.07617 11.9343 8.58318 14.8674 11.5847 14.9967" stroke="white" stroke-miterlimit="10"/>
<path d="M12.2163 14.9969C12.2163 15.1097 12.1718 15.2179 12.0925 15.2976C12.0133 15.3774 11.9058 15.4222 11.7938 15.4222H11.3307C11.2187 15.4222 11.1112 15.3774 11.032 15.2976C10.9527 15.2179 10.9082 15.1097 10.9082 14.9969C10.9082 14.8841 10.9527 14.7759 11.032 14.6961C11.1112 14.6163 11.2187 14.5715 11.3307 14.5715H11.7938C11.9058 14.5715 12.0133 14.6163 12.0925 14.6961C12.1718 14.7759 12.2163 14.8841 12.2163 14.9969Z" fill="#282C47"/>
<path d="M46.6757 31.548C46.5758 32.0057 46.3277 32.4171 45.9705 32.7176C45.6132 33.0181 45.167 33.1908 44.7018 33.2085H25.3914C25.1859 33.2161 24.9815 33.1752 24.7944 33.0893C24.6073 33.0034 24.4427 32.8747 24.3138 32.7134C24.1848 32.5522 24.095 32.3629 24.0514 32.1606C24.0079 31.9582 24.0119 31.7485 24.063 31.548L26.3378 19.836C26.4378 19.3782 26.6858 18.9668 27.0431 18.6663C27.4003 18.3658 27.8466 18.1932 28.3118 18.1754H47.6222C47.8277 18.1679 48.0321 18.2087 48.2191 18.2946C48.4062 18.3806 48.5708 18.5093 48.6998 18.6705C48.8288 18.8318 48.9186 19.0211 48.9621 19.2234C49.0056 19.4257 49.0017 19.6355 48.9505 19.836L46.6757 31.548Z" fill="#B7B6B1"/>
<path opacity="0.4" d="M35.1517 25.4734C35.0199 26.4942 35.6722 27.3143 36.6153 27.3143C37.1029 27.2854 37.565 27.0854 37.9213 26.7491C38.2776 26.4128 38.5056 25.9614 38.5656 25.4734C38.7008 24.4526 38.045 23.6326 37.102 23.6326C36.6146 23.6621 36.1529 23.8623 35.7967 24.1985C35.4405 24.5347 35.2123 24.9857 35.1517 25.4734Z" fill="#F5F5F5"/>
<path d="M9.86201 66.9999H8.39844L14.4826 34.1062H15.9461L9.86201 66.9999Z" fill="#111111"/>
<path d="M45.4089 66.9999H43.9453L50.0294 34.1062H51.493L45.4089 66.9999Z" fill="#111111"/>
<path d="M33.6388 66.9999H35.1024L29.0183 34.1062H27.5547L33.6388 66.9999Z" fill="#111111"/>
<path d="M66.9521 32.7419H6.05664V35.0762H66.9521V32.7419Z" fill="#111111"/>
<g style="mix-blend-mode:multiply">
<path d="M27.1821 32.7419H6.05664V35.0762H27.1821V32.7419Z" fill="black"/>
</g>
<path d="M66.5373 66.9999H68.0008L61.9201 34.1062H60.4531L66.5373 66.9999Z" fill="#111111"/>
</svg>
