<svg width="68" height="67" viewBox="0 0 68 67" fill="none" xmlns="http://www.w3.org/2000/svg">
<path d="M12.7446 47.2064H10.8281V60.7049H12.7446V47.2064Z" fill="#056B6B"/>
<path d="M19.0385 59.286H4.53125V60.8751H19.0385V59.286Z" fill="#056B6B"/>
<path d="M5.65907 59.286H4.56055V62.6308H5.65907V59.286Z" fill="#056B6B"/>
<path d="M19.0399 59.286H17.9414V62.6308H19.0399V59.286Z" fill="#056B6B"/>
<path d="M6.98144 64.165C6.98144 64.5469 6.86887 64.9202 6.65798 65.2376C6.44709 65.555 6.14737 65.8023 5.79678 65.9481C5.4462 66.094 5.06051 66.1318 4.68856 66.0568C4.31661 65.9818 3.97513 65.7974 3.70738 65.5269C3.43962 65.2564 3.25763 64.912 3.18444 64.5373C3.11126 64.1626 3.15018 63.7744 3.29627 63.422C3.44236 63.0696 3.68906 62.7687 4.00511 62.5576C4.32117 62.3464 4.69237 62.2344 5.0717 62.2357C5.32294 62.2362 5.57162 62.2864 5.80356 62.3836C6.03551 62.4808 6.24616 62.6231 6.42349 62.8022C6.60083 62.9814 6.74138 63.1939 6.83711 63.4278C6.93284 63.6616 6.98189 63.9121 6.98144 64.165Z" fill="#111111"/>
<path d="M5.96512 64.1657C5.96511 64.3457 5.91201 64.5216 5.81254 64.6712C5.71307 64.8207 5.57172 64.9372 5.40642 65.0057C5.24112 65.0743 5.05932 65.0919 4.88407 65.0563C4.70882 65.0207 4.54803 64.9335 4.42209 64.8057C4.29615 64.678 4.21074 64.5155 4.17668 64.3388C4.14263 64.1621 4.16147 63.9792 4.23081 63.8133C4.30015 63.6474 4.41688 63.506 4.56618 63.407C4.71548 63.308 4.89062 63.2559 5.0694 63.2572C5.30758 63.259 5.53539 63.3555 5.70318 63.5257C5.87097 63.6959 5.96512 63.926 5.96512 64.1657Z" fill="#F5F5F5"/>
<path d="M20.415 64.165C20.415 64.5468 20.3025 64.9199 20.0918 65.2373C19.8811 65.5546 19.5816 65.8019 19.2312 65.9478C18.8808 66.0937 18.4953 66.1318 18.1234 66.057C17.7515 65.9823 17.4101 65.7982 17.1422 65.5281C16.8743 65.2579 16.692 64.9138 16.6184 64.5393C16.5449 64.1649 16.5833 63.7768 16.7289 63.4244C16.8745 63.0719 17.1206 62.7708 17.4362 62.5592C17.7519 62.3476 18.1227 62.235 18.5019 62.2357C18.7534 62.2357 19.0025 62.2856 19.2348 62.3826C19.4671 62.4796 19.6782 62.6218 19.8559 62.801C20.0336 62.9802 20.1744 63.1929 20.2704 63.427C20.3663 63.661 20.4155 63.9118 20.415 64.165Z" fill="#111111"/>
<path d="M19.4026 64.1657C19.4026 64.3456 19.3496 64.5213 19.2503 64.6708C19.151 64.8203 19.0098 64.9367 18.8447 65.0054C18.6796 65.0741 18.498 65.0919 18.3228 65.0565C18.1477 65.0212 17.9869 64.9343 17.8608 64.8069C17.7347 64.6795 17.649 64.5173 17.6146 64.3409C17.5801 64.1644 17.5985 63.9816 17.6673 63.8157C17.7362 63.6497 17.8524 63.5081 18.0012 63.4087C18.1501 63.3092 18.3249 63.2565 18.5035 63.2572C18.7423 63.2581 18.971 63.3542 19.1395 63.5245C19.308 63.6948 19.4026 63.9254 19.4026 64.1657Z" fill="#F5F5F5"/>
<path d="M14.5451 48.9657H9.02539V51.8001H14.5451V48.9657Z" fill="#056B6B"/>
<path d="M2.06861 49.5306C2.1734 49.6089 2.28832 49.6837 2.40662 49.7586H24.3771C26.5742 46.9514 21.4466 42.1876 19.1076 40.6462C17.4175 39.5131 15.1427 37.924 12.8105 37.332C12.6402 37.1641 12.4274 37.0464 12.1953 36.9917C9.30874 36.2193 2.68379 34.1505 1.08501 37.5804C-0.341379 40.6428 -0.321098 44.9132 0.909249 48.03C1.1434 48.6326 1.54612 49.1538 2.06861 49.5306Z" fill="#FDE723"/>
<path d="M18.7082 10.4033C18.7082 11.7644 17.9477 12.8703 17.0182 12.8703C16.0886 12.8703 15.3281 11.7644 15.3281 10.4033C15.3281 9.04227 16.0886 7.9364 17.0182 7.9364C17.9477 7.9364 18.7082 9.03887 18.7082 10.4033Z" fill="white"/>
<path d="M20.2028 22.452C20.507 24.1975 20.9431 25.8206 22.0653 26.9605C22.9846 27.8962 24.3029 28.5257 25.6177 28.9409C27.1162 29.4221 28.6789 29.6699 30.2518 29.6758C31.0326 29.7065 31.8134 29.6758 32.5942 29.6418C32.966 29.6214 33.3344 29.5874 33.7062 29.5499C33.8865 29.5318 34.0656 29.5114 34.2437 29.4887C33.6826 29.5567 34.5141 29.4411 34.558 29.4343C36.0047 29.1961 37.4514 29.7745 37.8705 31.3261C38.2288 32.6362 37.4378 34.4226 35.9878 34.6608C31.8979 35.3413 27.5849 35.3413 23.6201 33.9802C21.5322 33.3102 19.6283 32.1591 18.0599 30.6184C16.2887 28.8184 15.4403 26.365 15.0178 23.9185C14.7542 22.4519 15.3761 20.9888 16.9005 20.5703C18.2153 20.2062 19.9426 21.0058 20.213 22.4622L20.2028 22.452Z" fill="#40404A"/>
<path d="M31.392 61.6342C30.2157 57.7823 30.334 53.5596 28.5662 49.8915C27.5962 47.8771 24.7163 47.1694 22.739 46.4888C19.8152 45.468 16.9253 44.42 13.9508 43.5795C10.7499 42.6812 12.3047 37.8358 15.5124 38.7307C18.8384 39.6597 22.063 40.8268 25.3146 41.9667C28.3093 43.0113 31.3041 44.3485 33.0077 47.0877C34.407 49.3403 34.8092 52.3653 35.1878 54.9377C35.3805 56.2579 35.3906 57.5918 35.5528 58.9154C35.7011 59.8146 35.7487 60.7277 35.6948 61.6376L31.392 61.6342Z" fill="#343438"/>
<path d="M23.9072 61.6342C22.9607 57.8912 22.8931 53.9101 21.2403 50.4053C18.6342 44.893 11.6713 48.983 7.55098 47.4552C1.46684 45.1992 3.90725 37.9277 10.0827 38.9111C13.0335 39.3636 15.2102 41.1671 17.9143 42.1606C20.9226 43.2665 23.9342 44.6718 25.6614 47.5233C27.0844 49.8643 27.5103 52.9982 27.9092 55.6625C28.1154 57.0236 28.1323 58.4118 28.308 59.7797C28.3891 60.4092 28.4703 61.0285 28.4939 61.6342H23.9072Z" fill="#40404A"/>
<path d="M5.46386 22.1492C5.86947 21.2815 6.30212 20.6486 6.96124 20.2879C8.50593 19.4373 10.1791 19.1446 11.788 18.7363C11.8525 18.7212 11.9195 18.7212 11.984 18.7363C12.0485 18.7213 12.1156 18.7213 12.1801 18.7363C13.789 19.1446 15.4587 19.4373 17.0068 20.2879C17.6828 20.6486 18.0952 21.2815 18.5008 22.1492C18.8269 22.8012 19.0548 23.4985 19.1768 24.218L18.5887 40.2344L4.67969 40.0847L4.78447 24.218C4.90762 23.4983 5.1366 22.801 5.46386 22.1492Z" fill="#343438"/>
<mask id="mask0_2590_12372" style="mask-type:luminance" maskUnits="userSpaceOnUse" x="4" y="18" width="16" height="23">
<path d="M5.46777 22.1492C5.87338 21.2815 6.30603 20.6486 6.96514 20.2879C8.50984 19.4373 10.183 19.1446 11.7919 18.7363C11.8564 18.7212 11.9234 18.7212 11.9879 18.7363C12.0524 18.7213 12.1195 18.7213 12.184 18.7363C13.7929 19.1446 15.4627 19.4373 17.0107 20.2879C17.6867 20.6486 18.0991 21.2815 18.5047 22.1492C18.8308 22.8012 19.0587 23.4985 19.1807 24.218L18.5926 40.2344L4.68359 40.0847L4.78838 24.218C4.91152 23.4983 5.1405 22.801 5.46777 22.1492Z" fill="white"/>
</mask>
<g mask="url(#mask0_2590_12372)">
<path d="M6.96094 9.54871L12.8524 36.1202L18.7405 9.54871H6.96094Z" fill="#FDE723"/>
</g>
<path d="M35.1122 61.0724C35.1122 61.0724 37.4782 62.7737 38.9486 62.8486C40.4189 62.9234 44.0187 64.8187 40.0539 65.3699C40.0539 65.3699 35.1561 65.3053 34.0069 63.6686L33.9393 65.0637L31.7389 64.9854C31.7389 64.9854 30.4206 61.7189 31.9349 60.9022L35.1122 61.0724Z" fill="#111111"/>
<path d="M27.7845 61.3722C27.7845 61.3722 30.1506 63.0735 31.6209 63.1484C33.0912 63.2232 36.6707 65.1219 32.7262 65.6698C32.7262 65.6698 27.8285 65.6051 26.6792 63.9684L26.6116 65.3669L24.4112 65.258C24.4112 65.258 23.0964 62.0085 24.6073 61.2054L27.7845 61.3722Z" fill="#111111"/>
<path d="M14.147 15.6434H11.1895V20.7815H14.147V15.6434Z" fill="#FEAF9A"/>
<g style="mix-blend-mode:multiply">
<path d="M14.1504 17.3176C13.7409 17.6793 13.2147 17.8788 12.6699 17.8788C12.1251 17.8788 11.5989 17.6793 11.1895 17.3176V15.6469H14.1504V17.3176Z" fill="#FFB39D"/>
</g>
<path d="M7.50401 10.5019C7.53443 11.7167 7.40936 13.156 7.86567 14.3027C9.23798 17.7769 16.3159 17.8688 17.5259 14.1905C17.9214 12.9825 17.8268 11.5466 17.847 10.291C17.8589 8.89816 17.798 7.50567 17.6645 6.1193C17.4549 3.80888 14.832 2.93439 12.9324 2.92078C11.2119 2.92078 7.88257 3.88033 7.67977 6.11589C7.53677 7.57325 7.47808 9.03774 7.50401 10.5019Z" fill="#FFB39D"/>
<path d="M16.1817 9.04155C15.8222 9.12143 15.4881 9.29017 15.2096 9.53255C14.9311 9.77492 14.7169 10.0833 14.5864 10.4298C14.3497 11.192 14.8061 11.8522 15.4145 12.2639L15.33 11.9236C15.2353 12.1346 15.09 12.3694 14.8263 12.3183C14.6979 12.2911 14.5289 12.189 14.3971 12.2231C14.3638 12.234 14.334 12.2536 14.3107 12.2799C14.2873 12.3061 14.2712 12.3381 14.264 12.3726C14.2568 12.4071 14.2588 12.4428 14.2697 12.4763C14.2806 12.5098 14.3 12.5398 14.3261 12.5633C14.427 12.673 14.557 12.7515 14.7007 12.7895C14.8444 12.8274 14.9958 12.8234 15.1373 12.7777C15.2862 12.7211 15.4198 12.63 15.5273 12.5118C15.6348 12.3935 15.7131 12.2515 15.7559 12.0972C15.7692 12.0475 15.7663 11.9947 15.7474 11.9469C15.7285 11.899 15.6947 11.8586 15.6511 11.8318C15.1542 11.5425 14.779 11.0559 14.9751 10.4707C15.1711 9.88542 15.7423 9.46689 16.2561 9.18446C16.3406 9.14023 16.2832 9.01093 16.1919 9.03134L16.1817 9.04155Z" fill="#F48364"/>
<path d="M17.2392 10.5939C17.2392 11.0396 17.033 11.4037 16.7761 11.4037C16.5192 11.4037 16.3164 11.0396 16.3164 10.5939C16.3164 10.1481 16.5226 9.78064 16.7761 9.78064C17.0296 9.78064 17.2392 10.1447 17.2392 10.5939Z" fill="#3F1C25"/>
<path d="M12.0263 10.5939C12.0263 11.0396 11.8201 11.4037 11.5632 11.4037C11.3063 11.4037 11.1035 11.0396 11.1035 10.5939C11.1035 10.1481 11.3097 9.78064 11.5632 9.78064C11.8167 9.78064 12.0263 10.1447 12.0263 10.5939Z" fill="#3F1C25"/>
<path d="M15.1208 13.7612C14.7646 14.053 14.3156 14.2052 13.8566 14.1899C13.3733 14.1491 12.9609 13.8667 12.5249 13.6863C12.4167 13.6387 12.3424 13.7986 12.4167 13.8735C12.8027 14.2589 13.3141 14.4909 13.8566 14.5268C14.3785 14.5396 14.8879 14.3647 15.2932 14.0334C15.452 13.9143 15.2932 13.6421 15.1343 13.7612H15.1208Z" fill="#F48364"/>
<path d="M11.155 19.9476C11.2394 19.65 11.4366 19.3977 11.704 19.245C11.9714 19.0922 12.2877 19.0513 12.5848 19.131C12.7498 19.1781 12.9022 19.2618 13.0309 19.376C13.24 19.3351 13.4566 19.3742 13.6385 19.4855C13.8204 19.5969 13.9545 19.7726 14.0145 19.9783C14.0694 20.1717 14.1056 20.3699 14.1227 20.5703C14.0889 20.2879 14.1227 20.6826 14.1498 20.7779C14.1543 20.9274 14.1419 21.077 14.1126 21.2236C14.0671 21.4958 13.9486 21.7503 13.7699 21.9596C13.5912 22.1689 13.359 22.3251 13.0985 22.4112C12.3921 22.6085 11.7229 21.9995 11.3747 21.4482C11.1128 20.995 11.0341 20.4577 11.155 19.9476Z" fill="#FDFDFD"/>
<path d="M10.2617 19.2368L11.3163 18.0629L12.763 18.7264L12.7731 18.7468L12.7866 18.7264L14.2299 18.0629L15.2845 19.2368L14.3212 21.765L12.7731 19.5839L11.225 21.765L10.2617 19.2368Z" fill="#F4DE14"/>
<path d="M13.3596 21.8636L14.5561 37.2199L13.1365 39.629L11.416 37.2199L12.2374 21.8636H13.3596Z" fill="#FDFDFD"/>
<path d="M19.2656 3.16569C19.2656 1.68212 17.9609 0.290423 16.5075 0.103276C14.9831 -0.0906769 13.9488 1.529 12.4683 1.35546C11.8768 1.30102 11.2616 0.314242 10.6261 0.113484C10.2464 -0.000554199 9.84645 -0.0291864 9.45452 0.0296136C9.0626 0.0884135 8.6883 0.233209 8.35811 0.453752C8.03923 0.638405 7.76163 0.887319 7.54268 1.18492C7.32373 1.48252 7.16815 1.82241 7.08566 2.18331C7.00317 2.54422 6.99555 2.91838 7.06328 3.28238C7.13102 3.64638 7.27264 3.9924 7.47929 4.29878C7.98118 4.98404 8.68129 5.49629 9.48367 5.76534C10.4301 6.62962 11.265 7.52112 12.8299 7.17745C13.1616 7.11654 13.4738 6.97623 13.7403 6.76837C14.0068 6.56051 14.2197 6.29118 14.3611 5.98311C15.0273 6.2504 15.7547 6.32351 16.4602 6.19407C17.8189 5.90485 19.2656 4.66627 19.2656 3.16569Z" fill="#111111"/>
<path d="M8.70349 22.452C9.01107 24.1976 9.4471 25.8206 10.5659 26.9605C11.492 27.8963 12.8069 28.5258 14.1184 28.9409C15.6179 29.4224 17.1818 29.6703 18.7558 29.6759C19.5332 29.7065 20.3174 29.6759 21.0948 29.6419C21.4667 29.6214 21.8385 29.5874 22.2103 29.55C22.3905 29.5318 22.5697 29.5114 22.7477 29.4887C22.1832 29.5568 23.0147 29.4411 23.0587 29.4343C24.5053 29.1961 25.952 29.7746 26.3711 31.3262C26.7294 32.6362 25.9419 34.4226 24.4918 34.6608C20.4019 35.3414 16.0889 35.3414 12.1241 33.9803C10.0356 33.3095 8.13077 32.1585 6.56052 30.6184C4.78936 28.8184 3.94096 26.3651 3.51845 23.9185C3.25818 22.452 3.88012 20.9888 5.40791 20.5703C6.70586 20.2062 8.44998 21.0059 8.70349 22.452Z" fill="#40404A"/>
<path d="M24.7954 29.3869C26.2556 29.6966 27.4319 31.1665 27.0837 32.6739C26.8809 33.5382 26.0156 33.6641 25.4207 33.317C25.3376 33.3258 25.2537 33.3258 25.1706 33.317C24.4134 33.2932 23.6732 33.0754 22.9127 33.1367C22.6109 33.1358 22.3216 33.0147 22.1082 32.7998C21.8948 32.585 21.7745 32.2938 21.7736 31.99C21.7567 30.2206 23.0242 29.0092 24.7954 29.3869Z" fill="#FFB39D"/>
<path d="M10.8599 8.50111C11.492 8.21529 12.1207 8.47729 12.7697 8.37862C12.797 8.3751 12.823 8.36464 12.8451 8.34823C12.8673 8.33181 12.885 8.30999 12.8965 8.2848C12.908 8.25961 12.9129 8.2319 12.9108 8.20426C12.9088 8.17662 12.8997 8.14997 12.8846 8.12682C12.4519 7.36121 11.2115 7.71169 10.6537 8.12682C10.4577 8.26973 10.6301 8.6134 10.8599 8.51132V8.50111Z" fill="#111111"/>
<path d="M18.1412 8.50111C17.5092 8.21529 16.8805 8.47729 16.2315 8.37862C16.2042 8.3751 16.1782 8.36464 16.156 8.34823C16.1338 8.33181 16.1162 8.30999 16.1047 8.2848C16.0932 8.25961 16.0882 8.2319 16.0903 8.20426C16.0924 8.17662 16.1014 8.14997 16.1166 8.12682C16.5492 7.36121 17.8066 7.71169 18.3474 8.12682C18.5435 8.26973 18.3711 8.6134 18.1412 8.51132V8.50111Z" fill="#111111"/>
<path d="M9.44573 4.26605C9.33081 4.43618 8.54325 10.8434 8.54325 10.8434C8.54325 10.8434 4.71025 6.68876 7.19122 3.62634L9.44573 4.26605Z" fill="#111111"/>
<path d="M7.39742 8.95735C7.26785 8.95749 7.14321 8.90736 7.04941 8.81737C6.95561 8.72738 6.89988 8.60446 6.89379 8.47417C6.89379 8.33466 6.7214 4.98982 8.92183 2.57051C10.2739 1.07674 12.2174 0.277108 14.6916 0.188638C14.8261 0.184126 14.9568 0.233573 15.0551 0.326101C15.1533 0.41863 15.2111 0.54666 15.2155 0.682027C15.22 0.817394 15.1709 0.949009 15.079 1.04792C14.9871 1.14683 14.8599 1.20493 14.7254 1.20944C12.5385 1.2809 10.8417 1.96484 9.67559 3.25105C7.76585 5.3471 7.90443 8.3891 7.90443 8.41632C7.91277 8.55029 7.86799 8.68212 7.77992 8.78291C7.69184 8.88369 7.56766 8.9452 7.4346 8.95394L7.39742 8.95735Z" fill="white"/>
<mask id="mask1_2590_12372" style="mask-type:luminance" maskUnits="userSpaceOnUse" x="6" y="0" width="10" height="9">
<path d="M7.39937 8.95686C7.2698 8.957 7.14516 8.90687 7.05136 8.81688C6.95756 8.72689 6.90183 8.60397 6.89574 8.47368C6.89574 8.33417 6.72336 4.98933 8.92379 2.57003C10.2758 1.07625 12.2194 0.27662 14.6936 0.18815C14.828 0.183638 14.9588 0.233085 15.057 0.325613C15.1553 0.418141 15.213 0.546172 15.2175 0.681539C15.222 0.816906 15.1729 0.948521 15.0809 1.04743C14.989 1.14634 14.8618 1.20444 14.7274 1.20895C12.5405 1.28041 10.8437 1.96435 9.67754 3.25056C7.7678 5.34661 7.90638 8.38861 7.90638 8.41583C7.91472 8.5498 7.86994 8.68163 7.78187 8.78242C7.69379 8.8832 7.56961 8.94471 7.43655 8.95346L7.39937 8.95686Z" fill="white"/>
</mask>
<g mask="url(#mask1_2590_12372)">
<path opacity="0.4" d="M10.1443 6.99744H3.80664V9.37931H10.1443V6.99744Z" fill="#9577EE"/>
<path opacity="0.4" d="M15.7625 0.957198L10.9121 0.804077L12.4061 -1.04358L17.9122 1.70919L15.7625 0.957198Z" fill="#9577EE"/>
</g>
<path d="M8.90547 10.4033C8.90547 11.7644 8.14495 12.8703 7.21543 12.8703C6.28591 12.8703 5.52539 11.7644 5.52539 10.4033C5.52539 9.04227 6.28591 7.9364 7.21543 7.9364C8.14495 7.9364 8.90547 9.03887 8.90547 10.4033Z" fill="white"/>
<path opacity="0.4" d="M7.5421 12.4859C6.59906 12.4859 5.85206 11.3834 5.85206 10.019C5.84076 9.40542 6.01139 8.80242 6.34217 8.28699C6.06541 8.56232 5.84881 8.89278 5.70621 9.25723C5.56361 9.62168 5.49816 10.0121 5.51405 10.4035C5.51405 11.7645 6.27457 12.8704 7.20409 12.8704C7.45023 12.8573 7.6894 12.7835 7.90044 12.6553C8.11149 12.5271 8.28792 12.3485 8.41416 12.1354C8.1744 12.3534 7.86504 12.4777 7.5421 12.4859Z" fill="#9577EE"/>
<path d="M7.69234 10.391C7.69234 11.4697 7.09069 12.3441 6.34031 12.3441C5.58993 12.3441 4.98828 11.4697 4.98828 10.391C4.98828 9.31236 5.58993 8.43787 6.34031 8.43787C7.09069 8.43787 7.69234 9.31236 7.69234 10.391Z" fill="#FDE723"/>
<path d="M8.07617 11.9344C8.07617 11.9344 8.58318 14.8676 11.5847 14.9969" stroke="white" stroke-miterlimit="10"/>
<path d="M12.2163 14.997C12.2163 15.1098 12.1718 15.218 12.0925 15.2977C12.0133 15.3775 11.9058 15.4223 11.7938 15.4223H11.3307C11.2187 15.4223 11.1112 15.3775 11.032 15.2977C10.9527 15.218 10.9082 15.1098 10.9082 14.997C10.9082 14.8842 10.9527 14.776 11.032 14.6962C11.1112 14.6165 11.2187 14.5717 11.3307 14.5717H11.7938C11.9058 14.5717 12.0133 14.6165 12.0925 14.6962C12.1718 14.776 12.2163 14.8842 12.2163 14.997Z" fill="#282C47"/>
<path d="M46.6757 31.5481C46.5758 32.0058 46.3277 32.4172 45.9705 32.7178C45.6132 33.0183 45.167 33.1909 44.7018 33.2086H25.3914C25.1859 33.2162 24.9815 33.1754 24.7944 33.0894C24.6073 33.0035 24.4427 32.8748 24.3138 32.7135C24.1848 32.5523 24.095 32.363 24.0514 32.1607C24.0079 31.9584 24.0119 31.7486 24.063 31.5481L26.3378 19.8361C26.4378 19.3783 26.6858 18.967 27.0431 18.6664C27.4003 18.3659 27.8466 18.1933 28.3118 18.1756H47.6222C47.8277 18.168 48.0321 18.2088 48.2191 18.2948C48.4062 18.3807 48.5708 18.5094 48.6998 18.6706C48.8288 18.8319 48.9186 19.0212 48.9621 19.2235C49.0056 19.4258 49.0017 19.6356 48.9505 19.8361L46.6757 31.5481Z" fill="#B7B6B1"/>
<path opacity="0.4" d="M35.1517 25.4735C35.0199 26.4943 35.6722 27.3144 36.6153 27.3144C37.1029 27.2855 37.565 27.0855 37.9213 26.7492C38.2776 26.4129 38.5056 25.9615 38.5656 25.4735C38.7008 24.4527 38.045 23.6327 37.102 23.6327C36.6146 23.6622 36.1529 23.8624 35.7967 24.1986C35.4405 24.5348 35.2123 24.9858 35.1517 25.4735Z" fill="#F5F5F5"/>
<path d="M9.86201 67H8.39844L14.4826 34.1063H15.9461L9.86201 67Z" fill="#111111"/>
<path d="M45.4089 67H43.9453L50.0294 34.1063H51.493L45.4089 67Z" fill="#111111"/>
<path d="M33.6388 67H35.1024L29.0183 34.1063H27.5547L33.6388 67Z" fill="#111111"/>
<path d="M66.9521 32.7421H6.05664V35.0763H66.9521V32.7421Z" fill="#111111"/>
<g style="mix-blend-mode:multiply">
<path d="M27.1821 32.7421H6.05664V35.0763H27.1821V32.7421Z" fill="black"/>
</g>
<path d="M66.5373 67H68.0008L61.9201 34.1063H60.4531L66.5373 67Z" fill="#111111"/>
</svg>
