<svg width="16" height="16" viewBox="0 0 16 16" fill="none" xmlns="http://www.w3.org/2000/svg">
<path d="M14.75 8.00003C14.75 9.79025 14.0388 11.5071 12.773 12.773C11.5071 14.0389 9.79021 14.75 8 14.75C6.20979 14.75 4.4929 14.0389 3.22703 12.773C1.96116 11.5071 1.25 9.79025 1.25 8.00003C1.25 5.34113 2.79386 2.91666 5.18688 1.81849L14.75 8.00003ZM14.75 8.00003C14.75 5.34113 13.2061 2.91666 10.8131 1.81849L14.75 8.00003ZM5.81306 3.18161L5.81312 3.18158L10.813 1.81844C10.6323 1.73544 10.426 1.72762 10.2395 1.7967C10.0529 1.86579 9.9015 2.00616 9.81845 2.18692C9.73541 2.36767 9.72757 2.57402 9.79667 2.76055C9.86576 2.94709 10.0061 3.09854 10.1869 3.18158L10.1869 3.18161C12.0462 4.03523 13.25 5.92562 13.25 8.00003C13.25 9.39242 12.6969 10.7278 11.7123 11.7123C10.7277 12.6969 9.39239 13.25 8 13.25C6.60761 13.25 5.27226 12.6969 4.28769 11.7123C3.30312 10.7278 2.75 9.39242 2.75 8.00003C2.75 5.92562 3.95381 4.03523 5.81306 3.18161Z" fill="#707070" stroke="#707070" stroke-width="0.5"/>
</svg>
