<svg xmlns="http://www.w3.org/2000/svg" width="40" height="39" viewBox="0 0 40 39" fill="none">
  <g opacity="1">
    <path d="M7.49645 27.4785H6.36914V35.3357H7.49645V27.4785Z" fill="#056B6B"/>
    <path d="M11.1994 34.5098H2.66602V35.4347H11.1994V34.5098Z" fill="#056B6B"/>
    <path d="M3.32976 34.5098H2.68359V36.4567H3.32976V34.5098Z" fill="#056B6B"/>
    <path d="M11.1989 34.5098H10.5527V36.4567H11.1989V34.5098Z" fill="#056B6B"/>
    <path d="M4.10814 37.3496C4.10814 37.5719 4.04192 37.7892 3.91787 37.9739C3.79383 38.1587 3.61753 38.3026 3.41131 38.3875C3.20509 38.4724 2.97822 38.4944 2.75943 38.4507C2.54065 38.4071 2.33979 38.2997 2.18229 38.1423C2.02479 37.9848 1.91774 37.7843 1.87469 37.5662C1.83165 37.3481 1.85454 37.1222 1.94047 36.9171C2.02641 36.7119 2.17152 36.5368 2.35742 36.4139C2.54333 36.291 2.76168 36.2258 2.9848 36.2266C3.13258 36.2268 3.27887 36.2561 3.4153 36.3127C3.55173 36.3692 3.67564 36.452 3.77995 36.5563C3.88426 36.6606 3.96693 36.7843 4.02324 36.9204C4.07955 37.0565 4.1084 37.2024 4.10814 37.3496Z" fill="#111111"/>
    <path d="M3.50897 37.3501C3.50896 37.4549 3.47773 37.5573 3.41922 37.6443C3.36071 37.7314 3.27757 37.7992 3.18034 37.8391C3.0831 37.879 2.97616 37.8892 2.87308 37.8685C2.77 37.8478 2.67542 37.797 2.60134 37.7227C2.52726 37.6483 2.47702 37.5537 2.45699 37.4509C2.43695 37.348 2.44804 37.2416 2.48882 37.145C2.52961 37.0484 2.59827 36.9661 2.68609 36.9085C2.77391 36.8509 2.87694 36.8205 2.98209 36.8213C3.12219 36.8223 3.2562 36.8785 3.35489 36.9776C3.45359 37.0767 3.50897 37.2106 3.50897 37.3501Z" fill="#F5F5F5"/>
    <path d="M12.0085 37.3496C12.0085 37.5718 11.9424 37.789 11.8184 37.9737C11.6944 38.1584 11.5183 38.3024 11.3122 38.3873C11.1061 38.4722 10.8793 38.4944 10.6606 38.4509C10.4418 38.4074 10.241 38.3002 10.0834 38.143C9.92581 37.9857 9.8186 37.7854 9.77533 37.5675C9.73205 37.3495 9.75466 37.1236 9.84029 36.9185C9.92592 36.7133 10.0707 36.538 10.2564 36.4149C10.442 36.2917 10.6602 36.2262 10.8832 36.2266C11.0312 36.2266 11.1776 36.2556 11.3143 36.3121C11.451 36.3685 11.5751 36.4513 11.6796 36.5556C11.7842 36.6599 11.867 36.7837 11.9234 36.92C11.9799 37.0562 12.0088 37.2022 12.0085 37.3496Z" fill="#111111"/>
    <path d="M11.4133 37.3501C11.4133 37.4548 11.3821 37.5571 11.3237 37.6441C11.2652 37.7311 11.1822 37.7989 11.0851 37.8389C10.988 37.8789 10.8811 37.8892 10.7781 37.8686C10.6751 37.8481 10.5805 37.7975 10.5063 37.7234C10.4322 37.6492 10.3818 37.5548 10.3615 37.4521C10.3413 37.3494 10.3521 37.243 10.3925 37.1464C10.433 37.0498 10.5014 36.9673 10.5889 36.9095C10.6765 36.8516 10.7793 36.8209 10.8844 36.8213C11.0248 36.8218 11.1594 36.8778 11.2585 36.9769C11.3576 37.076 11.4133 37.2102 11.4133 37.3501Z" fill="#F5F5F5"/>
    <path d="M8.55729 28.502H5.31055V30.1518H8.55729V28.502Z" fill="#056B6B"/>
    <path d="M1.21679 28.8325C1.27842 28.8781 1.34602 28.9216 1.41561 28.9652H14.3389C15.6313 27.3312 12.6152 24.5583 11.2393 23.6611C10.2452 23.0015 8.90717 22.0766 7.53531 21.7319C7.43511 21.6342 7.30997 21.5657 7.17345 21.5339C5.47552 21.0843 1.57864 19.88 0.638219 21.8765C-0.200804 23.6591 -0.188874 26.1448 0.534832 27.9591C0.672564 28.3098 0.909451 28.6132 1.21679 28.8325Z" fill="#FDE723"/>
    <path d="M11.0038 6.05608C11.0038 6.84833 10.5565 7.49204 10.0097 7.49204C9.46297 7.49204 9.01562 6.84833 9.01562 6.05608C9.01562 5.26382 9.46297 4.62012 10.0097 4.62012C10.5565 4.62012 11.0038 5.26184 11.0038 6.05608Z" fill="white"/>
    <path d="M11.8833 13.0691C12.0623 14.0851 12.3187 15.0299 12.9788 15.6934C13.5196 16.2381 14.295 16.6045 15.0684 16.8461C15.9499 17.1262 16.8691 17.2705 17.7943 17.274C18.2535 17.2918 18.7128 17.274 19.1721 17.2541C19.3908 17.2423 19.6075 17.2225 19.8262 17.2007C19.9322 17.1901 20.0376 17.1782 20.1423 17.165C19.8123 17.2046 20.3014 17.1373 20.3272 17.1333C21.1782 16.9947 22.0291 17.3314 22.2757 18.2346C22.4864 18.9971 22.0212 20.0369 21.1682 20.1756C18.7625 20.5717 16.2256 20.5717 13.8934 19.7795C12.6653 19.3895 11.5454 18.7194 10.6228 17.8226C9.58099 16.7748 9.08195 15.3468 8.83342 13.9227C8.67834 13.0691 9.04417 12.2174 9.94085 11.9738C10.7143 11.7618 11.7302 12.2273 11.8893 13.075L11.8833 13.0691Z" fill="#40404A"/>
    <path d="M18.464 35.877C17.7721 33.6349 17.8416 31.1769 16.8018 29.0418C16.2312 27.8693 14.5372 27.4573 13.3741 27.0612C11.6543 26.467 9.95443 25.857 8.20481 25.3677C6.32198 24.8448 7.23656 22.0244 9.12336 22.5453C11.0798 23.086 12.9765 23.7654 14.8892 24.4289C16.6507 25.037 18.4123 25.8154 19.4143 27.4098C20.2374 28.7209 20.474 30.4817 20.6967 31.9791C20.81 32.7476 20.816 33.524 20.9114 34.2945C20.9986 34.8179 21.0266 35.3494 20.9949 35.879L18.464 35.877Z" fill="#343438"/>
    <path d="M14.062 35.8763C13.5053 33.6976 13.4656 31.3802 12.4933 29.3402C10.9604 26.1315 6.86472 28.5123 4.4411 27.623C0.862329 26.3098 2.29781 22.0772 5.93026 22.6496C7.66597 22.913 8.94637 23.9627 10.5369 24.5411C12.3064 25.1848 14.0779 26.0028 15.0939 27.6626C15.9309 29.0252 16.1815 30.8494 16.4161 32.4003C16.5373 33.1925 16.5473 34.0006 16.6507 34.7968C16.6984 35.1632 16.7461 35.5237 16.76 35.8763H14.062Z" fill="#40404A"/>
    <path d="M3.21517 12.8926C3.45375 12.3875 3.70824 12.0191 4.09595 11.8092C5.00456 11.314 5.98872 11.1437 6.9351 10.906C6.97304 10.8972 7.01249 10.8972 7.05042 10.906C7.08836 10.8973 7.12779 10.8973 7.16573 10.906C8.11212 11.1437 9.09429 11.314 10.0049 11.8092C10.4025 12.0191 10.6451 12.3875 10.8837 12.8926C11.0755 13.2721 11.2095 13.678 11.2813 14.0968L10.9354 23.4197L2.75391 23.3325L2.81554 14.0968C2.88798 13.6779 3.02267 13.272 3.21517 12.8926Z" fill="#343438"/>
    <mask id="mask0_3105_8487" style="mask-type:luminance" maskUnits="userSpaceOnUse" x="2" y="10" width="10" height="14">
      <path d="M3.21126 12.8916C3.44985 12.3865 3.70434 12.0181 4.09204 11.8082C5.00065 11.313 5.98481 11.1427 6.9312 10.905C6.96913 10.8962 7.00858 10.8962 7.04651 10.905C7.08445 10.8963 7.12389 10.8963 7.16183 10.905C8.10821 11.1427 9.09039 11.313 10.001 11.8082C10.3986 12.0181 10.6412 12.3865 10.8798 12.8916C11.0716 13.2711 11.2056 13.677 11.2774 14.0958L10.9315 23.4187L2.75 23.3315L2.81163 14.0958C2.88407 13.6769 3.01876 13.271 3.21126 12.8916Z" fill="white"/>
    </mask>
    <g mask="url(#mask0_3105_8487)">
      <path d="M4.0918 5.55762L7.55724 21.0244L11.0207 5.55762H4.0918Z" fill="#FDE723"/>
    </g>
    <path d="M20.6506 35.5502C20.6506 35.5502 22.0423 36.5405 22.9072 36.5841C23.7721 36.6277 25.8895 37.7309 23.5573 38.0517C23.5573 38.0517 20.6764 38.0141 20.0004 37.0614L19.9607 37.8735L18.6664 37.8279C18.6664 37.8279 17.891 35.9265 18.7817 35.4512L20.6506 35.5502Z" fill="#111111"/>
    <path d="M16.345 35.7221C16.345 35.7221 17.7368 36.7124 18.6016 36.7559C19.4665 36.7995 21.572 37.9047 19.2518 38.2236C19.2518 38.2236 16.3709 38.186 15.6949 37.2333L15.6551 38.0473L14.3608 37.9839C14.3608 37.9839 13.5874 36.0924 14.4761 35.625L16.345 35.7221Z" fill="#111111"/>
    <path d="M8.32171 9.10645H6.58203V12.0972H8.32171V9.10645Z" fill="#FEAF9A"/>
    <g style="mix-blend-mode:multiply">
      <path d="M8.3237 10.0799C8.08285 10.2905 7.77333 10.4066 7.45287 10.4066C7.1324 10.4066 6.82288 10.2905 6.58203 10.0799V9.10742H8.3237V10.0799Z" fill="#FFB39D"/>
    </g>
    <path d="M4.41366 6.11305C4.43156 6.82014 4.35799 7.65795 4.6264 8.32542C5.43361 10.3477 9.59691 10.4011 10.3087 8.26006C10.5413 7.55694 10.4856 6.72111 10.4976 5.99025C10.5046 5.17952 10.4687 4.36898 10.3902 3.56199C10.2669 2.21714 8.72409 1.70812 7.60672 1.7002C6.59472 1.7002 4.63634 2.25873 4.51705 3.56001C4.43293 4.40831 4.39841 5.26076 4.41366 6.11305Z" fill="#FFB39D"/>
    <path d="M9.51921 5.26209C9.30774 5.30858 9.11122 5.4068 8.94738 5.54789C8.78355 5.68897 8.65756 5.86847 8.58078 6.07019C8.4416 6.51385 8.71001 6.89809 9.06789 7.13775L9.01818 6.93969C8.96251 7.06249 8.87702 7.19915 8.72194 7.16944C8.64639 7.15359 8.54698 7.09418 8.46944 7.11398C8.44987 7.12037 8.43234 7.13178 8.4186 7.14705C8.40487 7.16233 8.39541 7.18094 8.39118 7.20101C8.38694 7.22108 8.38809 7.24191 8.3945 7.2614C8.40091 7.28089 8.41235 7.29836 8.42768 7.31205C8.48706 7.37591 8.5635 7.42158 8.64802 7.44368C8.73254 7.46578 8.82164 7.4634 8.90485 7.43683C8.99245 7.40388 9.07104 7.35086 9.13425 7.28204C9.19746 7.21322 9.24352 7.13054 9.26869 7.0407C9.27656 7.01177 9.27481 6.98108 9.2637 6.95323C9.25259 6.92538 9.23271 6.90186 9.20706 6.88621C8.91479 6.71785 8.6941 6.43462 8.80942 6.09395C8.92473 5.75329 9.26074 5.50967 9.56295 5.34527C9.61265 5.31953 9.57885 5.24426 9.52517 5.25615L9.51921 5.26209Z" fill="#F48364"/>
    <path d="M10.1404 6.16575C10.1404 6.42522 10.0192 6.63715 9.86805 6.63715C9.71695 6.63715 9.59766 6.42522 9.59766 6.16575C9.59766 5.90629 9.71894 5.69238 9.86805 5.69238C10.0172 5.69238 10.1404 5.90431 10.1404 6.16575Z" fill="#3F1C25"/>
    <path d="M7.07598 6.16575C7.07598 6.42522 6.9547 6.63715 6.8036 6.63715C6.6525 6.63715 6.5332 6.42522 6.5332 6.16575C6.5332 5.90629 6.65448 5.69238 6.8036 5.69238C6.95271 5.69238 7.07598 5.90431 7.07598 6.16575Z" fill="#3F1C25"/>
    <path d="M8.89532 8.00958C8.68581 8.17942 8.42171 8.26806 8.15174 8.25914C7.86742 8.23537 7.62486 8.07098 7.36838 7.96601C7.30476 7.93828 7.26102 8.03137 7.30476 8.07494C7.53182 8.29929 7.83262 8.43435 8.15174 8.45522C8.45873 8.46271 8.75834 8.36088 8.99672 8.16803C9.09017 8.09871 8.99672 7.94026 8.90328 8.00958H8.89532Z" fill="#F48364"/>
    <path d="M6.56383 11.6118C6.6135 11.4386 6.72946 11.2917 6.88676 11.2028C7.04405 11.1139 7.2301 11.0901 7.40485 11.1365C7.50191 11.1639 7.59159 11.2126 7.66729 11.2791C7.79023 11.2553 7.91766 11.278 8.02466 11.3428C8.13166 11.4077 8.21054 11.5099 8.24586 11.6296C8.27813 11.7422 8.29943 11.8576 8.30948 11.9743C8.2896 11.8099 8.30948 12.0396 8.32538 12.0951C8.32808 12.1821 8.32074 12.2692 8.30351 12.3545C8.27677 12.513 8.20707 12.6611 8.10195 12.7829C7.99682 12.9048 7.86027 12.9957 7.70705 13.0458C7.29152 13.1607 6.89785 12.8061 6.69307 12.4853C6.53899 12.2214 6.49272 11.9087 6.56383 11.6118Z" fill="#FDFDFD"/>
    <path d="M6.03711 11.196L6.65743 10.5127L7.50838 10.8989L7.51435 10.9108L7.5223 10.8989L8.37126 10.5127L8.99158 11.196L8.42494 12.6676L7.51435 11.398L6.60375 12.6676L6.03711 11.196Z" fill="#F4DE14"/>
    <path d="M7.85806 12.7266L8.56189 21.6652L7.72684 23.0675L6.71484 21.6652L7.19798 12.7266H7.85806Z" fill="#FDFDFD"/>
    <path d="M11.3314 1.84276C11.3314 0.979201 10.564 0.169121 9.70903 0.060186C8.81235 -0.0527103 8.20396 0.890072 7.33313 0.78906C6.98519 0.75737 6.62334 0.182985 6.24956 0.0661279C6.0262 -0.000251534 5.79093 -0.0169178 5.5604 0.0173086C5.32986 0.0515349 5.10969 0.135817 4.91547 0.264191C4.7279 0.371675 4.56461 0.516563 4.43582 0.689791C4.30704 0.863019 4.21552 1.06086 4.167 1.27094C4.11848 1.48101 4.114 1.6988 4.15384 1.91068C4.19368 2.12256 4.27698 2.32397 4.39854 2.50231C4.69375 2.90119 5.10557 3.19936 5.57754 3.35596C6.13424 3.85905 6.62533 4.37797 7.54587 4.17793C7.74094 4.14247 7.9246 4.0608 8.08135 3.93981C8.2381 3.81882 8.36335 3.66205 8.44653 3.48272C8.83835 3.63831 9.26623 3.68086 9.6812 3.60552C10.4805 3.43717 11.3314 2.71622 11.3314 1.84276Z" fill="#111111"/>
    <path d="M5.12085 13.0691C5.30177 14.0852 5.55825 15.0299 6.21635 15.6934C6.76112 16.2381 7.53453 16.6045 8.30595 16.8462C9.18802 17.1264 10.1079 17.2707 11.0338 17.274C11.4911 17.2918 11.9523 17.274 12.4096 17.2542C12.6283 17.2423 12.847 17.2225 13.0657 17.2007C13.1718 17.1901 13.2771 17.1782 13.3818 17.165C13.0498 17.2047 13.5389 17.1373 13.5648 17.1334C14.4157 16.9947 15.2667 17.3314 15.5132 18.2346C15.7239 18.9971 15.2607 20.037 14.4078 20.1756C12.002 20.5717 9.46507 20.5717 7.13291 19.7795C5.90439 19.389 4.78397 18.7191 3.86032 17.8226C2.8185 16.7749 2.31946 15.3468 2.07094 13.9227C1.91785 13.0691 2.28368 12.2174 3.18235 11.9738C3.94582 11.7619 4.97173 12.2273 5.12085 13.0691Z" fill="#40404A"/>
    <path d="M14.5842 17.1047C15.4431 17.285 16.135 18.1406 15.9302 19.018C15.8109 19.5211 15.3019 19.5944 14.952 19.3923C14.9031 19.3975 14.8538 19.3975 14.8049 19.3923C14.3595 19.3785 13.9241 19.2517 13.4768 19.2874C13.2992 19.2869 13.1291 19.2164 13.0036 19.0913C12.878 18.9662 12.8073 18.7968 12.8067 18.6199C12.7968 17.59 13.5424 16.8849 14.5842 17.1047Z" fill="#FFB39D"/>
    <path d="M6.3883 4.94785C6.7601 4.78147 7.1299 4.93398 7.51164 4.87654C7.5277 4.87449 7.54298 4.86841 7.55603 4.85885C7.56908 4.8493 7.57948 4.83659 7.58624 4.82193C7.593 4.80727 7.5959 4.79114 7.59468 4.77505C7.59345 4.75897 7.58814 4.74345 7.57924 4.72998C7.32475 4.28433 6.59508 4.48834 6.26702 4.72998C6.15171 4.81316 6.2531 5.01321 6.3883 4.95379V4.94785Z" fill="#111111"/>
    <path d="M10.6695 4.94785C10.2977 4.78147 9.92794 4.93398 9.54621 4.87654C9.53014 4.87449 9.51486 4.86841 9.50181 4.85885C9.48876 4.8493 9.47837 4.83659 9.47161 4.82193C9.46484 4.80727 9.46194 4.79114 9.46316 4.77505C9.46439 4.75897 9.4697 4.74345 9.47861 4.72998C9.7331 4.28433 10.4727 4.48834 10.7908 4.72998C10.9061 4.81316 10.8047 5.01321 10.6695 4.95379V4.94785Z" fill="#111111"/>
    <path d="M5.55797 2.48369C5.49037 2.58272 5.02712 6.31226 5.02712 6.31226C5.02712 6.31226 2.77249 3.8939 4.23184 2.11133L5.55797 2.48369Z" fill="#111111"/>
    <path d="M4.35474 5.21364C4.27853 5.21372 4.20521 5.18454 4.15004 5.13216C4.09487 5.07978 4.06208 5.00823 4.0585 4.93239C4.0585 4.85118 3.9571 2.90422 5.25142 1.49599C6.04671 0.626486 7.18992 0.161037 8.64529 0.10954C8.72439 0.106914 8.80129 0.135696 8.85908 0.189555C8.91688 0.243414 8.95083 0.317938 8.95346 0.396732C8.9561 0.475527 8.92721 0.552138 8.87314 0.609711C8.81908 0.667284 8.74427 0.701104 8.66517 0.703731C7.3788 0.745324 6.38073 1.14343 5.69479 1.89211C4.57146 3.11218 4.65297 4.88287 4.65297 4.89872C4.65788 4.9767 4.63154 5.05344 4.57973 5.1121C4.52793 5.17076 4.45488 5.20657 4.37661 5.21166L4.35474 5.21364Z" fill="white"/>
    <mask id="mask1_3105_8487" style="mask-type:luminance" maskUnits="userSpaceOnUse" x="4" y="0" width="5" height="6">
      <path d="M4.35084 5.21461C4.27462 5.2147 4.20131 5.18552 4.14613 5.13314C4.09096 5.08075 4.05818 5.00921 4.05459 4.93336C4.05459 4.85216 3.9532 2.90519 5.24752 1.49696C6.0428 0.627463 7.18602 0.162013 8.64139 0.110517C8.72048 0.10789 8.79738 0.136672 8.85518 0.190531C8.91297 0.24439 8.94692 0.318914 8.94956 0.397709C8.95219 0.476504 8.9233 0.553114 8.86924 0.610688C8.81517 0.668261 8.74036 0.702081 8.66127 0.704707C7.3749 0.746301 6.37682 1.14441 5.69089 1.89309C4.56755 3.11316 4.64907 4.88385 4.64907 4.89969C4.65397 4.97768 4.62763 5.05441 4.57583 5.11308C4.52402 5.17174 4.45097 5.20754 4.37271 5.21263L4.35084 5.21461Z" fill="white"/>
    </mask>
    <g mask="url(#mask1_3105_8487)">
      <path opacity="0.4" d="M5.96617 4.07324H2.23828V5.45969H5.96617V4.07324Z" fill="#9577EE"/>
      <path opacity="0.4" d="M9.27104 0.557192L6.41797 0.468063L7.29676 -0.607422L10.5355 0.994913L9.27104 0.557192Z" fill="#9577EE"/>
    </g>
    <path d="M5.23625 6.05608C5.23625 6.84833 4.78891 7.49204 4.24215 7.49204C3.69539 7.49204 3.24805 6.84833 3.24805 6.05608C3.24805 5.26382 3.69539 4.62012 4.24215 4.62012C4.78891 4.62012 5.23625 5.26184 5.23625 6.05608Z" fill="white"/>
    <path opacity="0.4" d="M4.43648 7.26832C3.88177 7.26832 3.44238 6.6266 3.44238 5.83236C3.43573 5.47524 3.5361 5.12424 3.73067 4.82422C3.56788 4.98448 3.44047 5.17684 3.35659 5.38898C3.27271 5.60112 3.23421 5.82836 3.24356 6.05617C3.24356 6.84843 3.69091 7.49214 4.23766 7.49214C4.38245 7.48454 4.52313 7.44153 4.64727 7.36692C4.77141 7.2923 4.87519 7.18837 4.94944 7.06432C4.80841 7.19118 4.62644 7.26355 4.43648 7.26832Z" fill="#9577EE"/>
    <path d="M4.52416 6.04802C4.52416 6.67588 4.17026 7.1849 3.72888 7.1849C3.28749 7.1849 2.93359 6.67588 2.93359 6.04802C2.93359 5.42016 3.28749 4.91113 3.72888 4.91113C4.17026 4.91113 4.52416 5.42016 4.52416 6.04802Z" fill="#FDE723"/>
    <path d="M4.75 6.94629C4.75 6.94629 5.04823 8.6536 6.81376 8.72886" stroke="white" stroke-miterlimit="10"/>
    <path d="M7.18545 8.72902C7.18545 8.79469 7.15927 8.85766 7.11266 8.90409C7.06605 8.95052 7.00284 8.9766 6.93693 8.9766H6.66454C6.59863 8.9766 6.53541 8.95052 6.48881 8.90409C6.4422 8.85766 6.41602 8.79469 6.41602 8.72902C6.41602 8.66336 6.4422 8.60039 6.48881 8.55396C6.53541 8.50753 6.59863 8.48145 6.66454 8.48145H6.93693C7.00284 8.48145 7.06605 8.50753 7.11266 8.55396C7.15927 8.60039 7.18545 8.66336 7.18545 8.72902Z" fill="#282C47"/>
    <path d="M27.4564 18.3645C27.3976 18.6309 27.2517 18.8704 27.0415 19.0453C26.8314 19.2202 26.5689 19.3207 26.2953 19.331H14.9367C14.8158 19.3355 14.6955 19.3117 14.5855 19.2617C14.4755 19.2116 14.3787 19.1367 14.3028 19.0429C14.2269 18.949 14.1741 18.8388 14.1485 18.7211C14.1229 18.6033 14.1252 18.4812 14.1553 18.3645L15.4934 11.5471C15.5522 11.2807 15.6981 11.0412 15.9082 10.8663C16.1183 10.6914 16.3808 10.5909 16.6545 10.5806H28.0131C28.134 10.5762 28.2542 10.5999 28.3642 10.65C28.4743 10.7 28.5711 10.7749 28.647 10.8688C28.7228 10.9626 28.7757 11.0728 28.8013 11.1906C28.8269 11.3083 28.8245 11.4304 28.7945 11.5471L27.4564 18.3645Z" fill="#B7B6B1"/>
    <path opacity="0.4" d="M20.6779 14.8274C20.6004 15.4216 20.9841 15.8989 21.5388 15.8989C21.8256 15.8821 22.0974 15.7657 22.307 15.5699C22.5166 15.3742 22.6507 15.1114 22.686 14.8274C22.7655 14.2332 22.3798 13.7559 21.8251 13.7559C21.5384 13.7731 21.2668 13.8896 21.0573 14.0853C20.8478 14.281 20.7136 14.5435 20.6779 14.8274Z" fill="#F5F5F5"/>
    <path d="M5.80035 39.0003H4.93945L8.51822 19.8535H9.37912L5.80035 39.0003Z" fill="#111111"/>
    <path d="M26.7085 39.0003H25.8477L29.4264 19.8535H30.2873L26.7085 39.0003Z" fill="#111111"/>
    <path d="M19.7878 39.0003H20.6486L17.0699 19.8535H16.209L19.7878 39.0003Z" fill="#111111"/>
    <path d="M39.382 19.0596H3.5625V20.4183H39.382V19.0596Z" fill="#111111"/>
    <g style="mix-blend-mode:multiply">
      <path d="M15.9888 19.0596H3.5625V20.4183H15.9888V19.0596Z" fill="black"/>
    </g>
    <path d="M39.1393 39.0003H40.0002L36.4234 19.8535H35.5605L39.1393 39.0003Z" fill="#111111"/>
  </g>
</svg>