<svg xmlns="http://www.w3.org/2000/svg" width="30" height="40" viewBox="0 0 30 40" fill="none">
  <g opacity="1">
    <path d="M18.8882 21.2318C18.6744 20.5739 18.6856 19.7428 18.9867 19.289C19.8809 17.9367 22.0911 20.4682 20.5928 21.8405C19.7619 22.5968 19.1485 22.0501 18.8882 21.2318Z" fill="#FABA93"/>
    <path d="M28.3508 37.739C28.3037 37.8729 28.2171 37.99 28.1021 38.0757C27.9871 38.1613 27.8488 38.2116 27.7046 38.2202C27.5605 38.2288 27.4169 38.1954 27.2922 38.124C27.1674 38.0527 27.067 37.9467 27.0037 37.8194C26.9404 37.6922 26.9169 37.5494 26.9363 37.4091C26.9557 37.2687 27.0171 37.1372 27.1127 37.0311C27.2084 36.925 27.3339 36.849 27.4735 36.8128C27.6132 36.7767 27.7606 36.7819 27.8972 36.8278C27.9881 36.8583 28.0719 36.9062 28.1439 36.9685C28.2159 37.0309 28.2747 37.1065 28.3168 37.1912C28.3589 37.2758 28.3836 37.3678 28.3894 37.4618C28.3953 37.5558 28.3821 37.65 28.3508 37.739Z" fill="#111111"/>
    <path d="M22.1596 27.2885L21.68 27.4707L19.5293 21.985L20.0089 21.8027L22.1596 27.2885Z" fill="#111111"/>
    <path d="M23.5971 26.7426L23.1175 26.9248L20.9668 21.4391L21.4464 21.2568L23.5971 26.7426Z" fill="#111111"/>
    <path d="M21.5364 20.8971C21.5757 20.9702 21.5846 21.0554 21.5614 21.1349C21.5382 21.2143 21.4846 21.2819 21.4118 21.3236L19.5994 22.0125C19.5172 22.0296 19.4314 22.0149 19.36 21.9714C19.2887 21.9279 19.2372 21.8591 19.2165 21.7792C19.1766 21.7064 19.1671 21.6212 19.19 21.5417C19.2128 21.4621 19.2663 21.3944 19.3392 21.3527L21.1516 20.6657C21.2338 20.6479 21.3199 20.6621 21.3916 20.7053C21.4634 20.7485 21.5153 20.8172 21.5364 20.8971Z" fill="#111111"/>
    <path d="M23.97 36.7181C24.0344 36.8998 24.1349 37.0673 24.2656 37.2108C24.3964 37.3542 24.5548 37.4709 24.7317 37.5541C24.9087 37.6373 25.1007 37.6853 25.2966 37.6954C25.4926 37.7055 25.6887 37.6775 25.8735 37.613L28.6898 36.6325C28.875 36.5691 29.0455 36.4705 29.1917 36.3422C29.3378 36.214 29.4567 36.0586 29.5413 35.8852C29.626 35.7117 29.6748 35.5235 29.685 35.3315C29.6952 35.1395 29.6665 34.9473 29.6006 34.7662L26.6115 26.4465C26.5469 26.2649 26.4463 26.0976 26.3155 25.9544C26.1847 25.8111 26.0262 25.6946 25.8493 25.6116C25.6724 25.5286 25.4805 25.4807 25.2846 25.4707C25.0887 25.4607 24.8927 25.4888 24.708 25.5534L21.8918 26.5248C21.7066 26.5882 21.536 26.6868 21.3898 26.8151C21.2437 26.9433 21.1249 27.0986 21.0402 27.2721C20.9555 27.4456 20.9067 27.6337 20.8965 27.8258C20.8864 28.0178 20.915 28.2099 20.9809 28.3911L23.97 36.7181Z" fill="white"/>
    <path d="M22.3983 37.2955C22.463 37.477 22.5636 37.6443 22.6944 37.7875C22.8252 37.9308 22.9836 38.0473 23.1605 38.1303C23.3375 38.2133 23.5294 38.2612 23.7253 38.2712C23.9212 38.2812 24.1171 38.2531 24.3019 38.1885L27.1181 37.2171C27.3033 37.1537 27.4739 37.0551 27.62 36.9268C27.7662 36.7986 27.885 36.6433 27.9697 36.4698C28.0543 36.2963 28.1031 36.1082 28.1133 35.9161C28.1235 35.7241 28.0948 35.532 28.029 35.3508L25.0398 27.0311C24.9754 26.8494 24.8749 26.6819 24.7442 26.5384C24.6135 26.395 24.4551 26.2783 24.2781 26.1951C24.1012 26.1119 23.9092 26.0639 23.7132 26.0538C23.5173 26.0437 23.3212 26.0717 23.1363 26.1362L20.3201 27.1094C20.1347 27.1728 19.9639 27.2715 19.8176 27.3999C19.6713 27.5283 19.5524 27.6838 19.4677 27.8574C19.383 28.0311 19.3342 28.2195 19.3242 28.4117C19.3142 28.604 19.3431 28.7963 19.4092 28.9775L22.3983 37.2955Z" fill="#FDFDFD"/>
    <path d="M28.1678 34.3447C28.2036 34.4748 28.2901 34.5859 28.4087 34.6541C28.5273 34.7222 28.6684 34.742 28.8017 34.7092L29.6958 34.3994C29.8206 34.3433 29.9179 34.2413 29.9666 34.1154C30.0153 33.9896 30.0115 33.85 29.9561 33.7269L28.8296 30.5958C28.7942 30.4658 28.708 30.3547 28.5898 30.2865C28.4715 30.2183 28.3306 30.1985 28.1975 30.2313L27.3034 30.5411C27.1783 30.5968 27.0807 30.6988 27.0319 30.8248C26.9831 30.9508 26.9872 31.0905 27.0432 31.2136L28.1678 34.3447Z" fill="#FDA623"/>
    <path d="M26.4097 29.4823C26.4456 29.6124 26.5321 29.7235 26.6506 29.7917C26.7692 29.8598 26.9103 29.8796 27.0436 29.8468L27.9378 29.5369C28.0626 29.4809 28.1599 29.3789 28.2086 29.253C28.2573 29.1272 28.2535 28.9876 28.198 28.8644L27.7351 27.6525C27.6993 27.5224 27.6128 27.4113 27.4943 27.3431C27.3757 27.2749 27.2346 27.2551 27.1013 27.288L26.2071 27.5978C26.0823 27.6539 25.985 27.7559 25.9363 27.8817C25.8876 28.0076 25.8914 28.1472 25.9469 28.2703L26.4097 29.4823Z" fill="#FDA623"/>
    <path d="M26.6538 38.09C26.6538 38.2702 26.5993 38.4464 26.4972 38.5962C26.3951 38.7461 26.2499 38.8629 26.0801 38.9319C25.9102 39.0008 25.7233 39.0189 25.543 38.9837C25.3628 38.9486 25.1971 38.8618 25.0672 38.7343C24.9372 38.6069 24.8486 38.4445 24.8128 38.2677C24.7769 38.091 24.7953 37.9078 24.8657 37.7412C24.936 37.5747 25.0552 37.4324 25.208 37.3323C25.3608 37.2322 25.5405 37.1787 25.7244 37.1787C25.9709 37.1787 26.2073 37.2747 26.3816 37.4456C26.5559 37.6165 26.6538 37.8483 26.6538 38.09Z" fill="#111111"/>
    <path d="M26.153 38.0897C26.1537 38.1745 26.1288 38.2576 26.0813 38.3284C26.0338 38.3993 25.966 38.4548 25.8863 38.4878C25.8067 38.5208 25.7188 38.5299 25.6339 38.514C25.549 38.498 25.4708 38.4577 25.4092 38.3981C25.3477 38.3385 25.3056 38.2624 25.2882 38.1793C25.2708 38.0963 25.279 38.01 25.3117 37.9315C25.3443 37.853 25.4 37.7858 25.4717 37.7384C25.5434 37.6909 25.6278 37.6654 25.7143 37.665C25.8297 37.665 25.9404 37.7096 26.0225 37.7891C26.1046 37.8686 26.1515 37.9766 26.153 38.0897Z" fill="#F0F0F0"/>
    <path d="M23.8901 32.4092L24.7378 34.7912C24.8309 35.0537 24.8139 35.3417 24.6905 35.5918C24.5671 35.842 24.3474 36.0339 24.0797 36.1253L22.7339 36.5846C22.4662 36.6759 22.1724 36.6592 21.9172 36.5382C21.6621 36.4172 21.4663 36.2018 21.3731 35.9394L20.5273 33.5574L23.8901 32.4092Z" fill="#FDA623"/>
    <path d="M12.8013 26.135V21.9432C12.5318 21.5095 12.1284 21.2306 11.6711 21.2324C10.8978 21.2324 10.2714 22.0362 10.2305 23.0422V23.0896C10.2305 23.1133 10.2305 23.1351 10.2305 23.1588C10.2305 23.2876 10.2411 23.4162 10.2621 23.5434L10.9963 36.5689C11.2056 36.7823 11.4923 36.906 11.7941 36.9132C12.096 36.9203 12.3885 36.8103 12.608 36.6071L12.8961 26.1423L12.8013 26.135Z" fill="#FABA93"/>
    <path d="M12.3013 0.25293C11.8134 0.261309 11.3345 0.382448 10.9034 0.606497C9.60213 1.30087 10.0445 3.35666 10.6375 4.38456C11.145 5.26119 12.5225 4.47386 12.015 3.59541C11.7548 3.19693 11.5832 2.74921 11.5112 2.28138C11.4573 1.7237 12.1823 1.49588 12.5838 1.27354C13.0857 0.994691 12.8403 0.278445 12.3013 0.25293Z" fill="#111111"/>
    <path d="M22.7405 10.5005C22.7109 10.2527 22.6176 10.0163 22.4694 9.81359C22.3211 9.61084 22.1227 9.44835 21.8929 9.34136C21.2776 9.02971 20.3593 9.23383 20.508 8.2679C20.6567 7.30197 20.9281 5.89864 19.5227 5.76377C18.8796 5.7018 18.2215 5.88041 17.5802 5.74372C16.7641 5.56147 16.582 4.15267 16.3738 3.51297C16.2065 2.99902 15.3811 3.2159 15.5447 3.73714C15.5577 3.77541 15.5689 3.81368 15.58 3.85196C14.9684 3.59316 14.4386 4.19823 14.4963 4.77961C14.4182 4.86163 14.3383 4.93999 14.2528 5.01472C14.0501 5.19697 13.8326 5.37011 13.6282 5.56147C13.4252 5.76564 13.2721 6.01225 13.1803 6.28277C13.0886 6.5533 13.0606 6.84069 13.0984 7.12336C13.1727 7.76853 13.565 8.28066 13.8884 8.82559C14.249 9.43066 13.7118 10.3474 13.8289 11.0363C14.1115 12.7021 16.0131 13.5295 17.5114 12.8825C17.8 12.7306 18.0562 12.5258 18.2661 12.2792C18.3684 12.1517 18.4669 12.0223 18.5617 11.8892C18.5983 11.8403 18.6306 11.7885 18.6584 11.7343C19.2885 12.0806 19.8276 12.4633 20.5786 12.5016C21.7497 12.5581 22.9264 11.7726 22.7405 10.5005Z" fill="#111111"/>
    <path d="M12.1809 35.7347C12.1809 35.7347 6.87933 38.5195 8.95758 38.8658C11.0358 39.2121 12.008 37.8069 12.3241 37.457C12.3241 37.457 12.9877 38.104 13.049 37.5408C13.049 37.5427 12.9914 35.2864 12.1809 35.7347Z" fill="#111111" stroke="#111111" stroke-width="0.5" stroke-miterlimit="10"/>
    <path d="M12.6615 35.749C12.8251 36.0461 12.4421 36.6329 11.8064 37.0594C11.1706 37.4859 10.5237 37.5897 10.3602 37.2908C10.1966 36.992 10.5777 36.4069 11.2134 35.9805C11.8491 35.554 12.4979 35.4519 12.6615 35.749Z" fill="#FABA93"/>
    <path d="M14.1887 7.33203H12.5938V10.0312H14.1887V7.33203Z" fill="#FABA93"/>
    <g style="mix-blend-mode:multiply">
      <path d="M12.5938 8.21048C12.8141 8.40077 13.0976 8.50574 13.3912 8.50574C13.6848 8.50574 13.9684 8.40077 14.1887 8.21048V7.33203H12.5938V8.21048Z" fill="#FCBA93"/>
    </g>
    <path d="M16.0826 2.32509C15.9729 1.1514 14.1754 0.639271 13.2496 0.646561C12.2254 0.646561 10.8089 1.11495 10.6955 2.32692C10.6244 3.05377 10.5922 3.78377 10.5988 4.51393C10.5988 5.17368 10.5579 5.92819 10.7717 6.56243C11.4205 8.49429 15.2331 8.44508 15.9766 6.62075C16.222 6.0175 16.1625 5.26116 16.1625 4.61599C16.18 3.85149 16.1533 3.08663 16.0826 2.32509Z" fill="#FABA93"/>
    <path d="M15.9522 5.50238C16.0051 5.60528 16.0842 5.69296 16.182 5.75686C16.2797 5.82075 16.3927 5.85867 16.5099 5.86688C16.6051 5.86903 16.6996 5.85055 16.7867 5.81274C16.8738 5.77494 16.9513 5.71875 17.0137 5.64818C17.2795 5.31649 17.3687 4.79525 17.0639 4.45444C16.9965 4.37731 16.909 4.31961 16.8108 4.2875C16.7126 4.2554 16.6073 4.2501 16.5062 4.27219C16.4903 4.27655 16.4748 4.28203 16.4597 4.28859C16.3886 4.29546 16.3198 4.31744 16.2581 4.353C16.1965 4.38857 16.1435 4.43686 16.1028 4.49453C16.179 4.3943 16.1753 4.39794 16.0898 4.50729C16.0712 4.54374 16.0563 4.58202 16.0415 4.62029L16.0656 4.55103C16.0593 4.57053 16.0512 4.58944 16.0415 4.60753C15.9976 4.68599 15.9585 4.76693 15.9244 4.84992C15.8798 4.95399 15.8591 5.06643 15.864 5.17921C15.8688 5.29199 15.8989 5.40234 15.9522 5.50238Z" fill="#FABA93"/>
    <path d="M12.0526 4.10329C12.3351 4.25456 12.6549 4.46779 12.7553 4.7922C12.8556 5.11661 12.653 5.37176 12.3835 5.52121C12.3594 5.53556 12.3406 5.55711 12.3299 5.58269C12.3192 5.60827 12.3171 5.63654 12.324 5.66336C12.3482 5.74462 12.3906 5.81954 12.4482 5.88262C12.5058 5.94569 12.577 5.99532 12.6567 6.02786C12.7352 6.05475 12.8199 6.05854 12.9005 6.03879C12.9811 6.01904 13.054 5.97659 13.1103 5.91669C13.1249 5.90501 13.1363 5.88983 13.1432 5.8726C13.1501 5.85538 13.1523 5.8367 13.1497 5.81837C13.1471 5.80004 13.1397 5.78269 13.1282 5.76798C13.1168 5.75328 13.1016 5.74173 13.0843 5.73444C13.0155 5.7071 12.917 5.76178 12.8463 5.77818C12.6976 5.81098 12.6158 5.68888 12.5601 5.57041L12.5136 5.74173C12.8463 5.52121 13.0992 5.16946 12.9672 4.76122C12.8946 4.57513 12.7756 4.40987 12.621 4.28059C12.4664 4.15131 12.2812 4.06215 12.0823 4.02128C12.0719 4.01937 12.0611 4.02102 12.0518 4.02594C12.0425 4.03087 12.0351 4.03877 12.031 4.04835C12.0269 4.05792 12.0262 4.06859 12.0291 4.07859C12.032 4.08858 12.0384 4.0973 12.047 4.10329H12.0526Z" fill="#F48364"/>
    <path d="M16.5779 1.12675C15.6726 0.0332436 13.3601 -0.422384 12.1704 0.481581C12.0523 0.566551 11.9587 0.680081 11.8986 0.811099C11.8386 0.942116 11.8142 1.08615 11.8279 1.22915C11.8416 1.37215 11.8928 1.50924 11.9766 1.62704C12.0604 1.74484 12.1739 1.83934 12.3061 1.90132C12.6258 2.0617 13.4605 2.04165 13.6073 2.37335C13.7542 2.70504 13.81 2.9201 14.1241 3.16067C14.3658 3.34292 14.732 3.3247 15.0145 3.33199C15.4123 3.34292 15.3863 3.96987 15.4923 4.24324C15.5339 4.34304 15.5969 4.4329 15.6771 4.50674C15.7572 4.58058 15.8526 4.63668 15.9567 4.67125C16.0609 4.70581 16.1714 4.71803 16.2808 4.70707C16.3903 4.69611 16.496 4.66224 16.5909 4.60774C17.4906 4.06099 17.2731 2.74149 17.011 1.91772C16.9198 1.62923 16.7727 1.36068 16.5779 1.12675Z" fill="#111111"/>
    <path d="M11.1084 3.42864C11.1441 3.37588 11.1949 3.33472 11.2545 3.31037C11.3141 3.28603 11.3797 3.27962 11.443 3.29196C11.5824 3.29196 11.694 3.40495 11.8353 3.40313C11.8612 3.40291 11.8867 3.39687 11.9098 3.38546C11.9329 3.37406 11.9531 3.3576 11.9687 3.33735C11.9843 3.3171 11.995 3.2936 11.9999 3.26867C12.0048 3.24374 12.0038 3.21803 11.997 3.19354C11.9412 2.94386 11.5824 2.88189 11.365 2.90194C11.2444 2.91038 11.1293 2.95418 11.0344 3.02763C10.9396 3.10109 10.8696 3.2008 10.8333 3.31383C10.8261 3.34767 10.8311 3.38292 10.8474 3.41358C10.8637 3.44423 10.8904 3.46838 10.9228 3.48192C10.9553 3.49547 10.9915 3.49756 11.0253 3.48784C11.0592 3.47813 11.0885 3.45721 11.1084 3.42864Z" fill="#111111"/>
    <path d="M14.6478 3.42864C14.6123 3.3757 14.5615 3.33439 14.5019 3.31003C14.4422 3.28567 14.3765 3.27937 14.3132 3.29196C14.1738 3.29196 14.0622 3.40495 13.9228 3.40313C13.8967 3.40311 13.871 3.39723 13.8476 3.38596C13.8242 3.37468 13.8037 3.35831 13.7877 3.33808C13.7718 3.31785 13.7607 3.29431 13.7555 3.26926C13.7502 3.24421 13.7509 3.21831 13.7574 3.19354C13.8132 2.94386 14.1719 2.88189 14.3894 2.90194C14.5099 2.91038 14.6251 2.95418 14.7199 3.02763C14.8147 3.10109 14.8848 3.20081 14.9211 3.31383C14.9768 3.47603 14.7352 3.56898 14.6459 3.42864H14.6478Z" fill="#111111"/>
    <path d="M13.3138 4.75508C13.2212 4.64921 13.0989 4.57226 12.9621 4.53371C12.8254 4.49517 12.6801 4.49673 12.5442 4.5382C12.4176 4.5797 12.3016 4.64745 12.2041 4.73686L12.0684 4.60746C12.1871 4.4952 12.33 4.41049 12.4866 4.3596C12.655 4.30688 12.8355 4.30346 13.0058 4.34975C13.1762 4.39604 13.3291 4.49003 13.4458 4.62022L13.3138 4.75508Z" fill="white"/>
    <path d="M12.4521 4.749C12.4521 5.4452 11.9446 6.01383 11.3238 6.01383C10.7029 6.01383 10.1973 5.45067 10.1973 4.75447C10.1973 4.05827 10.701 3.49512 11.3238 3.49512C11.9465 3.49512 12.4521 4.05463 12.4521 4.749Z" fill="white"/>
    <path d="M12.2111 4.74744C12.2111 5.29419 11.8151 5.73706 11.3262 5.73706C10.8374 5.73706 10.4414 5.29419 10.4414 4.74744C10.4414 4.20068 10.8374 3.75781 11.3262 3.75781C11.8151 3.75781 12.2111 4.20068 12.2111 4.74744Z" fill="#3F1C25"/>
    <path d="M10.7714 4.67331C10.7438 4.75929 10.7356 4.85015 10.7475 4.93955C10.7594 5.02895 10.791 5.11473 10.8402 5.1909C10.9015 5.29478 11.1413 5.51531 11.2473 5.3367C11.2519 5.32732 11.2543 5.31704 11.2543 5.30663C11.2543 5.29622 11.2519 5.28594 11.2473 5.27656C11.218 5.23821 11.1779 5.20907 11.132 5.19272C11.0796 5.16074 11.0356 5.11702 11.0038 5.06515C10.9259 4.95935 10.8866 4.83097 10.8922 4.70065C10.8944 4.68573 10.891 4.67055 10.8826 4.65794C10.8741 4.64533 10.8613 4.63615 10.8465 4.63213C10.8317 4.62811 10.8159 4.62952 10.8021 4.63609C10.7883 4.64266 10.7773 4.65395 10.7714 4.66784V4.67331Z" fill="white"/>
    <path d="M15.3839 4.749C15.3839 5.4452 14.8746 6.01383 14.2575 6.01383C13.6403 6.01383 13.1328 5.45067 13.1328 4.75447C13.1328 4.05827 13.6366 3.49512 14.2575 3.49512C14.8783 3.49512 15.3839 4.05463 15.3839 4.749Z" fill="white"/>
    <path d="M15.1408 4.74744C15.1408 5.29419 14.7448 5.73706 14.2559 5.73706C13.767 5.73706 13.3711 5.29419 13.3711 4.74744C13.3711 4.20068 13.767 3.75781 14.2559 3.75781C14.7448 3.75781 15.1408 4.20068 15.1408 4.74744Z" fill="#3F1C25"/>
    <path d="M13.6966 4.67347C13.6692 4.75959 13.6614 4.85052 13.6736 4.93992C13.6858 5.02932 13.7177 5.11503 13.7672 5.19107C13.8267 5.29495 14.0683 5.51547 14.1724 5.33687C14.1778 5.32773 14.1807 5.31735 14.1807 5.3068C14.1807 5.29624 14.1778 5.28587 14.1724 5.27673C14.1438 5.23851 14.1044 5.20936 14.059 5.19289C14.0058 5.16193 13.9616 5.11798 13.9308 5.06531C13.852 4.95998 13.8126 4.83127 13.8192 4.70081C13.8214 4.69291 13.822 4.68467 13.821 4.67655C13.8199 4.66843 13.8173 4.66059 13.8131 4.65348C13.809 4.64637 13.8034 4.64013 13.7968 4.63512C13.7902 4.63011 13.7827 4.62642 13.7746 4.62427C13.7666 4.62211 13.7582 4.62154 13.7499 4.62257C13.7416 4.6236 13.7336 4.62622 13.7264 4.63028C13.7191 4.63435 13.7127 4.63977 13.7076 4.64624C13.7025 4.65271 13.6988 4.66011 13.6966 4.66801V4.67347Z" fill="white"/>
    <path d="M14.0222 6.30273C14.0222 6.57148 13.9133 6.82922 13.7195 7.01926C13.5256 7.20929 13.2627 7.31605 12.9886 7.31605C12.7145 7.31605 12.4516 7.20929 12.2578 7.01926C12.064 6.82922 11.9551 6.57148 11.9551 6.30273H14.0222Z" fill="#3F1C25"/>
    <mask id="mask0_3105_8550" style="mask-type:luminance" maskUnits="userSpaceOnUse" x="11" y="6" width="4" height="2">
      <path d="M14.0241 6.2998C14.0241 6.56855 13.9152 6.82629 13.7214 7.01633C13.5276 7.20636 13.2647 7.31312 12.9906 7.31312C12.7165 7.31312 12.4536 7.20636 12.2598 7.01633C12.0659 6.82629 11.957 6.56855 11.957 6.2998H14.0241Z" fill="white"/>
    </mask>
    <g mask="url(#mask0_3105_8550)">
      <path d="M12.2609 6.58665H15.1422V5.78839L11.9355 5.69727L12.2609 6.58665Z" fill="white"/>
    </g>
    <path d="M13.5321 9.14655C11.6732 9.1666 10.0002 10.2674 8.55028 11.3008C6.85496 12.5054 4.95702 14.1202 3.92904 15.9354C3.34906 16.9578 4.9217 17.9402 5.50354 16.9032C6.35491 15.4014 7.9071 14.091 9.26782 13.0358C10.3832 12.1719 12.0004 10.9855 13.4745 10.9691C14.6698 10.9563 14.7349 9.13379 13.5321 9.14655Z" fill="#FABA93"/>
    <path d="M15.2013 11.3195C16.4616 12.1122 17.1383 13.9439 17.6476 15.2615C18.2555 16.8325 18.8355 18.8045 18.7444 20.4958C18.6812 21.6713 20.5401 21.664 20.6033 20.4958C20.7148 18.4218 19.9787 16.0671 19.1961 14.1644C18.5232 12.5241 17.709 10.7271 16.1382 9.74663C15.1269 9.10875 14.1956 10.687 15.2087 11.3195H15.2013Z" fill="#FABA93"/>
    <path d="M13.0992 21.3224C12.5415 21.5047 12.2106 22.0788 12.1939 22.7695H12.166L13.2312 26.05L13.2869 26.0209L17.1906 36.134C18.0736 36.4985 18.7372 35.6911 18.7372 35.6911L15.1105 23.298C15.1384 22.9973 15.196 23.0356 15.0882 22.7094C14.7555 21.707 13.8651 21.0837 13.0992 21.3224Z" fill="#FABA93"/>
    <path d="M18.0823 34.9903C18.0823 34.9903 13.8812 39.2277 15.9836 38.9379C18.086 38.6481 18.5619 37.0206 18.7571 36.5941C18.7571 36.5941 19.588 37.0133 19.4709 36.4575C19.4653 36.4575 18.7162 34.3269 18.0823 34.9903Z" fill="#111111" stroke="#111111" stroke-width="0.5" stroke-miterlimit="10"/>
    <path d="M18.5466 34.8676C18.7957 35.1027 18.6136 35.7789 18.1395 36.3693C17.6655 36.9598 17.08 37.2551 16.8383 37.0218C16.5966 36.7885 16.7732 36.1106 17.2473 35.5182C17.7213 34.9259 18.2994 34.627 18.5466 34.8676Z" fill="#FABA93"/>
    <path d="M17.2874 21.0296V28.1957H9.54883V20.4865C9.54883 19.1214 11.075 16.8414 13.2239 16.8414C13.2239 16.8414 17.4101 16.6318 17.2874 21.0296Z" fill="#DC7DE2"/>
    <path d="M0 15.7575L2.78836 14.2138C2.83409 14.1882 2.88454 14.1716 2.93681 14.1652C2.98908 14.1587 3.04214 14.1625 3.09293 14.1762C3.14372 14.1899 3.19125 14.2133 3.23277 14.2451C3.27429 14.2769 3.30899 14.3164 3.33488 14.3614L5.37409 17.8679C5.40054 17.9129 5.41763 17.9625 5.42437 18.0139C5.43112 18.0654 5.42737 18.1176 5.41337 18.1676C5.39936 18.2176 5.37537 18.2644 5.34278 18.3053C5.31019 18.3461 5.26966 18.3802 5.22352 18.4056L2.43517 19.9602L0 15.7575Z" fill="#211C3F"/>
    <path d="M3.13533 17.3321C3.12167 17.2961 3.10488 17.2614 3.08514 17.2282C3.06625 17.1953 3.04513 17.1636 3.02193 17.1335C3.01539 17.1226 3.00725 17.1128 2.99777 17.1043C2.88823 16.9778 2.74246 16.8866 2.57937 16.8424C2.41628 16.7982 2.24341 16.8031 2.08319 16.8564C2.07078 16.8588 2.05885 16.8631 2.04787 16.8692C2.01229 16.8837 1.97754 16.9002 1.94377 16.9184C1.90968 16.9377 1.87679 16.959 1.84525 16.9822C1.83411 16.9885 1.82407 16.9965 1.8155 17.0059C1.68633 17.1131 1.59311 17.256 1.54802 17.416C1.50292 17.5759 1.50803 17.7455 1.56269 17.9026C1.56537 17.9146 1.56975 17.9263 1.57571 17.9372C1.59005 17.9732 1.60746 18.0079 1.62776 18.0411C1.64664 18.074 1.66776 18.1057 1.69096 18.1358C1.69694 18.1465 1.70518 18.1558 1.71512 18.1632C1.82502 18.2891 1.97108 18.3796 2.13425 18.4228C2.29741 18.466 2.47008 18.46 2.62971 18.4056C2.64226 18.4038 2.65429 18.3994 2.66502 18.3928C2.70094 18.379 2.73574 18.3626 2.76912 18.3436C2.80343 18.3255 2.83581 18.3042 2.86579 18.2798C2.87628 18.2734 2.88569 18.2654 2.89367 18.2561C3.02306 18.149 3.11642 18.0061 3.16154 17.8461C3.20665 17.6861 3.2014 17.5165 3.14648 17.3594C3.14476 17.3474 3.14099 17.3357 3.13533 17.3248V17.3321ZM2.74682 18.2689L2.56093 17.9554C2.639 17.9098 2.71707 17.8606 2.78957 17.8096C2.84365 17.9273 2.86667 18.0564 2.85649 18.185C2.82304 18.2167 2.78628 18.2448 2.74682 18.2689ZM2.57951 18.3436C2.45985 18.2871 2.3578 18.2003 2.28395 18.0921C2.35837 18.0622 2.43099 18.0281 2.50144 17.99L2.68733 18.3035C2.64829 18.3181 2.61298 18.3327 2.57951 18.3436ZM1.71327 18.0265L2.03486 17.8442C2.07823 17.9186 2.12602 17.9904 2.17799 18.0593C2.05735 18.1124 1.92504 18.1349 1.7932 18.1249C1.76467 18.0936 1.73798 18.0607 1.71327 18.0265ZM1.63333 17.8442C1.69169 17.7285 1.77938 17.6293 1.888 17.5563C1.9204 17.6323 1.95702 17.7065 1.99768 17.7786L1.67423 17.9627C1.65727 17.9294 1.64357 17.8946 1.63333 17.8588V17.8442ZM1.93819 17.0077L2.12408 17.3212C2.0553 17.3613 1.98652 17.4068 1.92332 17.4524C1.8697 17.3366 1.84791 17.209 1.86012 17.0824C1.8847 17.0584 1.91077 17.0359 1.93819 17.015V17.0077ZM2.13338 16.9184C2.25209 16.9754 2.35387 17.0614 2.42894 17.1681C2.34486 17.2021 2.26292 17.2411 2.18357 17.2847L1.99768 16.9712C2.04127 16.9517 2.08673 16.9365 2.13338 16.9257V16.9184ZM2.99219 17.2264L2.67246 17.4086C2.6303 17.3377 2.58438 17.269 2.5349 17.2027C2.65435 17.1479 2.78651 17.1253 2.91784 17.1371C2.94576 17.1669 2.97066 17.1992 2.99219 17.2337V17.2264ZM2.62041 17.436L2.36016 17.5818L2.22261 17.343C2.30458 17.2979 2.38897 17.2572 2.47542 17.2209C2.52589 17.2926 2.57243 17.3668 2.61483 17.4433L2.62041 17.436ZM2.15754 17.3777L2.2951 17.6164L2.06088 17.7458C2.01944 17.6707 1.98221 17.5934 1.94935 17.5144C2.00325 17.4779 2.07389 17.4323 2.15197 17.385L2.15754 17.3777ZM2.09806 17.8096L2.33228 17.6784L2.47356 17.9262C2.40005 17.9656 2.32433 18.0009 2.24677 18.0319C2.19151 17.963 2.14 17.8912 2.09248 17.8169L2.09806 17.8096ZM2.53862 17.8898L2.39548 17.6438L2.65759 17.498C2.70468 17.583 2.74372 17.6632 2.7747 17.7385C2.69834 17.7973 2.61756 17.8503 2.53304 17.8971L2.53862 17.8898ZM2.72451 17.467L3.04424 17.2847C3.06477 17.3232 3.08157 17.3635 3.09443 17.405C3.03579 17.5211 2.94819 17.6208 2.83976 17.6948C2.80065 17.6189 2.7572 17.5453 2.70964 17.4743L2.72451 17.467ZM2.85835 17.0587C2.73754 17.0688 2.61904 17.0971 2.50702 17.1426C2.42956 17.048 2.33658 16.9667 2.2319 16.902C2.33987 16.8849 2.45032 16.8907 2.55582 16.919C2.66131 16.9473 2.7594 16.9975 2.84348 17.066L2.85835 17.0587ZM1.7932 17.1499C1.79669 17.2674 1.81928 17.3837 1.86012 17.4943C1.76251 17.5642 1.67712 17.6491 1.60731 17.7458C1.59059 17.6414 1.59722 17.5347 1.62675 17.433C1.65628 17.3314 1.708 17.2372 1.77833 17.1571L1.7932 17.1499ZM1.88428 18.1942C2.00452 18.1842 2.12243 18.1559 2.23376 18.1103C2.30569 18.2061 2.39295 18.2898 2.49215 18.3582C2.38298 18.3785 2.27058 18.375 2.16295 18.3479C2.05532 18.3208 1.9551 18.2708 1.86941 18.2014L1.88428 18.1942ZM2.94944 18.1048C2.94004 17.9863 2.91116 17.8699 2.86393 17.7604C2.96199 17.6904 3.04797 17.6055 3.1186 17.5089C3.13417 17.6165 3.12578 17.7262 3.09401 17.8303C3.06224 17.9344 3.00785 18.0306 2.93457 18.1121L2.94944 18.1048Z" fill="white"/>
    <path d="M4.28544 16.6917C4.2706 16.6563 4.25385 16.6216 4.23525 16.5879C4.21617 16.5546 4.19442 16.5229 4.17019 16.4931C4.16431 16.4823 4.15605 16.473 4.14602 16.4657C4.03694 16.3393 3.8915 16.2479 3.72868 16.2037C3.56585 16.1595 3.39322 16.1644 3.2333 16.2179C3.22009 16.2194 3.20739 16.2237 3.19612 16.2306C3.15994 16.2452 3.12457 16.2616 3.09017 16.2798C3.05654 16.299 3.02425 16.3203 2.9935 16.3436C2.98161 16.3496 2.9714 16.3584 2.96376 16.3692C2.83474 16.4761 2.7416 16.6187 2.6965 16.7783C2.6514 16.938 2.65644 17.1072 2.71095 17.264C2.71248 17.2764 2.71694 17.2882 2.72396 17.2986C2.7388 17.3341 2.75556 17.3688 2.77415 17.4025C2.79367 17.4355 2.81541 17.4671 2.83921 17.4973C2.84583 17.5086 2.85468 17.5185 2.86524 17.5264C2.97432 17.6529 3.11976 17.7443 3.28259 17.7885C3.44541 17.8327 3.61804 17.8277 3.77796 17.7743C3.7911 17.7726 3.80375 17.7682 3.81514 17.7615C3.85108 17.747 3.8864 17.7306 3.9211 17.7123C3.95472 17.6932 3.98702 17.6719 4.01776 17.6486C4.02961 17.6433 4.03987 17.6352 4.0475 17.6249C4.17652 17.5179 4.26966 17.3753 4.31476 17.2157C4.35986 17.0561 4.35482 16.8868 4.30031 16.73C4.29852 16.7171 4.2941 16.7047 4.2873 16.6936L4.28544 16.6917ZM3.90251 17.6285L3.71662 17.3114C3.79624 17.2681 3.87265 17.2194 3.94526 17.1656C4.00146 17.2832 4.02456 17.4135 4.01218 17.5428C3.97841 17.5747 3.9417 17.6034 3.90251 17.6285ZM3.73335 17.7014C3.61495 17.6439 3.51328 17.558 3.43778 17.4517C3.51281 17.4218 3.58604 17.3877 3.65713 17.3497L3.84302 17.6613C3.80585 17.6779 3.76729 17.6913 3.72777 17.7014H3.73335ZM2.86896 17.3861L3.18869 17.2039C3.23311 17.2786 3.2815 17.351 3.33368 17.4207C3.21324 17.4744 3.08063 17.4964 2.94889 17.4845C2.91747 17.4543 2.88885 17.4213 2.86338 17.3861H2.86896ZM2.78902 17.2039C2.84738 17.0881 2.93507 16.9889 3.04369 16.9159C3.07529 16.9888 3.11247 17.0654 3.15337 17.1383L2.83364 17.3205C2.81473 17.2855 2.79917 17.2489 2.78716 17.2111L2.78902 17.2039ZM3.09388 16.3673L3.27977 16.6808C3.20979 16.7199 3.1427 16.7637 3.07901 16.812C3.02375 16.694 3.00008 16.5642 3.01023 16.4348C3.03498 16.4132 3.06106 16.3931 3.08831 16.3746L3.09388 16.3673ZM3.28907 16.278C3.40715 16.3352 3.50828 16.4212 3.58278 16.5277C3.49869 16.5618 3.41675 16.6007 3.3374 16.6443L3.15151 16.3309C3.19378 16.3113 3.23801 16.296 3.28349 16.2853L3.28907 16.278ZM4.14788 16.586L3.82815 16.7683C3.7854 16.6972 3.73706 16.6261 3.69059 16.5623C3.81024 16.5081 3.9421 16.4849 4.07353 16.4949C4.09852 16.5263 4.12149 16.5591 4.14231 16.5933L4.14788 16.586ZM3.7761 16.7956L3.50284 16.9469L3.36528 16.71C3.45637 16.6608 3.54188 16.6207 3.61995 16.5879C3.67253 16.6567 3.72094 16.7285 3.76495 16.8029L3.7761 16.7956ZM3.31323 16.7373L3.45079 16.976L3.21657 17.1054C3.17196 17.0234 3.13292 16.9451 3.10318 16.874C3.16726 16.8277 3.23365 16.7845 3.30208 16.7446L3.31323 16.7373ZM3.25375 17.1692L3.48611 17.038L3.62925 17.2859C3.54932 17.3278 3.4731 17.3624 3.40246 17.3916C3.34508 17.3229 3.29171 17.2511 3.2426 17.1765L3.25375 17.1692ZM3.69431 17.2494L3.55117 17.0034L3.81142 16.8576C3.85564 16.9355 3.89536 17.0158 3.93039 17.0982C3.85143 17.156 3.76886 17.209 3.68316 17.2567L3.69431 17.2494ZM3.87091 16.8248L4.18878 16.6425C4.20931 16.681 4.22611 16.7213 4.23897 16.7628C4.18061 16.8786 4.09292 16.9777 3.9843 17.0508C3.93969 16.987 3.90251 16.9086 3.85975 16.8321L3.87091 16.8248ZM4.00475 16.4184C3.88391 16.4282 3.76537 16.4565 3.65341 16.5022C3.58108 16.4074 3.4946 16.3239 3.39689 16.2543C3.50304 16.24 3.61108 16.2479 3.71392 16.2775C3.81675 16.307 3.91206 16.3575 3.99359 16.4256L4.00475 16.4184ZM2.93774 16.5077C2.94782 16.6261 2.97667 16.7423 3.02325 16.8521C2.92561 16.9227 2.84025 17.0082 2.77043 17.1054C2.75263 17.0018 2.75734 16.8956 2.78425 16.7939C2.81116 16.6921 2.85966 16.5971 2.92658 16.515L2.93774 16.5077ZM3.02882 17.5538C3.14966 17.5439 3.2682 17.5156 3.38015 17.4699C3.45249 17.5647 3.53897 17.6483 3.63668 17.7178C3.52808 17.7373 3.41646 17.7334 3.30956 17.7063C3.20266 17.6793 3.10305 17.6297 3.01767 17.5611L3.02882 17.5538ZM4.0884 17.4718C4.07694 17.3537 4.04684 17.2381 3.99917 17.1291C4.09678 17.0593 4.18217 16.9743 4.25198 16.8776C4.26943 16.9824 4.26386 17.0896 4.23565 17.192C4.20744 17.2945 4.15723 17.3899 4.0884 17.4718Z" fill="white"/>
    <path d="M3.51525 16.1004C3.70655 16.0886 3.89213 16.0317 4.05619 15.9345C4.13794 15.8978 4.22172 15.8655 4.30714 15.8379C4.40009 15.807 4.49303 15.8179 4.59155 15.7924C4.63923 15.7802 4.68231 15.7548 4.71555 15.7192C4.74879 15.6835 4.77078 15.6392 4.77885 15.5916C4.78691 15.5439 4.78071 15.495 4.761 15.4508C4.74128 15.4065 4.7089 15.3688 4.66777 15.3422C4.47258 15.1946 4.15843 15.2948 3.96324 15.3951C3.75414 15.4927 3.56114 15.6204 3.3907 15.7741C3.35924 15.7979 3.33638 15.831 3.32548 15.8685C3.31459 15.9059 3.31622 15.9458 3.33016 15.9823C3.34409 16.0188 3.36958 16.05 3.40289 16.0712C3.4362 16.0925 3.47558 16.1027 3.51525 16.1004Z" fill="#FABA93"/>
    <mask id="mask1_3105_8550" style="mask-type:luminance" maskUnits="userSpaceOnUse" x="9" y="9" width="8" height="9">
      <path d="M16.5906 10.8375C16.3899 10.3818 16.178 10.0483 15.8471 9.85878C15.0849 9.41227 14.2596 9.25917 13.4658 9.04412C13.404 9.03738 13.3417 9.03738 13.2799 9.04412C12.4862 9.25917 11.6608 9.40862 10.8987 9.85878C10.5734 10.041 10.3614 10.3818 10.1551 10.8375C9.99246 11.1847 9.88105 11.5529 9.82422 11.931L10.09 17.9726L16.9531 17.8942L16.9215 11.9237C16.864 11.5481 16.7526 11.1824 16.5906 10.8375Z" fill="white"/>
    </mask>
    <g mask="url(#mask1_3105_8550)">
      <path d="M16.5848 10.8375C16.384 10.3818 16.1721 10.0483 15.8412 9.85878C15.0791 9.41227 14.2537 9.25917 13.46 9.04412C13.3982 9.03738 13.3358 9.03738 13.2741 9.04412C12.4803 9.25917 11.655 9.40862 10.8928 9.85878C10.5675 10.041 10.3556 10.3818 10.1492 10.8375C9.9866 11.1847 9.87519 11.5529 9.81836 11.931L10.0842 17.9726L16.9473 17.8942L16.9157 11.9237C16.8581 11.5481 16.7467 11.1824 16.5848 10.8375Z" fill="#056B6B"/>
      <path d="M19.9319 10.8375C19.7311 10.3818 19.5192 10.0483 19.1883 9.85878C18.4262 9.41227 17.6008 9.25917 16.8071 9.04412C16.7453 9.03738 16.6829 9.03738 16.6212 9.04412C15.8274 9.25917 15.0021 9.40862 14.2399 9.85878C13.9146 10.041 13.7027 10.3818 13.4964 10.8375C13.3569 11.1528 13.3755 13.0245 13.3235 13.4218L9.76367 18.4173L20.2981 17.8869L20.2628 11.9237C20.2053 11.5481 20.0939 11.1824 19.9319 10.8375Z" fill="#056B6B"/>
      <mask id="mask2_3105_8550" style="mask-type:luminance" maskUnits="userSpaceOnUse" x="9" y="9" width="8" height="9">
        <path d="M16.5887 10.8355C16.3879 10.3799 16.176 10.0464 15.8451 9.85683C15.083 9.41031 14.2576 9.25722 13.4639 9.04217C13.4021 9.03542 13.3397 9.03542 13.278 9.04217C12.4842 9.25722 11.6589 9.40667 10.8967 9.85683C10.5714 10.0391 10.3595 10.3799 10.1532 10.8355C9.99051 11.1828 9.87909 11.551 9.82227 11.929L10.0881 17.9706L16.9512 17.8923L16.9196 11.9217C16.8621 11.5462 16.7507 11.1805 16.5887 10.8355Z" fill="white"/>
      </mask>
      <g mask="url(#mask2_3105_8550)">
        <path d="M11.2773 8.46387L13.3073 13.4448L15.3372 8.46387H11.2773Z" fill="#FABA93"/>
        <path d="M7.4707 8.91992L9.50063 13.9008L11.5306 8.91992H7.4707Z" fill="#FABA93"/>
        <path d="M15.0918 8.91992L17.1217 13.9008L19.1516 8.91992H15.0918Z" fill="#FABA93"/>
      </g>
    </g>
  </g>
</svg>