<svg width="3" height="3" viewBox="0 0 3 3" fill="none" xmlns="http://www.w3.org/2000/svg">
<path d="M0.885322 1.88986C0.945926 1.79922 1.03238 1.7285 1.13368 1.68668C1.23497 1.64487 1.34654 1.63385 1.45418 1.65504C1.6912 1.65504 1.88082 1.84916 2.121 1.84603C2.16503 1.84566 2.20838 1.83527 2.24772 1.81568C2.28706 1.79609 2.32133 1.76781 2.34789 1.73302C2.37446 1.69823 2.3926 1.65787 2.40093 1.61503C2.40927 1.5722 2.40756 1.52805 2.39595 1.48597C2.30114 1.05703 1.6912 0.95058 1.32144 0.98502C1.11652 0.999521 0.920745 1.07476 0.759554 1.20095C0.598363 1.32714 0.479215 1.49845 0.417597 1.69261C0.405324 1.75076 0.413781 1.81132 0.441526 1.86397C0.469272 1.91663 0.51459 1.95813 0.569757 1.98139C0.624924 2.00466 0.686527 2.00825 0.744069 1.99156C0.801611 1.97487 0.85153 1.93893 0.885322 1.88986Z" fill="#111111"/>
</svg>
