<svg width="17" height="18" viewBox="0 0 17 18" fill="none" xmlns="http://www.w3.org/2000/svg">
<path d="M16.6586 13.0415C16.6083 12.6158 16.4496 12.2098 16.1976 11.8615C15.9455 11.5132 15.6082 11.234 15.2175 11.0502C14.1714 10.5148 12.6102 10.8655 12.863 9.20609C13.1159 7.54669 13.5773 5.13586 11.1881 4.90417C10.0946 4.79772 8.97586 5.10455 7.88555 4.86973C6.49818 4.55664 6.18847 2.13642 5.83452 1.03746C5.55009 0.154536 4.14692 0.527118 4.42502 1.42257C4.44715 1.48832 4.46611 1.55407 4.48507 1.61982C3.44533 1.17522 2.54465 2.21469 2.64261 3.21346C2.50988 3.35436 2.37399 3.48899 2.22861 3.61736C1.88414 3.93045 1.51439 4.22789 1.16675 4.55664C0.821714 4.90738 0.561411 5.33104 0.40541 5.79578C0.249409 6.26052 0.201768 6.75425 0.266067 7.23985C0.392479 8.34821 1.0593 9.228 1.60919 10.1642C2.22229 11.2036 1.30897 12.7785 1.50807 13.962C1.98843 16.8237 5.22142 18.2451 7.76862 17.1336C8.25926 16.8726 8.69483 16.5208 9.05171 16.0973C9.22552 15.8781 9.39302 15.6558 9.55419 15.4273C9.61644 15.3433 9.67141 15.2543 9.71853 15.1611C10.7899 15.756 11.7064 16.4135 12.9831 16.4793C14.9741 16.5763 16.9746 15.2269 16.6586 13.0415Z" fill="#111111"/>
</svg>
