<svg width="2" height="3" viewBox="0 0 2 3" fill="none" xmlns="http://www.w3.org/2000/svg">
<path d="M0.286891 1.02825C0.24038 1.17619 0.22703 1.33241 0.247773 1.48599C0.268515 1.63957 0.322849 1.78682 0.406981 1.91744C0.508111 2.0959 0.91895 2.47475 1.09593 2.16791C1.10508 2.15221 1.1099 2.13439 1.1099 2.11625C1.1099 2.09812 1.10508 2.0803 1.09593 2.06459C1.04727 1.99894 0.980243 1.94886 0.903148 1.92057C0.812588 1.86738 0.737464 1.79188 0.685087 1.7014C0.551163 1.52044 0.484206 1.29932 0.495469 1.07521C0.499204 1.06165 0.500206 1.04748 0.498416 1.03353C0.496625 1.01958 0.492079 1.00611 0.485036 0.993902C0.477993 0.981692 0.46859 0.970975 0.457366 0.962364C0.446143 0.953752 0.433318 0.947415 0.419623 0.943715C0.405927 0.940014 0.391629 0.939023 0.377546 0.940796C0.363464 0.94257 0.349874 0.947074 0.337548 0.954052C0.325223 0.96103 0.314404 0.970344 0.305712 0.981463C0.29702 0.992583 0.290626 1.00529 0.286891 1.01886V1.02825Z" fill="white"/>
</svg>
