<svg width="4" height="4" viewBox="0 0 4 4" fill="none" xmlns="http://www.w3.org/2000/svg">
<path d="M3.32844 1.77594C3.30522 1.71414 3.27667 1.65443 3.24311 1.59748C3.211 1.5409 3.1751 1.48651 3.13566 1.43467C3.12454 1.41605 3.11069 1.39917 3.09458 1.38458C2.90836 1.16736 2.66053 1.01061 2.38327 0.934681C2.106 0.85875 1.8121 0.867142 1.53971 0.958769C1.51862 0.962765 1.49833 0.970169 1.47966 0.980685C1.41918 1.00569 1.3601 1.03391 1.30269 1.06522C1.24474 1.09847 1.18881 1.13506 1.13519 1.1748C1.11626 1.18562 1.09919 1.19936 1.08463 1.21551C0.865016 1.39973 0.706541 1.64525 0.629872 1.92003C0.553203 2.19482 0.561899 2.48611 0.654826 2.75593C0.659375 2.77668 0.66682 2.7967 0.676948 2.81542C0.701325 2.87726 0.730926 2.93696 0.765436 2.99388C0.797549 3.05046 0.833446 3.10485 0.872887 3.15669C0.88305 3.17506 0.897057 3.19107 0.913971 3.20365C1.1008 3.41994 1.34912 3.57539 1.62651 3.64968C1.9039 3.72397 2.19746 3.71365 2.46884 3.62007C2.49018 3.61698 2.51063 3.60952 2.52888 3.59815C2.58995 3.57444 2.64911 3.54618 2.70586 3.51362C2.76418 3.48259 2.81923 3.44588 2.8702 3.40403C2.88804 3.39299 2.90403 3.37926 2.9176 3.36333C3.13757 3.17937 3.2963 2.93386 3.373 2.65898C3.44969 2.3841 3.44077 2.09268 3.3474 1.82291C3.34447 1.80217 3.33806 1.78206 3.32844 1.76342V1.77594ZM2.66794 3.38525L2.35191 2.84673C2.48464 2.76845 2.61737 2.68392 2.74062 2.59625C2.83257 2.79838 2.87169 3.02018 2.8544 3.24122C2.79752 3.29559 2.73502 3.34386 2.66794 3.38525ZM2.38351 3.51362C2.18008 3.41663 2.00657 3.26744 1.88102 3.08155C2.00754 3.03013 2.131 2.97159 2.25078 2.90621L2.56681 3.44474C2.50044 3.46978 2.4404 3.49483 2.38351 3.51362ZM0.91081 2.96883L1.45754 2.65574C1.53128 2.7835 1.61254 2.90687 1.70089 3.02519C1.49578 3.11641 1.27085 3.15517 1.0467 3.1379C0.998205 3.08415 0.952834 3.0277 0.91081 2.96883ZM0.774917 2.65574C0.874129 2.45685 1.02321 2.28652 1.20788 2.16105C1.26296 2.29164 1.32521 2.41916 1.39434 2.54302L0.844444 2.85925C0.815611 2.80208 0.792331 2.74232 0.774917 2.68079V2.65574ZM1.29321 1.21864L1.60924 1.75716C1.49231 1.82604 1.37537 1.90431 1.26792 1.98259C1.17676 1.78364 1.13972 1.56452 1.16047 1.347C1.20226 1.30571 1.24659 1.26702 1.29321 1.23116V1.21864ZM1.62504 1.06522C1.82686 1.16318 1.99989 1.31089 2.12753 1.49416C1.98457 1.55267 1.84527 1.61958 1.71037 1.69454L1.39434 1.15602C1.46845 1.12247 1.54573 1.09625 1.62504 1.07774V1.06522ZM3.0851 1.59435L2.54153 1.90744C2.46984 1.78556 2.39178 1.66747 2.30766 1.55365C2.51074 1.45955 2.73543 1.42065 2.95869 1.44093C3.00616 1.49205 3.04849 1.54763 3.0851 1.60687V1.59435ZM2.45304 1.95441L2.01059 2.20488L1.77673 1.79473C1.9161 1.71722 2.05958 1.6472 2.20653 1.58496C2.29234 1.70801 2.37146 1.83552 2.44356 1.96693L2.45304 1.95441ZM1.66612 1.85422L1.89998 2.26437L1.50179 2.48667C1.43133 2.35764 1.36803 2.2249 1.31217 2.08904C1.40382 2.02642 1.52391 1.94815 1.65664 1.86674L1.66612 1.85422ZM1.56499 2.59625L1.96319 2.37082L2.20337 2.79663C2.0784 2.86429 1.94968 2.92491 1.81782 2.97822C1.72386 2.85975 1.6363 2.73642 1.55551 2.60877L1.56499 2.59625ZM2.31398 2.73401L2.07064 2.31133L2.51624 2.06086C2.5963 2.20697 2.66267 2.34473 2.71534 2.47414C2.58552 2.57507 2.44818 2.66613 2.3045 2.74654L2.31398 2.73401ZM2.63001 2.00763L3.17359 1.69454C3.20849 1.76063 3.23705 1.82981 3.25891 1.90118C3.15921 2.1006 3.01029 2.27183 2.82595 2.399C2.75946 2.2687 2.6856 2.14222 2.60473 2.02016L2.63001 2.00763ZM2.85756 1.3063C2.65217 1.32364 2.45071 1.37221 2.26026 1.45033C2.12857 1.28782 1.9705 1.14815 1.79253 1.03704C1.9761 1.00774 2.16387 1.01772 2.34322 1.06633C2.52257 1.11494 2.68932 1.20103 2.83227 1.31883L2.85756 1.3063ZM1.0467 1.46285C1.05263 1.66484 1.09104 1.8646 1.16047 2.0546C0.994526 2.1746 0.849367 2.32053 0.730673 2.48667C0.702244 2.3073 0.713521 2.12395 0.763726 1.94932C0.81393 1.7747 0.901859 1.61298 1.02142 1.47537L1.0467 1.46285ZM1.20156 3.25688C1.40597 3.23983 1.60643 3.19123 1.79569 3.11285C1.91799 3.27733 2.06633 3.42112 2.23498 3.53866C2.04938 3.57356 1.8583 3.56753 1.67532 3.52099C1.49234 3.47445 1.32196 3.38855 1.17628 3.2694L1.20156 3.25688ZM3.01241 3.10346C2.99643 2.89974 2.94734 2.69992 2.86704 2.51171C3.03375 2.39155 3.17993 2.24568 3.3 2.07965C3.32647 2.26452 3.31221 2.45289 3.2582 2.63178C3.20419 2.81068 3.11171 2.97587 2.98713 3.11599L3.01241 3.10346Z" fill="white"/>
</svg>
