<svg width="10" height="9" viewBox="0 0 10 9" fill="none" xmlns="http://www.w3.org/2000/svg">
<path d="M8.18317 1.93567C6.64411 0.0571101 2.71269 -0.725625 0.690102 0.827322C0.489307 0.973294 0.330125 1.16833 0.228081 1.39341C0.126036 1.61849 0.0846121 1.86592 0.107849 2.11159C0.131086 2.35725 0.218191 2.59276 0.360668 2.79513C0.503145 2.99751 0.696129 3.15985 0.920802 3.26632C1.46437 3.54185 2.88335 3.50741 3.13301 4.07724C3.38268 4.64707 3.47749 5.01652 4.01158 5.4298C4.42242 5.7429 5.04499 5.71159 5.52536 5.72411C6.20166 5.7429 6.15742 6.81994 6.33756 7.28958C6.40834 7.46102 6.51548 7.6154 6.65172 7.74225C6.78796 7.86911 6.95012 7.96549 7.12722 8.02486C7.30432 8.08424 7.49222 8.10523 7.67822 8.0864C7.86422 8.06758 8.04397 8.00939 8.2053 7.91577C9.73488 6.97649 9.36513 4.70969 8.91953 3.2945C8.76445 2.79891 8.51445 2.33755 8.18317 1.93567Z" fill="#111111"/>
</svg>
