<svg width="4" height="2" viewBox="0 0 4 2" fill="none" xmlns="http://www.w3.org/2000/svg">
<path d="M0.979257 1.65969C1.3045 1.63951 1.62 1.54176 1.8989 1.37478C2.03789 1.31164 2.18033 1.25625 2.32554 1.20884C2.48356 1.15561 2.64157 1.1744 2.80907 1.13057C2.89014 1.10974 2.96336 1.06606 3.01988 1.00483C3.0764 0.943605 3.11378 0.867454 3.12749 0.785605C3.1412 0.703756 3.13066 0.619724 3.09714 0.54369C3.06362 0.467656 3.00857 0.402885 2.93864 0.357224C2.60681 0.103618 2.07272 0.27582 1.74089 0.448022C1.38539 0.61567 1.05729 0.835188 0.767517 1.09926C0.714026 1.14014 0.675168 1.19693 0.656644 1.2613C0.638119 1.32567 0.640902 1.39422 0.664585 1.4569C0.688268 1.51959 0.731605 1.5731 0.788237 1.6096C0.844869 1.6461 0.911816 1.66365 0.979257 1.65969Z" fill="#FABA93"/>
</svg>
