<svg width="3" height="5" viewBox="0 0 3 5" fill="none" xmlns="http://www.w3.org/2000/svg">
<path d="M0.492141 1.0514C0.972506 1.31127 1.51608 1.67759 1.68674 2.23489C1.85739 2.7922 1.51292 3.23053 1.05468 3.48727C1.01369 3.51193 0.981762 3.54895 0.963562 3.5929C0.945363 3.63685 0.941853 3.68541 0.953547 3.73148C0.994657 3.87108 1.06681 3.99979 1.1647 4.10815C1.26259 4.21651 1.38373 4.30177 1.51924 4.35767C1.65256 4.40385 1.79661 4.41038 1.93363 4.37644C2.07065 4.34251 2.19465 4.26959 2.29035 4.16668C2.31525 4.14662 2.33449 4.12053 2.34623 4.09094C2.35796 4.06135 2.36179 4.02926 2.35734 3.99778C2.35289 3.96629 2.34032 3.93648 2.32083 3.91122C2.30134 3.88596 2.27561 3.86611 2.24611 3.85359C2.12918 3.80663 1.96168 3.90055 1.84159 3.92873C1.58877 3.98509 1.44971 3.77532 1.3549 3.57181L1.2759 3.86611C1.84159 3.48727 2.27139 2.883 2.04701 2.18167C1.92369 1.86198 1.72135 1.57808 1.45852 1.35599C1.1957 1.1339 0.880801 0.980721 0.542706 0.910506C0.524989 0.907233 0.506673 0.91006 0.4908 0.918519C0.474927 0.926977 0.462451 0.940558 0.455441 0.957007C0.44843 0.973457 0.447307 0.991787 0.452258 1.00896C0.457209 1.02612 0.467936 1.0411 0.48266 1.0514H0.492141Z" fill="#F48364"/>
</svg>
