<svg width="3" height="3" viewBox="0 0 3 3" fill="none" xmlns="http://www.w3.org/2000/svg">
<path d="M1.89997 1.88986C1.83967 1.79891 1.75325 1.72794 1.65187 1.68609C1.55048 1.64424 1.43876 1.63342 1.33112 1.65504C1.09409 1.65504 0.904475 1.84916 0.667453 1.84603C0.6231 1.84599 0.579344 1.8359 0.539533 1.81653C0.499723 1.79716 0.464915 1.76903 0.43777 1.73428C0.410624 1.69953 0.391862 1.65909 0.382921 1.61605C0.373981 1.57301 0.375098 1.52852 0.386186 1.48597C0.480995 1.05703 1.09093 0.95058 1.46069 0.98502C1.66561 0.999521 1.86139 1.07476 2.02258 1.20095C2.18377 1.32714 2.30292 1.49845 2.36454 1.69261C2.45934 1.97127 2.0485 2.13094 1.89681 1.88986H1.89997Z" fill="#111111"/>
</svg>
