<svg width="4" height="4" viewBox="0 0 4 4" fill="none" xmlns="http://www.w3.org/2000/svg">
<path d="M3.28637 1.67684C3.26114 1.61589 3.23265 1.55632 3.20104 1.49837C3.16861 1.44127 3.13162 1.38683 3.09043 1.33556C3.08044 1.31707 3.0664 1.30103 3.04935 1.2886C2.8639 1.07129 2.61663 0.91442 2.33982 0.83846C2.06301 0.762499 1.76951 0.770979 1.49764 0.862791C1.47518 0.865341 1.45359 0.872829 1.43443 0.884708C1.37292 0.909706 1.31279 0.937923 1.2543 0.969242C1.19713 1.00212 1.14223 1.03873 1.08996 1.07883C1.06974 1.08912 1.05238 1.10417 1.03939 1.12266C0.82005 1.30639 0.661708 1.55136 0.585035 1.8256C0.508363 2.09983 0.516921 2.3906 0.609594 2.65995C0.6122 2.68121 0.619774 2.70158 0.631716 2.71944C0.656948 2.78038 0.685431 2.83995 0.717044 2.8979C0.750232 2.95454 0.787184 3.00893 0.827655 3.06071C0.838906 3.08015 0.853946 3.09718 0.871899 3.11081C1.05735 3.32811 1.30461 3.48498 1.58143 3.56094C1.85824 3.6369 2.15173 3.62843 2.42361 3.53662C2.44595 3.5336 2.46745 3.52614 2.48681 3.5147C2.54791 3.48965 2.60796 3.46147 2.66695 3.43016C2.72412 3.39728 2.77902 3.36067 2.83129 3.32058C2.85144 3.31162 2.86887 3.29759 2.88185 3.27988C3.1012 3.09615 3.25954 2.85118 3.33621 2.57694C3.41288 2.3027 3.40432 2.01193 3.31165 1.74258C3.30861 1.72045 3.30108 1.69915 3.28953 1.67997L3.28637 1.67684ZM2.63535 3.28614L2.31932 2.74136C2.45469 2.66704 2.58458 2.58334 2.70803 2.49088C2.80357 2.69301 2.84285 2.91677 2.8218 3.13898C2.7644 3.19366 2.70197 3.24293 2.63535 3.28614ZM2.34776 3.41138C2.14647 3.3126 1.97363 3.16506 1.84527 2.98244C1.97283 2.93103 2.09733 2.8725 2.21819 2.80711L2.53422 3.3425C2.47102 3.37098 2.40546 3.39403 2.33828 3.41138H2.34776ZM0.878219 2.86973L1.42179 2.55663C1.49731 2.68502 1.57959 2.80939 1.66829 2.92921C1.46353 3.02137 1.23808 3.05913 1.01411 3.03879C0.960696 2.98681 0.912047 2.93024 0.868739 2.86973H0.878219ZM0.742327 2.55663C0.841539 2.35775 0.990615 2.18741 1.17529 2.06194C1.22901 2.18718 1.29222 2.31868 1.36175 2.44392L0.818174 2.75701C0.78603 2.69695 0.75958 2.63406 0.739166 2.56915L0.742327 2.55663ZM1.26062 1.11953L1.57665 1.65805C1.45767 1.72515 1.34361 1.80048 1.23533 1.88348C1.14138 1.6808 1.10114 1.45774 1.1184 1.23537C1.16048 1.19828 1.20481 1.16378 1.25114 1.13205L1.26062 1.11953ZM1.59245 0.966113C1.7932 1.0644 1.96513 1.21209 2.09178 1.39505C1.94882 1.45356 1.80952 1.52047 1.67462 1.59543L1.35858 1.05691C1.43046 1.02323 1.50565 0.996997 1.58297 0.978637L1.59245 0.966113ZM3.05251 1.49524L2.50894 1.80833C2.43625 1.68623 2.35408 1.56412 2.27507 1.45454C2.47848 1.36132 2.70265 1.32143 2.92609 1.33869C2.96858 1.39259 3.00764 1.44905 3.04303 1.50776L3.05251 1.49524ZM2.42045 1.8553L1.95588 2.11517L1.72202 1.70814C1.87687 1.62361 2.02225 1.55473 2.15498 1.49837C2.24436 1.61665 2.32667 1.74001 2.40148 1.86782L2.42045 1.8553ZM1.63353 1.75511L1.86739 2.16526L1.4692 2.38756C1.39335 2.24667 1.32698 2.11204 1.27642 1.98993C1.38537 1.91036 1.49822 1.83617 1.61457 1.76763L1.63353 1.75511ZM1.5324 2.49714L1.92744 2.27171L2.17078 2.69752C2.03489 2.76953 1.90532 2.82902 1.78523 2.87912C1.68767 2.76114 1.59693 2.63779 1.51344 2.50967L1.5324 2.49714ZM2.28139 2.6349L2.03805 2.21223L2.48049 1.96175C2.55567 2.09565 2.62319 2.23363 2.68275 2.37504C2.54851 2.47442 2.40813 2.56539 2.26243 2.64743L2.28139 2.6349ZM2.58162 1.9054L3.12203 1.5923C3.15693 1.65839 3.1855 1.72757 3.20736 1.79894C3.10815 1.99783 2.95907 2.16816 2.7744 2.29363C2.69855 2.18405 2.63535 2.04942 2.56266 1.91792L2.58162 1.9054ZM2.80916 1.20719C2.60372 1.22418 2.40221 1.27277 2.21187 1.35122C2.08889 1.1884 1.94187 1.04485 1.77575 0.925409C1.95622 0.900872 2.1399 0.914408 2.31473 0.965129C2.48956 1.01585 2.65159 1.10261 2.7902 1.21972L2.80916 1.20719ZM0.995151 1.36061C1.01229 1.56414 1.06134 1.76379 1.14052 1.95236C0.974544 2.07356 0.829409 2.22052 0.710723 2.38756C0.680463 2.20949 0.688465 2.02709 0.734209 1.85229C0.779953 1.67749 0.862409 1.51421 0.976189 1.37313L0.995151 1.36061ZM1.15001 3.15777C1.35545 3.14079 1.55696 3.0922 1.7473 3.01375C1.87028 3.17657 2.0173 3.32011 2.18342 3.43956C1.9988 3.47307 1.80902 3.46634 1.62728 3.41984C1.44554 3.37334 1.2762 3.28819 1.13104 3.1703L1.15001 3.15777ZM2.95138 3.01688C2.9319 2.81407 2.88072 2.6155 2.79968 2.42826C2.96563 2.30826 3.11079 2.16233 3.22948 1.99619C3.25914 2.17613 3.24968 2.36027 3.20171 2.5363C3.15375 2.71232 3.0684 2.87617 2.95138 3.01688Z" fill="white"/>
</svg>
