<svg width="10" height="11" viewBox="0 0 10 11" fill="none" xmlns="http://www.w3.org/2000/svg">
<path d="M0 3.07068L4.74045 0.418772C4.8182 0.374719 4.90398 0.346329 4.99284 0.335237C5.0817 0.324144 5.1719 0.330567 5.25825 0.354136C5.3446 0.377705 5.4254 0.417955 5.49599 0.472571C5.56658 0.527187 5.62558 0.595092 5.66958 0.672378L9.13643 6.69631C9.18139 6.77347 9.21045 6.85871 9.22191 6.94707C9.23337 7.03544 9.22701 7.12519 9.2032 7.2111C9.17939 7.29702 9.1386 7.3774 9.0832 7.44758C9.02779 7.51776 8.95888 7.57634 8.88045 7.61994L4.13999 10.2906L0 3.07068Z" fill="#211C3F"/>
</svg>
