<svg width="2" height="3" viewBox="0 0 2 3" fill="none" xmlns="http://www.w3.org/2000/svg">
<path d="M0.313324 1.0287C0.266352 1.17642 0.252481 1.33251 0.272677 1.48609C0.292872 1.63966 0.34665 1.78703 0.430256 1.91789C0.534546 2.09635 0.942225 2.4752 1.12236 2.16837C1.1302 2.15225 1.13427 2.13459 1.13427 2.1167C1.13427 2.09882 1.1302 2.08116 1.12236 2.06504C1.07259 1.99916 1.0045 1.94911 0.926424 1.92102C0.83726 1.86608 0.762525 1.79097 0.708362 1.70185C0.576039 1.52011 0.509254 1.29956 0.518744 1.07567C0.522454 1.05004 0.516613 1.02396 0.502314 1.0023C0.488015 0.980632 0.466238 0.964871 0.441058 0.957963C0.415878 0.951055 0.389021 0.953473 0.365511 0.964764C0.342 0.976055 0.323447 0.995447 0.313324 1.01931V1.0287Z" fill="white"/>
</svg>
