<svg width="10" height="11" viewBox="0 0 10 11" fill="none" xmlns="http://www.w3.org/2000/svg">
<path d="M0 3.07056L4.74045 0.41865C4.8182 0.374597 4.90398 0.346207 4.99284 0.335115C5.0817 0.324022 5.1719 0.330445 5.25825 0.354014C5.3446 0.377583 5.4254 0.417833 5.49599 0.472449C5.56658 0.527065 5.62558 0.59497 5.66958 0.672256L9.13643 6.69619C9.18139 6.77335 9.21045 6.85858 9.22191 6.94695C9.23337 7.03532 9.22701 7.12506 9.2032 7.21098C9.17939 7.2969 9.1386 7.37727 9.0832 7.44745C9.02779 7.51763 8.95888 7.57622 8.88045 7.61981L4.13999 10.2905L0 3.07056Z" fill="#211C3F"/>
</svg>
