<svg width="4" height="4" viewBox="0 0 4 4" fill="none" xmlns="http://www.w3.org/2000/svg">
<path d="M1.11804 2.45281C1.20782 2.62958 1.3424 2.78021 1.50859 2.88998C1.67478 2.99975 1.8669 3.06488 2.06613 3.079C2.228 3.08269 2.38869 3.05093 2.53674 2.98598C2.68479 2.92104 2.81653 2.82451 2.92257 2.70329C3.37449 2.13345 3.52619 1.23801 3.0079 0.652519C2.89341 0.520024 2.74469 0.420886 2.57767 0.365732C2.41066 0.310577 2.23164 0.301484 2.05981 0.339425C2.03282 0.34692 2.00642 0.356337 1.9808 0.367604C1.8598 0.379404 1.74285 0.417164 1.63806 0.478261C1.53328 0.539358 1.44318 0.622326 1.37402 0.7214C1.5036 0.549198 1.49728 0.55546 1.3519 0.743316C1.3203 0.805935 1.29502 0.871685 1.26973 0.937435L1.31082 0.818459C1.30006 0.851957 1.28631 0.884439 1.26973 0.915519C1.19514 1.05031 1.12866 1.18936 1.07064 1.33193C0.994828 1.51072 0.959769 1.70387 0.967963 1.89762C0.976157 2.09137 1.0274 2.28094 1.11804 2.45281Z" fill="#FABA93"/>
</svg>
